<svg viewBox="0 0 267.2 271.03" xmlns="http://www.w3.org/2000/svg"><rect fill="#353647" height="4.26" rx="2.13" width="155.9" x="111.3" y="266.74"/><path d="m179.81 217.79s15.47-53.79 36.28-62.29c8.93-3.63 25.88-5.35 32.65-4.72 8.2.77 6.31 9.1 11.92 25.37 9.23 26.78 1.95 90.46-9.94 91.87s-117.23 0-117.23 0c-3.38-6.87 2.31-41.54 46.32-50.23z" fill="#00a8bf"/><path d="m224.19 217.79s7.54-53.81 17.69-62.29c11.09-9.26 18.21-2.53 22.71 24.26s0 86.85-5.82 88.26-57.17 0-57.17 0c-1.6-6.87 1.13-41.54 22.59-50.23z" fill="#24c1de"/><path d="m168.47 230.6s36-29.88 36.56-39.9 2.06-28.62 2.06-28.62 5.4-2.67 5.8 4.67c0 0 9.07.21 10 7.22s-1.63 20.86-2.83 26.31-.23 16.24-.23 16.24a22.09 22.09 0 0 0 -8.59 7c-3.55 4.95-7.21 9.89-14.42 10.2s-28.35-3.12-28.35-3.12z" fill="#010101" opacity=".2"/><path d="m201.75 129.36s11.39-3.82 14.64-2.9 4.11-.27 6.7 1.38 6.29 5.12 4.9 6.74-4.41 2.18-5.8 3.29-2.55 6.56-5.34 5.35-14.43-10.28-15.1-13.86z" fill="#24c1de"/><path d="m142.67 254.76s.85 8.08 1 10.37-8-.48-8.82-2.17a77.41 77.41 0 0 0 1.18-8.2s2.27-2.89 6.64 0z" fill="#edac90"/><path d="m144.58 263a7.88 7.88 0 0 1 -9.33-2.36 6 6 0 0 0 -4.66 2c-2.23 2.3-9 2.71-10.82 3.41s-.7 4.07-.7 4.07h26.69s.16-4.58-1.18-7.12z" fill="#379c75"/><path d="m137.21 269.38h9.17v1.65h-9.17z" fill="#268a60" transform="matrix(-1 0 0 -1 283.6 540.42)"/><path d="m118.75 269.38h15.17v1.65h-15.17z" fill="#268a60" transform="matrix(-1 0 0 -1 252.68 540.42)"/><path d="m130.32 261.53a8.9 8.9 0 0 1 3 2.61c.36.48-.46.95-.81.47a7.9 7.9 0 0 0 -2.65-2.26c-.55-.29-.08-1.1.46-.82z" fill="#268a60"/><path d="m128.43 262.4a8.87 8.87 0 0 1 3 2.6c.36.49-.46.95-.81.47a8 8 0 0 0 -2.65-2.26c-.55-.29-.08-1.1.46-.81z" fill="#268a60"/><path d="m126.54 263.26a8.87 8.87 0 0 1 3 2.6c.36.49-.46 1-.81.47a8 8 0 0 0 -2.65-2.26c-.55-.29-.08-1.07.46-.81z" fill="#268a60"/><path d="m187.5 215.33s4.35 10.93-5.47 14.2-31.85-1.29-35.28-1.53-7.14-2.44-8-4.79-1.77-9.09 4.89-10c3.39-.48 20.76-1.89 20.76-1.89s19.26-5.1 23.1 4.01z" fill="#353647"/><path d="m138.86 215.67c-2.48 3.21-3.45 8.54-3 16.1s0 22.18-1.57 26.85c0 0 5.8 1.61 10.51.64a21.7 21.7 0 0 1 .62-10.29c1.21-3.84 6-20.61 5.57-26.38s-7.09-13.43-12.13-6.92z" fill="#353647"/><path d="m160.11 254.76s.85 8.08 1 10.37-8-.48-8.82-2.17a77.41 77.41 0 0 0 1.18-8.2s2.27-2.89 6.64 0z" fill="#edac90"/><path d="m207.09 157.3s-1.41 9.4-1.41 10.5a22 22 0 0 1 -6.27.65l.78-5.13s3.11-5.43 6.9-6.02z" fill="#edac90"/><path d="m199.92 165.14.27-1.82s3.11-5.43 6.9-6c0 0-.21 1.41-.47 3.2-1.5 1.81-4.24 4.65-6.7 4.62z" fill="#010101" opacity=".2"/><path d="m172.54 188.18s-15.83 13.22-18.35 16.47a20.74 20.74 0 0 0 -3.36 5.91l10.51-.8-.26-4.88s16.33-8.29 18-10.87-2.73-9.01-6.54-5.83z" fill="#edac90"/><path d="m188 168.48s-9.56 13.89-16.94 19.81c0 0 .95 4.81 8.83 9.41a124 124 0 0 1 13.33-13.64s6.09-10.18-5.22-15.58z" fill="#45465c"/><path d="m192.44 184.73-1-6-4.44-5.73a36.39 36.39 0 0 0 -1.09 9.46 45.48 45.48 0 0 1 -1 9.6c1.96-2.06 4.5-4.59 7.53-7.33z" fill="#010101" opacity=".2"/><path d="m210.85 167.49s1.57-4.34 0-4.6-4.7-.13-5.48 1.13.47 2.37-.79 3.47-6-.55-5.17-2.36a3.1 3.1 0 0 0 -2.66.18c-1.42.76-6.12-.22-8.78 3.17s.78 10.76.78 15.15-2.27 15.88-11.95 26.25c0 0 23.86 10.75 28.88 8.4s8.62-19.13 10.19-25.24 5.33-16.46 3.45-19.28-8.47-6.27-8.47-6.27z" fill="#353647"/><path d="m204.17 188.41a78.07 78.07 0 0 1 -9.33 7.16c-2 1.19-11.59 5.6-11.59 5.6l-2.5 5.26s15.89-.44 17.57 1.13-15.13 1.23-18.93 2.61a4.82 4.82 0 0 0 -.91.45c5.52 2.39 23 9.63 27.2 7.66 5-2.35 8.62-19.13 10.19-25.24 1.29-5 4.06-12.93 3.95-17.14l-6.52-1.81s-7.89 12.91-9.13 14.32z" fill="#010101" opacity=".2"/><path d="m203.17 193.05-1.55 1.44s-21.34 10-30.24 8.53c-2.92-.48-4.37 4.72-4.06 6.72l5.33-.41a13 13 0 0 1 2.91-.65c1.41-.11 1.55-1.48 3.48-2.25s20.85-1 24.13-2.25 5.49-3.22 5.49-6.48-5.49-4.65-5.49-4.65z" fill="#edac90"/><path d="m213.3 174.09a4.46 4.46 0 0 1 8 2.67c0 3.1-.31 6.65-1.48 9.22-2.55 5.65-8.19 16-10.07 18.19a6.58 6.58 0 0 1 -4.43 2.26s.8-1.61-.77-5.84-3.75-6-3.36-6.46 3.85-4.85 5.11-6.42c.8-.99 3.32-8.64 7-13.62z" fill="#45465c"/><path d="m204.94 215.33s4.35 10.93-5.47 14.2-31.86-1.29-35.28-1.53-7.14-2.44-8-4.79-1.78-9.09 4.89-10c3.39-.48 20.76-1.89 20.76-1.89s19.26-5.1 23.1 4.01z" fill="#45465c"/><path d="m156.3 215.67c-2.48 3.21-3.45 8.54-3 16.1s0 22.18-1.57 26.85c0 0 5.8 1.61 10.51.64a21.7 21.7 0 0 1 .62-10.29c1.21-3.84 6-20.61 5.57-26.38s-7.09-13.43-12.13-6.92z" fill="#45465c"/><path d="m162 263a7.88 7.88 0 0 1 -9.33-2.36 6 6 0 0 0 -4.66 2c-2.23 2.3-9.05 2.71-10.82 3.41s-.7 4.07-.7 4.07h26.71s.16-4.58-1.2-7.12z" fill="#38b880"/><path d="m154.65 269.38h9.17v1.65h-9.17z" fill="#268a60" transform="matrix(-1 0 0 -1 318.48 540.42)"/><path d="m136.19 269.38h15.17v1.65h-15.17z" fill="#268a60" transform="matrix(-1 0 0 -1 287.55 540.42)"/><path d="m147.76 261.53a8.9 8.9 0 0 1 3 2.61c.36.48-.46.95-.81.47a7.9 7.9 0 0 0 -2.65-2.26c-.55-.29-.08-1.1.46-.82z" fill="#268a60"/><path d="m145.87 262.4a9 9 0 0 1 3 2.6c.36.49-.46.95-.81.47a8 8 0 0 0 -2.65-2.26c-.55-.29-.08-1.1.46-.81z" fill="#268a60"/><path d="m144 263.26a9 9 0 0 1 3 2.6c.36.49-.46 1-.81.47a8 8 0 0 0 -2.65-2.26c-.54-.29-.1-1.07.46-.81z" fill="#268a60"/><path d="m214.62 146.87s-1.9 5.53-4.88 8.28l.62-8.28z" fill="#52516b"/><path d="m194.71 138a14 14 0 0 0 -3 7.84c-.16 4.55-1.1 14 1.49 16.93s9.48-.15 11.05-1.57a15.6 15.6 0 0 0 2.82-3.91s4.39.78 5.33-2.67.47-5.17-1.41-5.64c0 0 .47-8.47-3.92-11a11.42 11.42 0 0 0 -12.36.02z" fill="#edac90"/><path d="m211 149s-2.76-1-3.76 4.39h-2.34s2.88-6.38-.73-9.36-7.75.52-12-.78-2.59-6.79 2.43-8.68 11.08-2.06 15.19-.13c2 .92 4.79 1.08 5.41 6.8.49 4.94.2 6.18-4.2 7.76z" fill="#52516b"/><path d="m190.13 140.92s-.62 4.27 5.38 6.13c0 0-2.77-2.54-2-5.21 0 0-.46 3.48 4.57 4.06a3.45 3.45 0 0 1 -.76-3.82s1.35 2.75 3.86 2.9l-1.34-4.06s-7.52-2.56-9.71 0z" fill="#52516b"/><rect fill="#6788ab" height="30.63" rx="4.38" transform="matrix(-.99713255 .07567488 -.07567488 -.99713255 310.97 379.85)" width="37.4" x="129.58" y="180.5"/><rect fill="#cec3e1" height="30.63" rx="4.38" transform="matrix(-.99713255 .07567488 -.07567488 -.99713255 306.23 380.39)" width="37.4" x="127.2" y="180.68"/><path d="m128.08 208.32-1.65-21.81a4.38 4.38 0 0 1 4-4.7l7.51-.57c2.29 1.08 4.44 2.8 4.53 5.46.18 5.75-4.66 9.86-.24 13.77s11.55-2.17 14.08-1.07c2.22 1 9.11 3.15 6.7 10.3a4.46 4.46 0 0 1 -1.71.49l-28.55 2.17a4.4 4.4 0 0 1 -4.67-4.04z" fill="#f5f6f8" opacity=".2"/><path d="m133.87 215.15 53.73-4.08a2.87 2.87 0 0 0 2.64-3.08l-59.44 4.52a2.86 2.86 0 0 0 3.07 2.64z" fill="#607991"/><path d="m133.87 215.15 27.54-2.09a2.87 2.87 0 0 0 2.64-3.08l-33.25 2.53a2.86 2.86 0 0 0 3.07 2.64z" fill="#7491b0"/><path d="m145 195.64 2.61-5.18a6 6 0 0 1 2 1.69 5.8 5.8 0 1 1 -8.12-1.14z" fill="#38b880"/><path d="m192.66 161.94s.27-1.22 2.18-1.37 4 2.16 6.36 2.16c0 0-3.48 6.25-6.36 5.75s-1.57-4.88-2.18-6.54z" fill="#52516b"/><path d="m194.55 134.56s15.74-.44 20.07 12.31a2.64 2.64 0 0 0 3.39-1.38c1.4-2.32-1-3.16-.23-5.71s1.92-5.09-4.89-6.71-15.52-9.79-18.34 1.49z" fill="#00a8bf"/><path d="m223.09 127.84a5.93 5.93 0 0 0 -1.78-.8s4.06 4 1.78 6-5.6 3.8-8.47 3.12c-2.59-.61.49 4.21-3.37 4.91a16.15 16.15 0 0 1 3.37 5.77 2.64 2.64 0 0 0 3.39-1.38 2.54 2.54 0 0 0 .32-2.25c1.77-.79 2.74-4.47 3.86-5.37 1.39-1.11 4.41-1.66 5.8-3.29s-2.32-5.07-4.9-6.71z" fill="#010101" opacity=".2"/><path d="m71.35 52.97h68.17l8.18-51.11h-68.17z" fill="#010101" opacity=".2"/><path d="m69.5 51.12h68.17l8.17-51.12h-68.17z" fill="#fff"/><g fill="#010101"><path d="m120.26 15.21h18.87l1.84-11.47h-18.87z" opacity=".1"/><path d="m80.06 5.49h39.28l.28-1.75h-39.28z" opacity=".1"/><path d="m79.54 8.73h39.29l.28-1.75h-39.29z" opacity=".1"/><path d="m79.02 11.97h39.29l.28-1.75h-39.29z" opacity=".1"/><path d="m96.6 15.21h21.19l.28-1.75h-21.19z" opacity=".1"/></g><path d="m73.56 46.13h60.63l4.21-26.31h-60.63z" fill="#00a8bf"/><path d="m97.81 59.18h7.77s21-7.63 23.61-8.51 2.84-6.39 5.8-7.84c0 0 .87.29 0 1.8a7.6 7.6 0 0 0 -1.05 3.71s3.41-2.6 4.55-4.58a3.14 3.14 0 0 1 .85 2.55c-.24 1.51-.87 2.78-.93 3.54s.17 2.61-.23 3.54-8.07 3.13-8.07 3.13l-24.94 11.71-12.64-.85a12.92 12.92 0 0 1 5.28-8.2z" fill="#edac90"/><path d="m49.28 123.08c-2.15.29-13.11 1-19.41 3.48s-17 8.29-19.52 9.24-1.58 3.48 1.24 4.68c2.43 1 27.08-4.78 37.18-6.76a7.47 7.47 0 0 0 5.23-3.72c2.82-5.37-4.72-6.92-4.72-6.92z" fill="#edac90"/><path d="m47.56 112.28c-3.62.07-2 12.53-2.93 14.49 0 0 .45 6.49 5.64 5.52a6.48 6.48 0 0 0 4.87-4.39l1.22-3.66c2.01-10.01-5.18-12.03-8.8-11.96z" fill="#edac90"/><path d="m50.11 196.09h36.41a1.63 1.63 0 0 0 1.63-1.63 1.62 1.62 0 0 0 -1.63-1.62h-36.41a1.62 1.62 0 0 0 -1.63 1.62 1.63 1.63 0 0 0 1.63 1.63z" fill="#353647"/><path d="m11.49 142.21s-3 5.31-4.57 7.61-1.49 8-3.63 8.56-1.9-12.63-2.22-15.15c-.43-3.39-.61-6.66 1.15-8.54s8.81.87 8.81.87 1.79 4.34.46 6.65z" fill="#24c1de"/><circle cx="7.42" cy="138.93" fill="#00a8bf" r="2.15"/><path d="m2.83 134.14c.32 3.94-.84 7.72-.34 11.71s1.24 8.15 1.88 12.28c.23 1.5-2.13 1.66-2.36.16-.64-4.09-1.37-8.17-1.88-12.29s.66-7.77.34-11.71a1.18 1.18 0 0 1 2.36-.15z" fill="#00a8bf"/><path d="m70.72 126.51v6.64s-3.06 49-4.94 51.43-4.58 2.69-4.85 0-1.34-25.58-2.15-32.31 1.34-17.5 1.61-19.66-5.2-13.46-1.79-14.67 10.87-1.57 12.12 8.57z" fill="#edac90"/><path d="m79.46 93.64s-3.85 20.06-2.5 26 3.33 9.86-2.76 12.78-18-9.22-20.72-10-14.43 4.75-13.37-8.53 4.32-16.72 8.06-20.64 5.57-6.12 5.57-6.12 10.01-2.75 25.72 6.51z" fill="#353647"/><path d="m53.74 87.1s-1.83 2.2-5.57 6.12-7 7.44-8.06 20.64c-.48 6 1.67 8.17 4.42 8.8a71.35 71.35 0 0 0 -.62-7.18c-.74-4.91 3.51-16.12 7.27-19.76s10.16-2.86 14.56-1.13a43.14 43.14 0 0 0 10 2.25l3.46-2c.14-.76.22-1.21.22-1.21-15.67-9.25-25.68-6.53-25.68-6.53z" fill="#010101" opacity=".2"/><path d="m79.78 47.57-2.71 6.76-8.44-4.12 3.94-8.7s6.86 4.03 7.21 6.06z" fill="#edac90"/><path d="m91 34.77s-1.76 3.37-1.19 5.56-1.69 11.67-8.22 8.32-9.72-7.83-7.81-15.11 6.16-8.95 10.5-7.25 6.92 2.54 6.72 8.48z" fill="#edac90"/><path d="m85.08 52.75s-2.08-1.26-7.93-1.75-7.46-3.8-9.15-6.39-8.67 3.83-9.68 10 .68 19.39-1.43 23.47-4.8 6.92-3.61 10.08 11.33 1.61 14.36 3.08 9.15 5.07 13 2.38.45-8.69 0-13.12 4.64-6.44 8-9.85 3.04-10.96-3.56-17.9z" fill="#ef485c"/><path d="m77.69 63.13c-1.35-4.64 9.31.28 13.89 2.12.21 2.85-2.6 5-3.79 6.21-3.02-.59-8.79-3.85-10.1-8.33z" fill="#010101" opacity=".2"/><path d="m97.81 57.73a29.4 29.4 0 0 1 -5.81 12.57s-5.41.56-11.58-3.94-3-12.23.67-14.13 7.39 3.28 10.07 4.28a27.44 27.44 0 0 0 6.65 1.22z" fill="#e13e50"/><path d="m99 58.39c-.63 2.23-.66 4.5-1.76 6.58a72.28 72.28 0 0 1 -4.56 6.82c-.79 1.16-2.69.08-1.9-1.08 1.38-2 2.9-4 4.12-6.07s1.31-4.44 2-6.81a1.1 1.1 0 0 1 2.1.56z" fill="#ef485c"/><path d="m91 34.77a54.29 54.29 0 0 1 -7.58.44c-3-.15 3 13 3.7 18.49 0 0-4-3.47-7.23-.56 0 0 0 13.48-6.09 20.66s-22.18-2.14-22.61-11.16 12.98-19.32 14.27-22.64-.24-11.28 2.3-15.59 9.82-7.28 18.09-3.61 6.31 10.5 5.15 13.97z" fill="#913440"/><path d="m67 183.1s4.71 3.09 6.73 4.71 7.27 1.88 7.68 3.9-11.79.94-14.14 1.08c-3.16.17-6.19.13-7.81-1.62s1.37-8.07 1.37-8.07 4.11-1.37 6.17 0z" fill="#24c1de"/><path d="m59.92 191.18c3.67 0 7.08 1.27 10.8 1.07s7.64-.62 11.46-.95c1.4-.12 1.39 2.07 0 2.19-3.82.32-7.64.74-11.46.95s-7.14-1.11-10.8-1.07a1.1 1.1 0 0 1 0-2.19z" fill="#00a8bf"/><path d="m66.24 187.15a2.15 2.15 0 1 1 -2.14-2.15 2.14 2.14 0 0 1 2.14 2.15z" fill="#00a8bf"/><path d="m83 34.12s6.44-12.48-4.54-15c0 0 6.35-2.23 9.36 2.73s.69 15.25-4.76 17.88c.04 0-1.82-3.98-.06-5.61z" fill="#ef485c"/></svg>