<svg viewBox="0 0 280 178.75" xmlns="http://www.w3.org/2000/svg"><path d="m0 97a29.94 29.94 0 0 0 9.12 6.83 29.05 29.05 0 0 0 5.57 2.06l.74.19.84.18h.28l1.11.15a20.51 20.51 0 0 0 4 .06c4.51-.44 7.39-1.66 9.87-2.34a28 28 0 0 1 6.47-1.32 22.5 22.5 0 0 1 3.13.11c1.41.17 2.49.32 3.87.57 2.63.45 5.36 1 8.11 1.61 5.51 1.18 11.17 2.5 17.09 3.5s12.09 1.81 19 1a82 82 0 0 0 18.06-4.6 22.72 22.72 0 0 0 4.72-2.5 18.53 18.53 0 0 0 3.94-3.84c2-2.47 3.32-4.87 4.69-6.7 1-1.38 3.37-3.59 5.17-5.64s3.7-4.16 5.47-6.3c7-8.6 12.71-17.63 20.54-24.69a32.29 32.29 0 0 1 13.62-7.53 43.77 43.77 0 0 1 16.44-.91c11.17 1.32 21.77 5.57 32.52 9.22 5.37 1.8 10.89 3.54 16.64 4.14s11.89-.35 16.36-3.71c-4.64 3.19-10.72 4-16.26 3.11s-10.99-2.65-16.25-4.65c-10.53-4-21-8.7-32.6-10.51a55.52 55.52 0 0 0 -17.73 0 37.76 37.76 0 0 0 -16.2 7.35c-9.16 7.11-15.91 15.92-23.42 23.44-1.87 1.89-3.79 3.73-5.76 5.54s-4 3.14-6.35 5.95c-2 2.41-3.42 4.61-4.92 6.29a10.87 10.87 0 0 1 -2 1.82 14.17 14.17 0 0 1 -2.77 1.27 73.12 73.12 0 0 1 -15.19 3.14c-4.56.33-9.87-.53-15.17-1.68s-10.66-2.61-16.24-4.13c-2.79-.73-5.6-1.48-8.59-2.12-1.39-.33-3.14-.66-4.57-.9a36.08 36.08 0 0 0 -5.43-.53c-7.44-.2-14.66 2.79-17.25 2.61-.43 0-.36-.05-.27 0l-1-.19h-.25c-.46-.1.54.11.43.07h-.07l-.29-.1a12.37 12.37 0 0 1 -2.3-1 14.65 14.65 0 0 1 -3.92-3.32z" fill="#595959"/><path d="m81 106.48a97.72 97.72 0 0 0 16.34-19.73c4.36-7.14 7.85-15.22 7.75-23.81a42.45 42.45 0 0 0 -.73-6.16 40.24 40.24 0 0 1 1.24-16.78c2.22-7.29 6-14.71 12.67-19.71-7.29 4.37-12 11.55-15.27 19a45 45 0 0 0 -3.1 11.71 42.4 42.4 0 0 0 -.26 6.2 41.6 41.6 0 0 1 0 5.57c-.74 7.19-4.53 14-9.23 20a93 93 0 0 1 -16.64 16.38z" fill="#595959"/><path d="m117 89.75a52.53 52.53 0 0 0 22.08 4.45 38 38 0 0 0 21.09-6.61c5.53-4.2 11.51-7.74 18.49-9 6.77-1.27 14.79.25 19.26 5.6-4.09-5.62-12.25-7.76-19.47-6.82s-14.11 4.4-19.86 8.22a34.57 34.57 0 0 1 -19.49 4.92 47.69 47.69 0 0 1 -19.48-5z" fill="#595959"/><path d="m75.9 102.16a91.48 91.48 0 0 0 -.83-15 72.24 72.24 0 0 0 -3.48-14.61 44.82 44.82 0 0 0 -7.51-13.25l-9.08-12.12 7.93 12.82a42 42 0 0 1 6.07 13.21 80 80 0 0 1 1.52 28.53z" fill="#595959"/><path d="m150.66 55.54a37.43 37.43 0 0 0 14.81-11.71 29.34 29.34 0 0 0 5.58-16.75c.7-5.39 4.49-10.3 9.46-13.6a48.2 48.2 0 0 1 17-6.83 48.93 48.93 0 0 0 -17.56 6.07c-5.32 3.16-9.74 8.09-10.91 14.12a27.49 27.49 0 0 1 -6.04 15.39 34.7 34.7 0 0 1 -13.89 9.89z" fill="#595959"/><path d="m52.61 103.21a29.79 29.79 0 0 0 9.81 19.24c5.61 5.06 13.3 7.54 20.4 8.27a61.14 61.14 0 0 1 19.46 5.84 47.94 47.94 0 0 1 15.83 12.25 48 48 0 0 0 -14.77-13.81 63.68 63.68 0 0 0 -19.73-7.9c-6.73-1.31-12.69-4-16.75-8.44a23.32 23.32 0 0 1 -6.12-15.55z" fill="#595959"/><path d="m267.3 44c-6.68.29-18.77 5.76-18.45 11.86s12.92 10.49 19.61 10.2 11.85-5.47 11.54-11.57-6-10.8-12.7-10.49z" fill="#9ece70"/><path d="m265.91 69.73c-2.36-5.71-11.8-14.49-18.08-12.32s-7 14.42-4.57 20.12 9.34 8.58 15.6 6.44 9.43-8.53 7.05-14.24z" fill="#9ece70"/><path d="m238.43 76.48c5.23-3.82 11.48-14.72 7.28-19.47s-17.22-1.58-22.44 2.24a10.36 10.36 0 0 0 -1.88 15.51 13 13 0 0 0 17.04 1.72z" fill="#9ece70"/><path d="m223 54.65c5.6 3.35 18.9 5.4 22.59.3s-3.69-15.4-9.27-18.74-13.13-1.94-16.79 3.16-2.11 11.95 3.47 15.28z" fill="#9ece70"/><path d="m241 34.73c-1.77 5.86.22 18 6.66 19.63s15-7.93 16.72-13.81-2-11.95-8.48-13.56-13.13 1.85-14.9 7.74z" fill="#9ece70"/><path d="m245.85 54.51.14 2.91 11.11-.47-.15-2.92z" fill="#fff"/><path d="m259.51 52.33a3.36 3.36 0 0 0 -3.51 3.19 3.41 3.41 0 0 0 3.79 2.89c2-.1 3.56-1.51 3.47-3.19a3.42 3.42 0 0 0 -3.75-2.89z" fill="#fff"/><path d="m248.09 54.2-3.02 1.03 3.96 9.49 2.98-1.04z" fill="#fff"/><path d="m254.59 65.38a3.57 3.57 0 0 0 -4.43-2 3.07 3.07 0 0 0 -1.82 4.15 3.59 3.59 0 0 0 4.4 2 3.1 3.1 0 0 0 1.85-4.15z" fill="#fff"/><path d="m249.09 56.06-2-2.28-8.68 6.35 2.01 2.26z" fill="#fff"/><path d="m239.43 65.12a3 3 0 0 0 .75-4.42 3.72 3.72 0 0 0 -4.92-.31 3 3 0 0 0 -.75 4.45 3.71 3.71 0 0 0 4.92.28z" fill="#fff"/><path d="m247.48 57.5 1.76-2.43-9.3-5.56-1.75 2.44z" fill="#fff"/><path d="m235 52a3.76 3.76 0 0 0 4.88-.72 3 3 0 0 0 -1.21-4.35 3.7 3.7 0 0 0 -4.88.71 3 3 0 0 0 1.21 4.36z" fill="#fff"/><path d="m245.47 56.55 3.07.78 2.95-9.79-3.1-.76z" fill="#fff"/><path d="m247.42 44a3.13 3.13 0 0 0 2.26 4 3.52 3.52 0 0 0 4.17-2.39 3.13 3.13 0 0 0 -2.24-4 3.53 3.53 0 0 0 -4.19 2.39z" fill="#fff"/><path d="m248.96 55.17-1.24 1.68 6.43 4 1.26-1.68z" fill="#fff"/><path d="m257.64 59.19a2.62 2.62 0 0 0 -3.43.45 2.13 2.13 0 0 0 .8 3.07 2.64 2.64 0 0 0 3.42-.46 2.11 2.11 0 0 0 -.79-3.06z" fill="#fff"/><path d="m247.82 56.56-2.14-.57-2.18 6.81 2.15.57z" fill="#fff"/><path d="m246.32 65.3a2.2 2.2 0 0 0 -1.55-2.82 2.49 2.49 0 0 0 -3 1.62 2.22 2.22 0 0 0 1.54 2.84 2.52 2.52 0 0 0 3.01-1.64z" fill="#fff"/><path d="m246.12 56.17-.08-2.04-7.78.21.07 2.04z" fill="#fff"/><path d="m236.5 57.54a2.35 2.35 0 0 0 2.5-2.19 2.38 2.38 0 0 0 -2.61-2.07 2.16 2.16 0 1 0 .13 4.26z" fill="#fff"/><path d="m245.95 54.41 2.12-.69-2.63-6.67-2.12.69z" fill="#fff"/><path d="m241.55 46.53a2.5 2.5 0 0 0 3.06 1.47 2.16 2.16 0 0 0 1.33-2.89 2.48 2.48 0 0 0 -3.05-1.47 2.16 2.16 0 0 0 -1.34 2.89z" fill="#fff"/><path d="m247.81 53.78 1.38 1.62 6.13-4.36-1.35-1.6z" fill="#fff"/><path d="m254.68 47.52a2.12 2.12 0 0 0 -.58 3.1 2.62 2.62 0 0 0 3.45.28 2.11 2.11 0 0 0 .58-3.1 2.64 2.64 0 0 0 -3.45-.28z" fill="#fff"/><path d="m209.67 93.16c-1.85-4.41-9.18-11.2-14-9.5s-5.38 11.18-3.54 15.6 7.29 6.64 12.15 5 7.24-6.66 5.39-11.1z" fill="#86b65b"/><path d="m188.51 98.45c4-3 8.86-11.42 5.61-15.11s-13.34-1.19-17.4 1.77a8.07 8.07 0 0 0 -1.43 12 10.06 10.06 0 0 0 13.22 1.34z" fill="#86b65b"/><path d="m176.42 81.63c4.36 2.58 14.67 4.15 17.51.2s-2.88-12-7.22-14.53a10 10 0 0 0 -13 2.49 8.09 8.09 0 0 0 2.71 11.84z" fill="#86b65b"/><path d="m190.37 66c-1.35 4.57.19 14 5.2 15.22s11.57-6.18 12.93-10.75-1.6-9.25-6.62-10.49-10.17 1.48-11.51 6.02z" fill="#86b65b"/><path d="m210.82 73.29c-5.19.24-14.54 4.49-14.29 9.22s10 8.12 15.22 7.88 9.19-4.26 8.92-9-4.67-8.34-9.85-8.1z" fill="#86b65b"/><path d="m196 81.3-2.34.81 3.06 7.33 2.33-.8z" fill="#fff"/><path d="m201 90a2.8 2.8 0 0 0 -3.41-1.57 2.42 2.42 0 0 0 -1.42 3.25 2.78 2.78 0 0 0 3.43 1.56 2.39 2.39 0 0 0 1.4-3.24z" fill="#fff"/><path d="m196.78 82.75-1.57-1.78-6.71 4.93 1.56 1.77z" fill="#fff"/><path d="m189.3 89.8a2.33 2.33 0 0 0 .56-3.44 2.88 2.88 0 0 0 -3.8-.25 2.34 2.34 0 0 0 -.58 3.46 2.93 2.93 0 0 0 3.82.23z" fill="#fff"/><path d="m195.52 83.87 1.35-1.9-7.21-4.3-1.36 1.91z" fill="#fff"/><path d="m185.83 79.58a2.88 2.88 0 0 0 3.78-.58 2.34 2.34 0 0 0 -.94-3.38 2.9 2.9 0 0 0 -3.78.58 2.36 2.36 0 0 0 .94 3.38z" fill="#fff"/><path d="m193.94 83.12 2.41.6 2.27-7.58-2.42-.58z" fill="#fff"/><path d="m195.42 73.42a2.47 2.47 0 0 0 1.78 3.1 2.76 2.76 0 0 0 3.24-1.86 2.41 2.41 0 0 0 -1.76-3.09 2.76 2.76 0 0 0 -3.26 1.85z" fill="#fff"/><path d="m194.25 81.55.12 2.25 8.59-.39-.1-2.25z" fill="#fff"/><path d="m204.83 79.84a2.59 2.59 0 0 0 -2.68 2.48 2.66 2.66 0 0 0 2.94 2.23 2.6 2.6 0 0 0 2.69-2.49 2.64 2.64 0 0 0 -2.95-2.22z" fill="#fff"/><path d="m196.19 83.57-1.65-.45-1.67 5.29 1.66.44z" fill="#fff"/><path d="m195 90.35a1.69 1.69 0 0 0 -1.19-2.19 1.92 1.92 0 0 0 -2.29 1.28 1.7 1.7 0 0 0 1.19 2.17 1.9 1.9 0 0 0 2.29-1.26z" fill="#fff"/><path d="m194.79 83.13-.04-1.58-6.04.19.05 1.57z" fill="#fff"/><path d="m187.36 84.22a1.83 1.83 0 0 0 1.92-1.71 1.85 1.85 0 0 0 -2-1.59 1.82 1.82 0 0 0 -1.92 1.71 1.85 1.85 0 0 0 2 1.59z" fill="#fff"/><path d="m194.72 81.89 1.62-.55-2.05-5.17-1.64.55z" fill="#fff"/><path d="m191.27 75.78a2 2 0 0 0 2.38 1.12 1.67 1.67 0 0 0 1-2.24 2 2 0 0 0 -2.4-1.13 1.69 1.69 0 0 0 -.98 2.25z" fill="#fff"/><path d="m196.09 81.35 1.06 1.26 4.78-3.37-1.09-1.26z" fill="#fff"/><path d="m201.4 76.5a1.63 1.63 0 0 0 -.44 2.41 2 2 0 0 0 2.66.19 1.61 1.61 0 0 0 .45-2.4 2 2 0 0 0 -2.67-.2z" fill="#fff"/><path d="m197.05 82.45-.98 1.31 5.01 3.09.96-1.31z" fill="#fff"/><path d="m203.76 85.54a2 2 0 0 0 -2.64.36 1.65 1.65 0 0 0 .61 2.39 2 2 0 0 0 2.64-.36 1.67 1.67 0 0 0 -.61-2.39z" fill="#fff"/><path d="m139.37 24.26c-6.5-1.59-19.92.26-21.68 6.19s8.84 13.66 15.31 15.26 13.2-1.92 14.95-7.84-2.08-12.01-8.58-13.61z" fill="#86b65b"/><path d="m129.35 48.52c-.33-6.12-6.42-17.17-13.16-16.86s-11.53 11.88-11.18 18 6.08 10.84 12.8 10.52 11.89-5.53 11.54-11.66z" fill="#86b65b"/><path d="m100.76 47.31c6.29-2.21 15.94-10.89 13.54-16.62s-16-6.32-22.26-4.13-9.44 8.6-7 14.33 9.44 8.61 15.72 6.42z" fill="#86b65b"/><path d="m93.37 22.09c4.22 4.78 16.28 10.46 21.52 6.6s1.67-15.78-2.56-20.55a13 13 0 0 0 -17.15-1.66 10.44 10.44 0 0 0 -1.81 15.61z" fill="#86b65b"/><path d="m117.31 8c-3.69 5.15-5.89 17.35-.25 20.7s17-3.44 20.67-8.57 2.09-12-3.56-15.36-13.17-1.89-16.86 3.23z" fill="#86b65b"/><path d="m115.25 28.34-.82 2.82 10.8 2.66.83-2.84z" fill="#fff"/><path d="m129.1 30.07a3.61 3.61 0 0 0 -4.4 2.1c-.48 1.62.7 3.32 2.65 3.81a3.58 3.58 0 0 0 4.39-2.09 3.2 3.2 0 0 0 -2.64-3.82z" fill="#fff"/><path d="m117.51 28.67-3.22.15.59 10.17 3.21-.15z" fill="#fff"/><path d="m120 41.19a3.37 3.37 0 0 0 -3.58-3.19 3.29 3.29 0 0 0 -3.16 3.47 3.38 3.38 0 0 0 3.55 3.17 3.32 3.32 0 0 0 3.19-3.45z" fill="#fff"/><path d="m117.86 30.72-1.14-2.73-10.46 3.64 1.16 2.75z" fill="#fff"/><path d="m105.55 36.73a3.16 3.16 0 0 0 2.22-4.06 3.68 3.68 0 0 0 -4.62-1.67c-1.89.65-2.89 2.47-2.2 4.05a3.63 3.63 0 0 0 4.6 1.68z" fill="#fff"/><path d="m115.81 31.65 2.51-1.83-7.01-7.93-2.52 1.85z" fill="#fff"/><path d="m105.75 22.84a3.71 3.71 0 0 0 4.91.67 3 3 0 0 0 .34-4.51 3.74 3.74 0 0 0 -4.91-.66 3 3 0 0 0 -.34 4.5z" fill="#fff"/><path d="m114.2 30.17 2.72 1.62 6.1-8.55-2.7-1.6z" fill="#fff"/><path d="m120.32 18.73a3 3 0 0 0 .83 4.47 3.69 3.69 0 0 0 4.78-1.12 3 3 0 0 0 -.83-4.47 3.69 3.69 0 0 0 -4.78 1.12z" fill="#fff"/><path d="m118.05 29.84-1.77 1.26 4.81 5.62 1.78-1.26z" fill="#fff"/><path d="m125 36.11a2.65 2.65 0 0 0 -3.45-.51 2.13 2.13 0 0 0 -.27 3.16 2.66 2.66 0 0 0 3.44.51 2.12 2.12 0 0 0 .28-3.16z" fill="#fff"/><path d="m116.49 30.85-1.89-1.14-4.37 5.91 1.88 1.14z" fill="#fff"/><path d="m112.07 38.81a2.13 2.13 0 0 0 -.52-3.14 2.59 2.59 0 0 0 -3.37.73 2.09 2.09 0 0 0 .53 3.13 2.58 2.58 0 0 0 3.36-.72z" fill="#fff"/><path d="m114.98 29.99.61-1.97-7.53-1.96-.62 1.97z" fill="#fff"/><path d="m105.3 28.63a2.54 2.54 0 0 0 3.12-1.41 2.22 2.22 0 0 0 -1.81-2.7 2.51 2.51 0 0 0 -3.11 1.4 2.24 2.24 0 0 0 1.8 2.71z" fill="#fff"/><path d="m115.4 28.27 2.25-.05-.27-7.15-2.26.07z" fill="#fff"/><path d="m113.84 19.49a2.38 2.38 0 0 0 2.45 2.26 2.34 2.34 0 1 0 -2.45-2.26z" fill="#fff"/><path d="m117.39 28.17.78 1.95 7.34-2.45-.76-1.92z" fill="#fff"/><path d="m126.08 24.12a2.19 2.19 0 0 0 -1.58 2.81 2.56 2.56 0 0 0 3.2 1.21 2.2 2.2 0 0 0 1.6-2.8 2.57 2.57 0 0 0 -3.22-1.22z" fill="#fff"/><path d="m151.82 138.67c-7.4-2.32-23.14-1.16-25.7 5.59s9 16.49 16.46 18.82 15.47-1.27 18-8-1.35-14.08-8.76-16.41z" fill="#9ece70"/><path d="m138.07 166.08c.13-7.13-6-20.39-13.78-20.52s-14.44 12.93-14.57 20.05 6.09 13 13.92 13.14 14.28-5.53 14.43-12.67z" fill="#9ece70"/><path d="m105 162.56c7.48-2.07 19.45-11.45 17.17-18.27s-18-8.52-25.46-6.43-11.71 9.3-9.43 16.14 10.22 10.65 17.72 8.56z" fill="#9ece70"/><path d="m98.63 132.78c4.49 5.85 18 13.32 24.4 9.24s3.33-18.2-1.17-24-13.32-7.27-19.75-3.18-7.98 12.16-3.48 17.94z" fill="#9ece70"/><path d="m127.65 118.22c-4.71 5.7-8.35 19.68-2.1 24s20-2.74 24.74-8.43 3.48-13.81-2.78-18.1-15.15-3.17-19.86 2.53z" fill="#9ece70"/><path d="m123.5 141.63-1.23 3.22 12.3 3.87 1.22-3.23z" fill="#fff"/><path d="m139.39 144.64c-2.23-.68-4.6.27-5.3 2.12s.53 3.93 2.76 4.62 4.57-.24 5.27-2.1-.51-3.93-2.73-4.64z" fill="#fff"/><path d="m126.08 142.19-3.75-.08-.24 11.86 3.75.04z" fill="#fff"/><path d="m127.83 156.89a3.91 3.91 0 1 0 -4 3.79 3.9 3.9 0 0 0 4-3.79z" fill="#fff"/><path d="m126.31 144.59-1.1-3.26-12.45 3.46 1.1 3.27z" fill="#fff"/><path d="m111.48 150.63c2.24-.59 3.54-2.64 2.93-4.51s-3-2.91-5.22-2.29-3.54 2.66-2.92 4.54 2.96 2.9 5.21 2.26z" fill="#fff"/><path d="m123.83 145.53 3.07-1.95-7.44-9.72-3.07 1.96z" fill="#fff"/><path d="m113 134.56a4.29 4.29 0 0 0 5.63 1.13 3.48 3.48 0 0 0 .76-5.2 4.31 4.31 0 0 0 -5.62-1.13 3.49 3.49 0 0 0 -.77 5.2z" fill="#fff"/><path d="m122.1 143.69 3.01 2.07 7.83-9.47-2.99-2.07z" fill="#fff"/><path d="m130.19 130.87a3.48 3.48 0 0 0 .57 5.23 4.34 4.34 0 0 0 5.67-.94 3.53 3.53 0 0 0 -.56-5.24 4.34 4.34 0 0 0 -5.68.95z" fill="#fff"/><path d="m126.57 143.58-2.14 1.33 5.09 6.87 2.17-1.33z" fill="#fff"/><path d="m134.09 151.36a3.06 3.06 0 0 0 -4-.85 2.46 2.46 0 0 0 -.59 3.64 3 3 0 0 0 3.92.85 2.44 2.44 0 0 0 .67-3.64z" fill="#fff"/><path d="m124.68 144.64-2.08-1.48-5.59 6.55 2.07 1.47z" fill="#fff"/><path d="m118.86 153.53a2.44 2.44 0 0 0 -.33-3.66 3 3 0 0 0 -4 .6 2.44 2.44 0 0 0 .33 3.66 3 3 0 0 0 4-.6z" fill="#fff"/><path d="m123 143.51.9-2.24-8.56-2.82-.9 2.23z" fill="#fff"/><path d="m111.9 141.24a3 3 0 0 0 3.75-1.41 2.58 2.58 0 0 0 -1.88-3.28 3 3 0 0 0 -3.72 1.42 2.58 2.58 0 0 0 1.85 3.27z" fill="#fff"/><path d="m123.65 141.56 2.63.1.32-8.3-2.63-.09z" fill="#fff"/><path d="m122.63 131.26a2.69 2.69 0 0 0 2.63 2.79 2.78 2.78 0 0 0 2.85-2.63 2.74 2.74 0 0 0 -5.48-.16z" fill="#fff"/><path d="m125.99 141.61.71 2.3 8.76-2.3-.72-2.29z" fill="#fff"/><path d="m136.42 137.53a2.6 2.6 0 0 0 -2.11 3.13 2.93 2.93 0 0 0 3.61 1.65 2.59 2.59 0 0 0 2.11-3.13 2.91 2.91 0 0 0 -3.61-1.65z" fill="#fff"/><path d="m73.85 49.11c-5.3-1.3-16.28.23-17.71 5.07s7.21 11.17 12.53 12.46 10.8-1.56 12.22-6.39-1.71-9.83-7.04-11.14z" fill="#86b65b"/><path d="m65.68 69c-.3-5-5.28-14.05-10.77-13.79s-9.44 9.72-9.15 14.74 5 8.85 10.46 8.6 9.78-4.55 9.46-9.55z" fill="#86b65b"/><path d="m42.28 68c5.15-1.8 13-8.9 11.06-13.58s-13.04-5.22-18.18-3.42-7.72 7-5.75 11.73 7.71 7 12.87 5.27z" fill="#86b65b"/><path d="m36.24 47.34c3.46 3.9 13.31 8.54 17.59 5.4s1.37-12.9-2.07-16.81a10.63 10.63 0 0 0 -14-1.36 8.52 8.52 0 0 0 -1.52 12.77z" fill="#86b65b"/><path d="m55.81 35.85c-3.01 4.15-4.81 14.15-.18 16.91s13.89-2.81 16.9-7a8.59 8.59 0 0 0 -2.92-12.55 10.57 10.57 0 0 0 -13.8 2.64z" fill="#86b65b"/><g fill="#fff"><path d="m54.15 52.44-.7 2.32 8.84 2.18.69-2.33z"/><path d="m65.45 53.87a2.94 2.94 0 0 0 -3.6 1.71 2.64 2.64 0 0 0 2.15 3.11 2.94 2.94 0 0 0 3.6-1.7 2.64 2.64 0 0 0 -2.15-3.12z"/><path d="m56 52.72-2.64.11.46 8.33 2.65-.12z"/><path d="m58 63a2.77 2.77 0 0 0 -2.9-2.59 2.69 2.69 0 0 0 -2.58 2.85 2.78 2.78 0 0 0 2.89 2.59 2.69 2.69 0 0 0 2.59-2.85z"/><path d="m56.28 54.4-.94-2.24-8.56 2.97.95 2.26z"/><path d="m46.19 59.3a2.56 2.56 0 0 0 1.81-3.3 3 3 0 0 0 -3.77-1.38 2.56 2.56 0 0 0 -1.81 3.31 3 3 0 0 0 3.77 1.37z"/><path d="m54.59 55.17 2.06-1.51-5.76-6.49-2.05 1.52z"/><path d="m46.37 48a3 3 0 0 0 4 .54 2.46 2.46 0 0 0 .26-3.69 3.08 3.08 0 0 0 -4-.54 2.45 2.45 0 0 0 -.26 3.69z"/><path d="m53.29 53.95 2.2 1.32 4.99-6.99-2.2-1.31z"/><path d="m58.27 44.6a2.47 2.47 0 0 0 .67 3.65 3 3 0 0 0 3.93-.92 2.47 2.47 0 0 0 -.66-3.64 3 3 0 0 0 -3.94.91z"/><path d="m56.42 53.67-1.44 1.04 3.92 4.59 1.48-1.03z"/><path d="m62.1 58.8a2.13 2.13 0 0 0 -2.79-.41 1.72 1.72 0 0 0 -.25 2.61 2.15 2.15 0 0 0 2.8.4 1.74 1.74 0 0 0 .24-2.6z"/><path d="m55.15 54.5-1.54-.93-3.59 4.83 1.53.94z"/><path d="m51.54 61a1.76 1.76 0 0 0 -.43-2.57 2.15 2.15 0 0 0 -2.78.61 1.74 1.74 0 0 0 .44 2.55 2.14 2.14 0 0 0 2.77-.59z"/><path d="m53.91 53.81.51-1.62-6.15-1.61-.52 1.6z"/><path d="m46 52.68a2 2 0 0 0 2.54-1.15 1.85 1.85 0 0 0 -1.49-2.22 2.09 2.09 0 0 0 -2.54 1.16 1.83 1.83 0 0 0 1.49 2.21z"/><path d="m54.25 52.39 1.85-.05-.22-5.84-1.85.06z"/><path d="m53 45.21a2 2 0 0 0 2 1.85 1.89 1.89 0 0 0 1.83-2 1.93 1.93 0 0 0 -2-1.83 1.91 1.91 0 0 0 -1.83 1.98z"/><path d="m55.9 52.31.62 1.59 6.01-2-.62-1.56z"/><path d="m63 49a1.8 1.8 0 0 0 -1.31 2.3 2.09 2.09 0 0 0 2.63 1 1.79 1.79 0 0 0 1.3-2.3 2.1 2.1 0 0 0 -2.62-1z"/><path d="m182.81 10.82s5.78 20.86 34.52 11.5c0 0-6.56-19.73-34.52-11.5z"/><path d="m182.81 10.81s17.13 12.56 31.13-7.4c0 0-16.94-11.41-31.13 7.4z"/></g><path d="m150.73 92.74a36.48 36.48 0 0 1 15.83 7.11 28.92 28.92 0 0 1 9.37 13.93c2.49 5.69 7.91 9.69 13.83 11.8a51.21 51.21 0 0 0 18.57 2.68 49.7 49.7 0 0 1 -18.18-3.54c-5.61-2.29-10.41-6.4-12.31-11.54a30.42 30.42 0 0 0 -9.21-15.35 39.52 39.52 0 0 0 -17.12-8.72z" fill="#595959"/><path d="m188.68 124.53s7.65-20.36 35.43-8.89c0 0-8.31 19.19-35.43 8.89z" fill="#86b65b"/><path d="m188.67 124.53s18.23-11.22 30.36 9.73c-.03 0-17.97 10.05-30.36-9.73z" fill="#86b65b"/></svg>