<svg height="512pt" viewBox="0 0 512 512" width="512pt" xmlns="http://www.w3.org/2000/svg" xmlns:xlink="http://www.w3.org/1999/xlink"><linearGradient id="a" gradientUnits="userSpaceOnUse" x1="0" x2="512" y1="256" y2="256"><stop offset="0" stop-color="#00f2fe"/><stop offset=".0208" stop-color="#03effe"/><stop offset=".2931" stop-color="#24d2fe"/><stop offset=".5538" stop-color="#3cbdfe"/><stop offset=".7956" stop-color="#4ab0fe"/><stop offset="1" stop-color="#4facfe"/></linearGradient><path d="m336.140625 205.144531-50.855469 50.855469 50.855469 50.855469c7.8125 7.8125 7.8125 20.476562 0 28.285156-3.902344 3.90625-9.023437 5.859375-14.140625 5.859375s-10.238281-1.953125-14.140625-5.855469l-50.859375-50.859375-50.859375 50.859375c-3.902344 3.902344-9.023437 5.855469-14.140625 5.855469s-10.238281-1.953125-14.140625-5.855469c-7.8125-7.8125-7.8125-20.476562 0-28.285156l50.855469-50.859375-50.855469-50.855469c-7.8125-7.8125-7.8125-20.476562 0-28.285156 7.808594-7.8125 20.472656-7.8125 28.28125 0l50.859375 50.855469 50.859375-50.859375c7.808594-7.808594 20.472656-7.808594 28.28125 0 7.8125 7.8125 7.8125 20.476562 0 28.289062zm115.859375-19.144531h-10.074219c-2.648437 0-5.050781-1.667969-6.105469-4.230469l-.164062-.386719c-1.078125-2.597656-.5625-5.484374 1.3125-7.355468l7.121094-7.125c11.335937-11.332032 17.574218-26.398438 17.574218-42.425782 0-16.027343-6.238281-31.09375-17.570312-42.425781l-14.144531-14.144531c-11.332031-11.332031-26.398438-17.570312-42.425781-17.570312-16.027344 0-31.09375 6.238281-42.425782 17.570312l-7.121094 7.125c-1.875 1.871094-4.761718 2.386719-7.355468 1.3125l-.367188-.152344c-2.582031-1.066406-4.253906-3.46875-4.253906-6.117187v-10.074219c0-33.085938-26.914062-60-60-60h-20c-33.082031 0-60 26.914062-60 60v10.074219c0 2.648437-1.667969 5.050781-4.1875 6.089843l-.429688.179688c-2.59375 1.078125-5.480468.5625-7.355468-1.3125l-7.121094-7.121094c-11.335938-11.332031-26.402344-17.574218-42.429688-17.574218-16.023437 0-31.09375 6.242187-42.425781 17.574218l-14.140625 14.140625c-11.332031 11.332031-17.574218 26.398438-17.574218 42.429688 0 16.023437 6.242187 31.09375 17.574218 42.425781l7.121094 7.121094c1.875 1.875 2.390625 4.761718 1.3125 7.359375l-.152344.363281c-1.066406 2.582031-3.46875 4.25-6.117187 4.25h-10.074219c-33.085938 0-60 26.914062-60 60v20c0 33.085938 26.914062 60 60 60h10.074219c2.648437 0 5.050781 1.667969 6.105469 4.230469l.164062.390625c1.078125 2.59375.5625 5.480468-1.3125 7.351562l-7.121094 7.125c-11.335937 11.332032-17.574218 26.398438-17.574218 42.425782 0 16.027343 6.238281 31.09375 17.570312 42.425781l14.144531 14.144531c23.394531 23.390625 61.460938 23.390625 84.851563 0l7.125-7.125c1.871094-1.875 4.757812-2.390625 7.355468-1.3125l.363282.152344c2.585937 1.066406 4.253906 3.46875 4.253906 6.117187v10.074219c0 33.085938 26.914062 60 60 60h20c33.085938 0 60-26.914062 60-60v-10.074219c0-2.648437 1.667969-5.050781 4.1875-6.089843l.429688-.179688c2.597656-1.078125 5.484374-.5625 7.355468 1.3125l7.125 7.121094c23.390625 23.394531 61.457032 23.394531 84.851563 0 7.8125-7.808594 7.8125-20.472656 0-28.285156-7.8125-7.808594-20.472657-7.808594-28.285157 0-7.796874 7.800781-20.484374 7.800781-28.28125 0l-7.125-7.121094c-13.355468-13.359375-33.355468-17.273438-50.953124-9.980469l-.320313.136719c-17.609375 7.269531-28.984375 24.183594-28.984375 43.085937v10.074219c0 11.027344-8.972656 20-20 20h-20c-11.027344 0-20-8.972656-20-20v-10.074219c0-18.902343-11.375-35.816406-29.046875-43.113281l-.257813-.105469c-17.597656-7.296875-37.59375-3.382812-50.953124 9.976563l-7.121094 7.125c-7.800782 7.800781-20.488282 7.796875-28.285156 0l-14.144532-14.144532c-3.777344-3.777343-5.855468-8.800781-5.855468-14.140624 0-5.34375 2.082031-10.367188 5.855468-14.144532l7.125-7.121094c13.367188-13.367187 17.277344-33.378906 9.992188-50.921874l-.148438-.351563c-7.269531-17.605469-24.179687-28.984375-43.085937-28.984375h-10.074219c-11.027344 0-20-8.972656-20-20v-20c0-11.027344 8.972656-20 20-20h10.074219c18.90625 0 35.816406-11.378906 43.097656-29.007812l.109375-.265626c7.316406-17.605468 3.402344-37.617187-9.964844-50.984374l-7.121094-7.121094c-3.777343-3.777344-5.859374-8.800782-5.859374-14.144532 0-5.339843 2.078124-10.363281 5.859374-14.140624l14.140626-14.144532c3.777343-3.777344 8.800781-5.855468 14.140624-5.855468 5.34375 0 10.367188 2.078124 14.144532 5.855468l7.121094 7.125c13.359374 13.355469 33.355468 17.273438 50.953124 9.976563l.324219-.132813c17.605469-7.269531 28.980469-24.183594 28.980469-43.085937v-10.074219c0-11.027344 8.972656-20 20-20h20c11.027344 0 20 8.972656 20 20v10.074219c0 18.902343 11.375 35.816406 29.046875 43.113281l.257813.105469c17.597656 7.296875 37.59375 3.382812 50.953124-9.976563l7.121094-7.125c3.777344-3.777344 8.800782-5.855468 14.144532-5.855468 5.339843 0 10.363281 2.078124 14.140624 5.855468l14.144532 14.144532c3.777344 3.777343 5.855468 8.800781 5.855468 14.140624 0 5.34375-2.082031 10.367188-5.859374 14.144532l-7.121094 7.121094c-13.367188 13.367187-17.28125 33.378906-9.96875 50.980468l.125.292969c7.269531 17.605469 24.183594 28.984375 43.085937 28.984375h10.074219c11.027344 0 20 8.972656 20 20v20c0 11.027344-8.972656 20-20 20h-10.074219c-18.902343 0-35.816406 11.375-43.097656 29.003906l-.109375.269532c-7.3125 17.605468-3.398438 37.617187 9.964844 50.984374 7.8125 7.808594 20.472656 7.808594 28.285156 0 7.8125-7.8125 7.8125-20.472656 0-28.285156-1.871094-1.871094-2.386719-4.761718-1.285156-7.414062l.125-.308594c1.066406-2.582031 3.46875-4.25 6.117187-4.25h10.074219c33.085938 0 60-26.917969 60-60v-20c0-33.085938-26.914062-60-60-60zm0 0" fill="url(#a)"/></svg>