<svg height="512" viewBox="0 0 64 64" width="512" xmlns="http://www.w3.org/2000/svg"><g id="network_place" data-name="network place"><path d="m59 29a2.848 2.848 0 0 0 -1.17.24 3 3 0 0 0 0 5.52 2.848 2.848 0 0 0 1.17.24 3 3 0 0 0 0-6z" fill="#78b9eb"/><path d="m51 10a2.985 2.985 0 0 0 -2.76 1.83 2.848 2.848 0 0 0 -.24 1.17 3 3 0 1 0 3-3z" fill="#78b9eb"/><path d="m54 51a3 3 0 0 0 -6 0 2.848 2.848 0 0 0 .24 1.17 3 3 0 0 0 5.76-1.17z" fill="#78b9eb"/><circle cx="32" cy="28" fill="#78b9eb" r="7"/><path d="m32 8a2.989 2.989 0 0 0 2.49-1.32 3.026 3.026 0 0 0 .51-1.68 3 3 0 0 0 -6 0 2.848 2.848 0 0 0 .24 1.17 2.985 2.985 0 0 0 2.76 1.83z" fill="#78b9eb"/><path d="m35 59a3.026 3.026 0 0 0 -.51-1.68 3 3 0 0 0 -5.25.51 2.848 2.848 0 0 0 -.24 1.17 3 3 0 0 0 6 0z" fill="#78b9eb"/><path d="m11.83 15.76a2.848 2.848 0 0 0 1.17.24 3 3 0 0 0 3-3 3.026 3.026 0 0 0 -.51-1.68 3 3 0 1 0 -3.66 4.44z" fill="#78b9eb"/><path d="m13 54a2.989 2.989 0 0 0 2.49-1.32 3.026 3.026 0 0 0 .51-1.68 3 3 0 0 0 -3-3 2.848 2.848 0 0 0 -1.17.24 3 3 0 0 0 1.17 5.76z" fill="#78b9eb"/><circle cx="5" cy="32" fill="#78b9eb" r="3"/><g fill="#1a6fb0"><path d="m31 8.858v5.142h2v-5.142a4 4 0 1 0 -2 0zm1-5.858a2 2 0 1 1 -2 2 2 2 0 0 1 2-2z"/><path d="m8.858 33h5.142v-2h-5.142a4 4 0 1 0 0 2zm-3.858 1a2 2 0 1 1 2-2 2 2 0 0 1 -2 2z"/><path d="m33 55.142v-5.142h-2v5.142a4 4 0 1 0 2 0zm-1 5.858a2 2 0 1 1 2-2 2 2 0 0 1 -2 2z"/><path d="m59 28a4 4 0 0 0 -3.858 3h-5.142v2h5.142a3.993 3.993 0 1 0 3.858-5zm0 6a2 2 0 1 1 2-2 2 2 0 0 1 -2 2z"/><path d="m43.856 9.511h2v1.81h-2z" transform="matrix(.388 -.921 .921 .388 17.834 47.704)"/><path d="m37.184 6.698h2v1.811h-2z" transform="matrix(.389 -.921 .921 .389 16.341 39.832)"/><path d="m40.52 8.105h2v1.81h-2z" transform="matrix(.388 -.921 .921 .388 17.09 43.77)"/><path d="m54.085 40.52h1.81v2h-1.81z" transform="matrix(.389 -.921 .921 .389 -4.639 76.049)"/><path d="m55.491 37.184h1.81v2h-1.81z" transform="matrix(.389 -.921 .921 .389 -.705 75.305)"/><path d="m52.678 43.856h1.811v2h-1.811z" transform="matrix(.389 -.921 .921 .389 -8.572 76.792)"/><path d="m21.48 54.085h2v1.81h-2z" transform="matrix(.388 -.921 .921 .388 -36.924 54.344)"/><path d="m24.816 55.491h2v1.81h-2z" transform="matrix(.388 -.921 .921 .388 -36.18 58.279)"/><path d="m18.144 52.678h2v1.811h-2z" transform="matrix(.389 -.921 .921 .389 -37.668 50.402)"/><path d="m9.511 18.144h1.81v2h-1.81z" transform="matrix(.389 -.921 .921 .389 -11.271 21.301)"/><path d="m6.698 24.816h1.811v2h-1.811z" transform="matrix(.389 -.921 .921 .389 -19.138 22.788)"/><path d="m8.105 21.48h1.81v2h-1.81z" transform="matrix(.389 -.921 .921 .389 -15.205 22.044)"/><path d="m8.01 40.615h2v1.81h-2z" transform="matrix(.921 -.389 .389 .921 -15.429 6.766)"/><path d="m6.603 37.278h2v1.811h-2z" transform="matrix(.921 -.389 .389 .921 -14.243 5.957)"/><path d="m9.416 43.951h2v1.81h-2z" transform="matrix(.921 -.389 .389 .921 -16.615 7.575)"/><path d="m37.278 55.397h1.811v2h-1.811z" transform="matrix(.921 -.389 .389 .921 -18.918 19.275)"/><path d="m43.951 52.583h1.81v2h-1.81z" transform="matrix(.921 -.389 .389 .921 -17.299 21.647)"/><path d="m40.615 53.99h1.81v2h-1.81z" transform="matrix(.921 -.389 .389 .921 -18.109 20.461)"/><path d="m55.396 24.911h2v1.81h-2z" transform="matrix(.921 -.389 .389 .921 -5.6 23.949)"/><path d="m53.99 21.575h2v1.81h-2z" transform="matrix(.921 -.389 .389 .921 -4.414 23.14)"/><path d="m52.583 18.238h2v1.811h-2z" transform="matrix(.921 -.389 .389 .921 -3.228 22.326)"/><path d="m24.911 6.604h1.81v2h-1.81z" transform="matrix(.921 -.389 .389 .921 -.926 10.632)"/><path d="m21.575 8.01h1.81v2h-1.81z" transform="matrix(.921 -.389 .389 .921 -1.734 9.446)"/><path d="m18.238 9.416h1.81v2h-1.81z" transform="matrix(.921 -.389 .389 .921 -2.543 8.259)"/><path d="m19.979 45.435-1.414-1.414-3.546 3.546a3.947 3.947 0 0 0 -2.019-.567 4 4 0 1 0 4 4 3.947 3.947 0 0 0 -.567-2.019zm-6.979 7.565a2 2 0 1 1 2-2 2 2 0 0 1 -2 2z"/><path d="m44.021 18.565 1.414 1.414 3.546-3.546a3.947 3.947 0 0 0 2.019.567 4 4 0 1 0 -4-4 3.947 3.947 0 0 0 .567 2.019zm6.979-7.565a2 2 0 1 1 -2 2 2 2 0 0 1 2-2z"/><path d="m13 17a3.947 3.947 0 0 0 2.019-.567l3.546 3.546 1.414-1.414-3.546-3.546a3.947 3.947 0 0 0 .567-2.019 4 4 0 1 0 -4 4zm0-6a2 2 0 1 1 -2 2 2 2 0 0 1 2-2z"/><path d="m51 47a3.947 3.947 0 0 0 -2.019.567l-3.546-3.546-1.414 1.414 3.546 3.546a3.947 3.947 0 0 0 -.567 2.019 4 4 0 1 0 4-4zm0 6a2 2 0 1 1 2-2 2 2 0 0 1 -2 2z"/><path d="m32 16a12.013 12.013 0 0 0 -12 12c0 10.355 10.9 19.394 11.367 19.774a1 1 0 0 0 1.266 0c.467-.38 11.367-9.419 11.367-19.774a12.013 12.013 0 0 0 -12-12zm0 29.673c-2.292-2.065-10-9.614-10-17.673a10 10 0 0 1 20 0c0 8.046-7.71 15.606-10 17.673z"/><path d="m32 20a8 8 0 1 0 8 8 8.009 8.009 0 0 0 -8-8zm0 14a6 6 0 1 1 6-6 6.006 6.006 0 0 1 -6 6z"/></g></g></svg>