<svg height="480pt" viewBox="0 -2 480 479" width="480pt" xmlns="http://www.w3.org/2000/svg"><path d="m240 8.5c-88.367188 0-160 71.632812-160 160 0 96 123.617188 253.664062 153.535156 295.128906 1.496094 2.082032 3.902344 3.320313 6.464844 3.320313s4.96875-1.238281 6.464844-3.320313c29.917968-41.464844 153.535156-199.128906 153.535156-295.128906 0-88.367188-71.632812-160-160-160zm79.679688 218.800781c-19.742188 23.585938-48.921876 37.214844-79.679688 37.214844s-59.9375-13.628906-79.679688-37.214844c-35.402343-42.203125-31.753906-104.6875 8.316407-142.488281 40.066406-37.796875 102.660156-37.796875 142.726562 0 40.070313 37.800781 43.71875 100.285156 8.316407 142.488281zm0 0" fill="#bddbff"/><path d="m216 184.5h-8c-24.476562.019531-45.019531 18.453125-47.679688 42.785156 4.082032 4.800782 8.59375 9.222656 13.472657 13.214844h66.207031v-24zm0 0" fill="#bddbff"/><path d="m305.921875 198.578125c-8.964844-9.042969-21.1875-14.117187-33.921875-14.078125h-8.054688l-23.945312 32v24h66.207031c4.878907-3.992188 9.390625-8.414062 13.472657-13.214844-1.167969-10.859375-6.027344-20.992187-13.757813-28.707031zm0 0" fill="#bddbff"/><path d="m248 112.5c4.683594 9.132812 13.765625 15.1875 24 16v-8c0-17.671875-14.328125-32-32-32s-32 14.328125-32 32v16s32 0 40-24zm0 0" fill="#bddbff"/><g fill="#3d9ae2"><path d="m240 .5c-92.738281.105469-167.894531 75.261719-168 168 0 89.863281 101.414062 227.144531 144.726562 285.761719 4.105469 5.550781 7.601563 10.285156 10.320313 14.054687 3 4.167969 7.820313 6.640625 12.953125 6.640625s9.953125-2.472656 12.953125-6.640625c2.71875-3.769531 6.214844-8.503906 10.320313-14.054687 43.3125-58.617188 144.726562-195.898438 144.726562-285.761719-.105469-92.738281-75.261719-167.894531-168-168zm10.398438 444.246094c-4.152344 5.601562-7.6875 10.402344-10.398438 14.210937-2.742188-3.808593-6.28125-8.59375-10.398438-14.210937-38.738281-52.414063-141.601562-191.644532-141.601562-276.246094 0-83.949219 68.050781-152 152-152s152 68.050781 152 152c0 84.601562-102.863281 223.832031-141.601562 276.246094zm0 0"/><path d="m240 48.5c-61.855469 0-112 50.144531-112 112s50.144531 112 112 112 112-50.144531 112-112c-.066406-61.828125-50.171875-111.933594-112-112zm0 16c34.421875-.070312 66.230469 18.332031 83.335938 48.203125 17.101562 29.871094 16.867187 66.621094-.617188 96.269531-2.738281-5.941406-6.5-11.359375-11.109375-16-10.453125-10.59375-24.730469-16.527344-39.609375-16.472656h-8v-1.367188c9.582031-3.402343 15.988281-12.464843 16-22.632812v-32c0-22.089844-17.910156-40-40-40s-40 17.910156-40 40v32c.011719 10.167969 6.417969 19.230469 16 22.632812v1.367188h-8c-21.800781-.035156-41.621094 12.628906-50.753906 32.425781-17.460938-29.652343-17.679688-66.390625-.570313-96.25 17.109375-29.855469 48.914063-48.246093 83.324219-48.175781zm0 138.65625-10.054688-13.410156c1.308594-1.433594 2.039063-3.304688 2.054688-5.246094v-16c0-4.417969-3.582031-8-8-8s-8-3.582031-8-8v-8.695312c12.746094-1.378907 24.542969-7.394532 33.144531-16.90625 4.164063 4.03125 9.269531 6.949218 14.855469 8.488281v17.113281c0 4.417969-3.582031 8-8 8s-8 3.582031-8 8v16c.019531 1.929688.75 3.789062 2.046875 5.214844zm-24-75.59375v-7.0625c-.015625-12.746094 9.957031-23.269531 22.683594-23.933594 12.726562-.667968 23.746094 8.753906 25.058594 21.429688-3.515626-2.316406-6.441407-5.421875-8.542969-9.070313-1.445313-2.902343-4.496094-4.640625-7.726563-4.414062-3.230468.230469-6.003906 2.386719-7.023437 5.460937-4.390625 9.835938-13.730469 16.550782-24.449219 17.589844zm-47.054688 97.265625c3.550782-18.765625 19.957032-32.34375 39.054688-32.328125h4l20 26.664062v13.335938h-32v-16h-16v16h-7.289062c-2.730469-2.410156-5.324219-4.972656-7.765626-7.671875zm32.796876 23.671875h76.515624c-24.390624 10.667969-52.125 10.667969-76.515624 0zm101.546874-16h-7.289062v-16h-16v16h-32v-13.34375l19.945312-26.65625h4.054688c10.617188-.050781 20.804688 4.179688 28.265625 11.734375 5.5625 5.632813 9.324219 12.792969 10.804687 20.570313-2.445312 2.710937-5.042968 5.28125-7.78125 7.695312zm0 0"/><path d="m0 432.5h32v16h-32zm0 0"/><path d="m48 432.5h32v16h-32zm0 0"/><path d="m96 432.5h32v16h-32zm0 0"/><path d="m144 432.5h32v16h-32zm0 0"/><path d="m304 432.5h32v16h-32zm0 0"/><path d="m352 432.5h32v16h-32zm0 0"/><path d="m400 432.5h32v16h-32zm0 0"/><path d="m448 432.5h32v16h-32zm0 0"/></g></svg>