<svg viewBox="0 0 300 300" xmlns="http://www.w3.org/2000/svg"><path d="m220.73 113.88s-34 44.37-48.27 51.67a41.65 41.65 0 0 1 -17 4.5c-1.53.06-5.53-.29-5.75-.3-17-2.3-36.9-7.88-61.85-19l3.72-12.64a249.77 249.77 0 0 0 33.36 4.92c6.77.52 22.39 1.3 28.17 2.33 1.43-.71 2.84-1.47 4.21-2.29 25.35-15 42.08-45.42 42.08-45.42 7.96 3.35 17.17 9.46 21.33 16.23z" fill="#1099ab"/><path d="m92.15 137.13s-3.47-9.59-8.2-12.33-18.17-12.38-21-9.49-2.32 16.69 9.74 28.31c7.68 7.38 15.42 7.07 15.42 7.07z" fill="#f7ccab"/><path d="m62.05 124.12 19.85 20.28a2.68 2.68 0 0 0 3 .5l12.17-6.43a1.44 1.44 0 0 0 .73-.82v-.11l.6-2.22-3.19-1.32-31.21-13-1.69-.7-.64 2.35v.16a.06.06 0 0 0 0 .06 1.41 1.41 0 0 0 .38 1.25z" fill="#081c2d"/><path d="m85.52 142.64 12.17-6.43a1.35 1.35 0 0 0 .31-2.21l-19.85-20.33a2.68 2.68 0 0 0 -3-.49l-12.15 6.43a1.35 1.35 0 0 0 -.31 2.26l19.85 20.28a2.69 2.69 0 0 0 2.98.49z" fill="#143248"/><path d="m84 139 9.43-5a1.34 1.34 0 0 0 .32-2.25l-15.4-15.75a2.7 2.7 0 0 0 -3-.5l-9.43 5a1.34 1.34 0 0 0 -.31 2.26l15.39 15.75a2.7 2.7 0 0 0 3 .49z" fill="#fff" opacity=".2"/><path d="m84.29 120s-2.82.48-3.11 3.14 2.34 1.6 4 1a3.84 3.84 0 0 1 3.45.31c.77.91.64-5.29-4.34-4.45z" fill="#f7ccab"/><path d="m71.65 134.38a122.91 122.91 0 0 0 -7.83-12.33c-2.27-2.9-3.43 1.31-1.88 4.25s4.61 8.91 9.71 8.08z" fill="#f7ccab"/><path d="m218.44 244.71s-46-93.93-75.44-83.38c-19.66 7-74.24 110.85-74.24 110.85 6.37 4.75 15.09 4.2 22.43.59 0 0 41.12-31.56 53.6-68 0 0 20.67 61.81 70.33 61.81 3.23 0 11.41-12.41 3.32-21.87z" fill="#081c2d"/><path d="m90 273.38a11.17 11.17 0 0 1 1.24 5.75c0 3.87-.32 17.25-.32 17.25l-59.71.11s-.24-10.17 7.32-15.61 19.18-.15 30.28-8.7c-.05 0 2.93 2.97 21.19 1.2z" fill="#e9e8e8"/><path d="m278.3 269.67a719.94 719.94 0 0 0 9-130.89l-.78-35.36-24.9-9.22-1.34-.49-5.59-2.07-4.44-1.64-26.25 4-4.28.65-1.51.22-18.82 2.84c-.18 65.1 2.11 80.23-8.89 133.19 7.65 35.47 48.14 70.01 87.8 38.77z" fill="#1fbdc4"/><path d="m180.75 28.14s-5.31 6.73.34 18.79 10.53 12 10.53 12-.49-30.41-10.87-30.79z" fill="#143248"/><path d="m221.94 81 5.46 15.75 2.5 7.21c10.42 3.91 21.42-10.24 21.42-10.24l-6.06-25.52c-4.74-1.52-13.45 5.61-19 9.54-2.57 1.89-4.32 3.26-4.32 3.26z" fill="#f7ccab"/><path d="m221.94 81 5.46 15.75c9.19-5.9 13.14-23.75 13.14-23.75l-14.25 4.82c-2.6 1.81-4.35 3.18-4.35 3.18z" fill="#f8a588"/><path d="m183.23 49.45c.15.55.31 1.11.47 1.67 2.92 10.08 7.72 21.93 11.89 31.49 4.44 10.14 15.66 14.28 24.81 9.14 9-5.07 19.6-11.59 26.08-17.5.26-.79.49-1.58.7-2.38a63.61 63.61 0 0 0 1.57-21.46c-.23-2.89-.6-5.78-1.07-8.64a5.41 5.41 0 0 1 -.07-.68c-3.65-14-7.94-27.54-7.94-27.54-19-14.72-56.16 4.83-58.5 20.62-.54 3.62.36 9.05 2.06 15.28z" fill="#f7ccab"/><path d="m247.18 71.87a63.61 63.61 0 0 0 1.57-21.46 19.32 19.32 0 0 0 -6.9 4.57s1.91 10.34 5.33 16.89z" fill="#143248"/><path d="m246.05 35.27s-7.4-2.51-10.6 7.06l-4.09 1.27s-2.15-9.27-5.43-13.64-11.08-1.82-13.78-7.34c0 0-16.36 12.31-31.08 12.46-35.74.35 20.43-39.27 42.93-34.72 17.61 3.58 21 18.34 22.05 34.91z" fill="#143248"/><path d="m236 41.09s4.15-9.87 10.4-6.66c6.89 3.54 6.82 22.33-4.74 25.25z" fill="#f7ccab"/><path d="m279.9 259.78s-88.57-42-121.57-44.26-122.45 51.19-122.45 51.19c-3.24 8.1.11 15.59 7.29 22.74 0 0 66.05-17.53 110.47-41.83 0 0 51.92 46.88 87.09 52.07 21.27 3.14 40.66-17.82 39.17-39.91z" fill="#143248"/><path d="m43.82 289.55a10.35 10.35 0 0 1 -4.73 3.58c-3.52 1.51-15.79 6.35-15.79 6.35l-23.3-64.77s9.14-4.2 17 1.88 7.59 20.77 19.67 29.49c.01 0-1.53 4.39 7.15 23.47z" fill="#fff"/><path d="m286.54 103.42s16.15 21.78 13.07 41.74c-1.37 8.86-7.79 23.34-14.5 36.7-11.65 23.14-31.11 40.55-54.27 48.14-17.34 5.65-37.72 9.22-54 3.25 0 0-4.51-7.89 1.8-14.78 0 0 42.15 1.21 65.53-22.08 27.58-27.54 42.37-92.97 42.37-92.97z" fill="#1099ab"/><path d="m152.45 234.54c9.13 1.17 24.39-1.34 24.39-1.34l1.81-14.78s-1.92-.51-3.85-.83c0 0-4.46-3.55-8.13-3.33a8.35 8.35 0 0 0 -4.89 2.42 13.49 13.49 0 0 0 -7.47 2.79c-6.51 5.14-11 13.9-1.86 15.07z" fill="#fab285"/></svg>