<svg viewBox="0 0 3710 3710" xmlns="http://www.w3.org/2000/svg" xmlns:xlink="http://www.w3.org/1999/xlink"><linearGradient id="a" gradientUnits="userSpaceOnUse" x1="1852" x2="2439.59" y1="611.39" y2="2481"><stop offset="0" stop-color="#e38ddd"/><stop offset="1" stop-color="#9571f6"/></linearGradient><linearGradient id="b" gradientUnits="userSpaceOnUse" x1="3161.78" x2="3053.63" y1="5287.03" y2="4809.9"><stop offset="0" stop-color="#aa80f9"/><stop offset="1" stop-color="#6165d7"/></linearGradient><clipPath id="c"><path d="m1714.58 2946c-54.35-165.63-109.66-418.47-44.9-699.18 74.36-322.34 239.08-386.83 387-731.38 211.12-491.84-27.81-848.11 190.74-998.44 106.59-73.31 274.18-73.36 377.51.23 294.81 210 214 1124.59-253.75 1481.5-211.57 161.38-396.18 142.27-554.92 351.11-140.26 184.57-129.26 428.06-101.68 596.16z"/></clipPath><clipPath id="d"><path d="m1546.11 2686.3c-18.4-111.25-29-285 61.59-440.39 158-271.09 446-181.17 721.6-471.6 222.32-234.24 152.25-416.3 398.6-572 41.23-26.06 259.1-169.45 421.12-83.08 91.3 48.66 124.38 148.58 130.59 167.33 93.85 283.48-194.89 727.31-571.24 930.3-216.23 116.63-286 78.51-666.51 214.53-223.59 79.96-391.47 182.88-495.75 254.91z"/></clipPath><linearGradient id="e" gradientTransform="matrix(.94568891 .32507304 -.32507304 .94568891 3271.1 1020.59)" gradientUnits="userSpaceOnUse" x1="40.51" x2="-1587.06" y1="1202.3" y2="2539.24"><stop offset="0" stop-color="#ff9085"/><stop offset="1" stop-color="#fb6fbb"/></linearGradient><linearGradient id="f" gradientUnits="userSpaceOnUse" x1="1529.1" x2="1349.41" y1="3021.04" y2="3096.51"><stop offset="0" stop-color="#40447e"/><stop offset="1" stop-color="#3c3b6b"/></linearGradient><linearGradient id="g" x1="1237.85" x2="1054.51" xlink:href="#f" y1="2271.86" y2="2348.86"/><linearGradient id="h" x1="447.65" x2="2146.65" xlink:href="#f" y1="2313.54" y2="2313.54"/><linearGradient id="i" gradientUnits="userSpaceOnUse" x1="1520.95" x2="218.83" y1="1901.74" y2="4030.42"><stop offset="0" stop-color="#ffc444"/><stop offset="1" stop-color="#f36f56"/></linearGradient><linearGradient id="j" x1="447.65" x2="3007.12" xlink:href="#f" y1="2941.82" y2="2941.82"/><linearGradient id="k" x1="698.65" x2="2573.96" xlink:href="#f" y1="2922.12" y2="2922.12"/><linearGradient id="l" gradientUnits="userSpaceOnUse" x1="1506.91" x2="1170.45" y1="941.54" y2="3556.16"><stop offset="0" stop-color="#fff"/><stop offset="1" stop-color="#ebeff2"/></linearGradient><linearGradient id="m" x1="1158.87" x2="1378.78" xlink:href="#e" y1="663.92" y2="1924.39"/><linearGradient id="n" gradientUnits="userSpaceOnUse" x1="2403.51" x2="2431.85" y1="3037.42" y2="3547.62"><stop offset="0" stop-color="#444b8c"/><stop offset="1" stop-color="#26264f"/></linearGradient><linearGradient id="o" x1="2457.04" x2="2441.99" xlink:href="#i" y1="3288.86" y2="2600.02"/><linearGradient id="p" x1="2916.52" x2="2944.87" xlink:href="#n" y1="3008.93" y2="3519.11"/><linearGradient id="q" x1="2908.71" x2="2893.65" xlink:href="#i" y1="3278.98" y2="2590.14"/><linearGradient id="r" gradientUnits="userSpaceOnUse" x1="3024.64" x2="2130.81" y1="2243.99" y2="2811.83"><stop offset="0" stop-color="#311944"/><stop offset="1" stop-color="#a03976"/></linearGradient><linearGradient id="s" x1="2450.85" x2="3120.88" xlink:href="#r" y1="2888.79" y2="2263.93"/><linearGradient id="t" x1="1887.45" x2="2627.33" xlink:href="#i" y1="1518.23" y2="1451.54"/><linearGradient id="u" gradientUnits="userSpaceOnUse" x1="3290.73" x2="2634.25" y1="2031.71" y2="1464.32"><stop offset="0" stop-color="#311944"/><stop offset="1" stop-color="#6b3976"/></linearGradient><linearGradient id="v" x1="2274.83" x2="2560.91" xlink:href="#u" y1="2868.33" y2="2484.38"/><linearGradient id="w" gradientTransform="matrix(.99053344 -.13727167 .13727167 .99053344 -620.24 96.61)" x1="2205.47" x2="2742.9" xlink:href="#i" y1="1831.95" y2="1831.95"/><linearGradient id="x" x1="1919.31" x2="2659.19" xlink:href="#i" y1="1871.62" y2="1804.92"/><linearGradient id="y" x1="2706.88" x2="2869" xlink:href="#i" y1="1187.17" y2="2178.57"/><linearGradient id="z" x1="2432.65" x2="2607.68" xlink:href="#i" y1="1210.59" y2="956.51"/><linearGradient id="A" x1="2416.78" x2="2693.45" xlink:href="#i" y1="1081.71" y2="915.15"/><linearGradient id="B" gradientTransform="matrix(.42 -.91 .91 .42 -3207.27 2981.06)" gradientUnits="userSpaceOnUse" x1="3333.36" x2="3619.11" y1="4440.76" y2="4621.12"><stop offset="0" stop-color="#ab316d"/><stop offset="1" stop-color="#792d3d"/></linearGradient><linearGradient id="C" x1="3555" x2="3358.41" xlink:href="#B" y1="4459.34" y2="4487.71"/><linearGradient id="D" gradientTransform="matrix(.42 -.91 .91 .42 -3207.27 2981.06)" x1="3428.84" x2="3331.84" xlink:href="#i" y1="3282.24" y2="4249.85"/><linearGradient id="E" x1="3396.71" x2="3388.6" xlink:href="#B" y1="3197.67" y2="3546.25"/><linearGradient id="F" x1="1824.63" x2="1911.83" xlink:href="#i" y1="1617.55" y2="2150.86"/><linearGradient id="G" x1="2715.6" x2="2701.01" xlink:href="#i" y1="1851.4" y2="1257.42"/><linearGradient id="H" x1="2632.92" x2="2784.55" xlink:href="#i" y1="1896.38" y2="2007.36"/><path d="m1714.58 2946c-54.35-165.63-109.66-418.47-44.9-699.18 74.36-322.34 239.08-386.83 387-731.38 211.12-491.84-27.81-848.11 190.74-998.44 106.59-73.31 274.18-73.36 377.51.23 294.81 210 214 1124.59-253.75 1481.5-211.57 161.38-396.18 142.27-554.92 351.11-140.26 184.57-129.26 428.06-101.68 596.16z" fill="url(#a)"/><g clip-path="url(#c)" fill="#fff"><path d="m1680.49 2529-3.41-.87a1260.65 1260.65 0 0 1 71.07-204.13c67.56-150.79 142-233.62 236.27-338.47 61.28-68.17 130.73-145.44 210.95-256.16 150.06-207.1 196.61-279.82 238.23-396.81 82.41-231.64 69.76-439.31 54.88-542.48-21.11-146.36-70.22-285.64-146-414l3-1.8c76.06 128.72 125.32 268.46 146.52 415.28 14.93 103.49 27.62 311.81-55 544.16-41.77 117.41-88.4 190.27-238.69 397.7-80.33 110.87-149.85 188.21-211.19 256.44-94 104.63-168.34 187.28-235.67 337.56a1257.83 1257.83 0 0 0 -70.96 203.58z"/><path d="m2479 1168.29-.05-2.9c-3-170.77-112.16-281.29-203.18-343.94-98.75-68-198-95.8-199-96.08l.94-3.4c1 .28 100.83 28.28 200.07 96.58 91.17 62.75 200.4 173.23 204.64 343.82 14.88-8.64 92.34-56 162-143.67 71-89.45 148.2-240.44 112.5-451.71l3.47-.59c35.87 212.6-41.83 364.6-113.39 454.6-77.47 97.52-164.62 145.43-165.49 145.9z"/><path d="m2452 1716.39c-17.44 0-33.9-.86-49.13-2.25-95.76-8.75-164.35-39.81-165-40.12l-1.35-.62.38-1.43c44-167.69 5.77-291.23-34-365.34-43.1-80.25-97.2-121.36-97.75-121.77l2.12-2.82c.55.41 55.27 42 98.74 122.93 40 74.45 78.38 198.38 34.71 366.44 10 4.35 74.83 31.22 162.65 39.23s217.13-1.74 335.11-93.57l2.16 2.78c-98.48 76.63-204.78 96.54-288.64 96.54z"/><path d="m2254.78 2036.5c-51.06 0-93-7.1-125.48-15.94-80.16-21.82-121.27-58.72-121.67-59.09l-.94-.85.51-1.16c74.33-170.26-29.34-448.75-30.4-451.55l3.3-1.24c1.06 2.8 104.74 281.35 30.85 453 6.52 5.53 46.73 37.76 119.5 57.53 73.33 19.92 195.66 30.91 362-29.88l1.21 3.31c-93.79 34.3-173.74 45.87-238.88 45.87z"/></g><path d="m1546.11 2686.3c-18.4-111.25-29-285 61.59-440.39 158-271.09 446-181.17 721.6-471.6 222.32-234.24 152.25-416.3 398.6-572 41.23-26.06 259.1-169.45 421.12-83.08 91.3 48.66 124.38 148.58 130.59 167.33 93.85 283.48-194.89 727.31-571.24 930.3-216.23 116.63-286 78.51-666.51 214.53-223.59 79.96-391.47 182.88-495.75 254.91z" fill="url(#b)"/><g clip-path="url(#d)" fill="#fff"><path d="m1513.33 2820.06-3.45-.72c55.35-265.84 160.31-444.45 312-530.85 74.23-42.28 133.34-49 195.93-56.06 67.36-7.62 137-15.5 229-71.11 89.38-54.05 121.42-106.08 162-172 36.46-59.22 81.84-132.91 183.68-231.07 89.26-86 154.27-126.3 211.62-161.82 62.16-38.51 111.26-68.92 168.12-143.44 92.86-121.68 141.39-277.7 144.25-463.72l3.52.06c-2.86 186.78-51.64 343.5-145 465.8-57.25 75-106.6 105.6-169.06 144.29-57.21 35.44-122 75.6-211 161.37-101.53 97.85-146.77 171.33-183.13 230.37-40.81 66.29-73 118.65-163.15 173.14-92.62 56-162.67 63.93-230.42 71.6-62.21 7-121 13.69-194.57 55.62-150.82 85.91-255.21 263.73-310.34 528.54z"/><path d="m2803.16 1615.63c-7.67 0-15.38-.11-23.21-.35l-2.35-.07.74-2.24c1.22-3.72 120.64-373-15.44-525.67l2.64-2.34c39.68 44.53 82.34 136.76 60.2 323.28-12.07 101.77-38.63 188.68-43.34 203.58 202.58 5.59 353.19-71.1 444-136.53 98.75-71.16 149.93-144.67 150.43-145.4l2.9 2c-.5.74-52 74.75-151.27 146.27-88.11 63.47-232.26 137.47-425.3 137.47z"/><path d="m2818 1930.12c-31.17 0-60.16-1.62-86.46-4.15-141.4-13.62-237.3-55.87-238.25-56.29l-1.39-.62.4-1.46c53.18-192.52 6.27-466.42 5.79-469.16l3.47-.61c.49 2.74 47.28 276-5.45 469.23 12.25 5.2 104.25 42.76 235.9 55.41 129.94 12.49 326.21 2.59 523.28-115.55l1.81 3c-158.03 94.77-315.58 120.2-439.1 120.2z"/><path d="m2650.41 2379.13c-184.8 0-327.56-39.05-416.36-72.75-101.15-38.38-156.05-78.38-156.61-78.77l-1.5-1.1 1.18-1.44c146.19-178.46 89.25-473.33 88.66-476.29l3.46-.69c.15.74 14.85 75.45 11.18 171.34-6.08 159-57.11 254.21-99.38 306.41 20 13.91 235.33 157.23 597.75 149.46l.08 3.52q-14.38.32-28.46.31z"/></g><path d="m1542.23 2591.8a1201.06 1201.06 0 0 1 299.37-157.12c242.28-85.9 353.32-35.23 455.89-137.66 106.17-106 37.4-210.45 164.51-328.86 10.69-10 147.18-133.8 270.65-87.68 86.38 32.26 120 130.38 135.79 176.42 61.25 178.68 25.64 450.94-165 585.24-180.73 127.32-409.55 66.64-482.19 46.86-127.45-34.7-157.65-84.38-287.21-115.79-157.55-38.21-299.17-9.9-391.81 18.59z" fill="url(#e)"/><path d="m3007.12 2924-2559.47-21v62c0 16.82 11.16 31.12 26.28 33.67l723.74 122a105.59 105.59 0 0 0 26 1.14l1755.63-139.12c15.68-1.24 27.82-15.59 27.82-32.87z" fill="url(#f)"/><path d="m2078.3 2823.5-1604.18 113.36c-28.71 2-52.05-19.52-52.05-48.15v-1146.8a52 52 0 0 1 52.05-51.82h1604.18c23.65 0 42.77 21 42.77 46.85v1036.68c0 25.88-19.07 48.21-42.77 49.88z" fill="url(#g)"/><path d="m2103.88 2823.5-1604.18 113.36c-28.71 2-52.05-19.52-52.05-48.15v-1146.8a52 52 0 0 1 52.05-51.82h1604.18c23.65 0 42.77 21 42.77 46.85v1036.68c0 25.88-19.12 48.21-42.77 49.88z" fill="url(#h)"/><path d="m2053.9 2750.41-1494.12 98.47c-23.36 1.54-42.35-16.15-42.35-39.52v-1004a42.57 42.57 0 0 1 42.35-42.49l1494.12-6.18c19.51-.08 35.29 17.11 35.29 38.39v914.49c0 21.26-15.78 39.55-35.29 40.84z" fill="url(#i)"/><path d="m1358.44 1721.45c0 10.66-8.25 19.32-18.45 19.35s-18.49-8.6-18.49-19.28 8.28-19.34 18.49-19.35 18.45 8.63 18.45 19.28z" fill="#fff"/><path d="m1717.37 2509c-123.66-66.54-220.9 17.77-314.75-65.41-56.89-50.44-29-88-99-163.41-77.54-83.48-128-55.42-206-130.55-98.53-95-49.25-168.9-134.12-237.11-103-82.74-214-6.16-312-85.51-42.27-34.22-65.47-84-77.58-136.89h-95.82a30.45 30.45 0 0 0 -30.45 30.42v1188.72a28 28 0 0 0 30.45 28.26l1634.9-116.05c8-.57 15.14-5.25 19.71-12-119.68-4.36-193.21-44.48-240.21-86-91.92-81.14-75.98-161.15-175.13-214.47z" fill="#fff" opacity=".48"/><path d="m2167.81 2818.36-1720.16 119.33 750 126.46a106.08 106.08 0 0 0 26 1.14l1783.47-141.29-811.94-104.78a138.37 138.37 0 0 0 -27.37-.86z" fill="url(#j)"/><path d="m698.65 2940.69 1432.09-100.83 443.22 56.74-1419.76 107.78z" fill="url(#k)" opacity=".3"/><path d="m2053.9 2663.48v-1908l-1286.6-45.05v2046.32a84.22 84.22 0 0 1 -70.63 83.11l1270.49-83.73a92.85 92.85 0 0 0 86.74-92.65z" fill="url(#l)"/><path d="m1202.68 969.42-81.63 300.58-22.09-.37-144-368.7q-9.88-26.11-20.12-31.19t-56-6.73v-5.67l224 8.1v5.56q-39.7-1.43-55.07 2.09t-15.37 15.42q0 6.27 3.93 15.17l102.19 264.58 59-214.5-13.71-44.84q-7.82-25.29-18.9-30.69t-56.85-7.05v-5.6l220.23 8v5.54q-38.7-1.38-53.68 2.1t-15 16.51a39.18 39.18 0 0 0 2.56 13.72l82.25 261.93 69.7-189.72q10.62-29.77 10.63-48.84 0-52.23-75.89-55v-5.54l162.47 5.88v5.49q-44.43-1.59-65.81 42.43-3.15 6.64-23.29 59.42l-103.88 285.76-21-.35z" fill="url(#m)"/><g fill="#a2a7ae"><path d="m1972.3 1747.58-1093.45 7v-407.28l1093.45 14.12z" opacity=".39"/><path d="m1972.3 2175.8-1093.45 30.41v-407.28l1093.45-9.29z" opacity=".39"/><path d="m1972.3 2609.59-1093.45 54.13v-407.28l1093.45-33.01z" opacity=".39"/><path d="m1571.16 1277.5 401.14 6.73v-393.25l-401.14-14.62z" opacity=".39"/></g><path d="m2474.51 3218.84s3.55 28.21 1.17 37.65-84.38 16.28-112.22 13 16.58-31.72 34.32-37 76.73-13.65 76.73-13.65z" fill="url(#n)"/><path d="m2433.23 3171.79 8.65 56.59s22 9.9 32.63.11l1.17-59.22z" fill="url(#o)"/><path d="m2895.5 3169.27s-17.41 12.91-12.77 28.37 45.24 77.42 74.17 95 19.87-19 11.45-41.86-29.94-73.09-38.34-81.51-34.51 0-34.51 0z" fill="url(#p)"/><path d="m2864.2 3107.1c8.41 23.45 16.5 42.72 22.83 56.94 14 31.45 21.65 43.25 30.31 53.48 7.56 8.92 25.45 27.93 30.26 24.77s-8.21-26.33-33.43-94.05c-3.67-9.82-15.24-41.14-15.24-41.14z" fill="url(#q)"/><path d="m2261.51 2127.49a1464.81 1464.81 0 0 0 -3.15 261.39c11.22 144.62 40.14 236.14 76.4 390.34 22.17 94.23 52 232.93 79.06 406.4 6.27 3.59 24.72 13 48.47 9.5a73.58 73.58 0 0 0 29.12-11.06c70.9-216.67 50-350.94 15.74-434.6-14.58-35.66-32.27-63.79-41.72-118.6-12.51-72.52 3-113.06 25-281.05 15.72-119.73 13-138.24 2.54-156.19-41.8-71.79-169.68-70.39-231.46-66.13z" fill="url(#r)"/><path d="m2505.58 2152.68c43.43 224.33 86.07 342.15 118.33 408.79a1120.53 1120.53 0 0 1 59.6 145.48c22.22 67.28 31.47 116.78 36.22 138.57 15 68.76 52 169.16 151.58 300.85 1.24.73 18.22 10.33 34.45 1.77a33.22 33.22 0 0 0 13.94-14.46c-13-125.91-28-231.71-40.93-313.36-2.73-17.13-14.72-92.05-33.52-191-7.35-38.74-18.13-95.5-31.05-153.8-16.07-72.6-40.73-171.38-78.73-289.73z" fill="url(#s)"/><path d="m1815.24 1604.26q14.7-17.25 29.42-34.48c4.67 3.57 72.46 53.56 153.48 24.32 55.79-20.13 82.39-71.92 99.45-105 51.23-99.33 3.88-160.44 64-231.45 16.7-19.71 51.24-45.58 76.57-42.66 60.36 6.94 118.2 177.53 80.92 323.2-7.53 29.4-49 191.28-188.86 227.59-112.92 29.33-245.88-34.68-314.98-161.52z" fill="url(#t)"/><path d="m2468.57 1265.38c-24.63-22.78-71.76-49-95.4-110.05-7.12-18.37-32.32-83.45 4.86-133.24 22.07-29.55 63.07-49.62 99.2-42.51 30.88 6.07 35.71 27.58 88.18 70.86 20.42 16.85 53.25 43.93 89.79 59 62.6 25.8 100.21 1.52 163.05 4.29 77.21 3.41 166.89 46.49 210.1 109.15 76.7 111.21-34.4 224 49.6 354.29 27.53 42.68 41.1 33.11 106.29 115.74s97.92 124.09 92.12 174.78c-8.06 70.35-83.84 137.55-155.2 142.12-69.7 4.47-114-50.37-149.49-26.38-25.26 17.06-10.82 50.27-37.65 90.17-34.57 51.45-102.54 61.7-113.52 63.35-101.88 15.37-239.26-104.1-297.6-245.64-105.21-255.26 79.6-502.14-54.33-625.93z" fill="url(#u)"/><path d="m2507.15 2749.46c-14.58-35.66-32.27-63.79-41.72-118.6-12.51-72.52 3-113.06 25-281.05 15.72-119.73 13-138.24 2.54-156.19-22.72-39-70.87-56.32-120-63.4.66 2.52 1.32 5.05 1.85 7.49 25.79 117.74-72.61 189.58-28.23 319 21.88 63.81 56.8 78.43 64.93 152.45 7.62 69.34-20 83.78-14.11 146.81 8.82 94.2 75.75 117 93.16 189.15 11.32 46.88 1.79 115.42-80.86 214.64 1.38 8.55 2.75 17.13 4.11 25.85 6.27 3.59 24.72 13 48.47 9.5a73.58 73.58 0 0 0 29.12-11.06c70.9-216.66 49.96-350.93 15.74-434.59z" fill="url(#v)" opacity=".3"/><path d="m2248.41 1384.59c-93.59 97.58-59.82 255.16-123.3 272.18-19.39 5.21-20.4-10.07-69.59-18.85-72-12.83-101.15 14.26-151.94 4-21-4.27-49.2-15.69-79.82-47.62l-8.52 10c69.1 126.84 202.06 190.85 315 161.53 139.89-36.31 181.33-198.19 188.86-227.59 17.49-68.35 14-142.18-.78-202-23.27 10.37-48.03 25.53-69.91 48.35z" fill="url(#w)"/><path d="m2170.82 1248.42c6.5-10.1 27.17-38.08 114.89-58.71 31.46-7.4 82-18.56 146.57-16.2a503.19 503.19 0 0 1 83.27 10.32c80.09 17.36 239.75 78.34 245.31 161.4 4 59.33-75.12 63.14-119.87 168.15-32.6 76.51-32.39 172.09 3.18 246.44 28.54 59.66 79 104.46 117.39 138.48 57.52 51 87.31 58.87 106.59 104.59 21 49.79-.16 74.06 25.92 108.14 28 36.61 60.83 19.59 108.3 56.61 48.63 37.91 31.33 69.11 75.58 111 64.31 60.88 149.56 41.11 153.53 68.5 3.42 23.56-57.17 55.53-108.65 68.49-101.94 25.68-190.86-17.42-217.3-30.7-73.2-36.78-60.56-60.58-116.37-88.62-93.46-47-157.33 5.29-370.19 10.67-115.27 2.92-173.56 3.58-205.49-35.42-29.16-35.63-13.83-74.7 3.67-243.1 5.62-56.24 17.4-174 17.47-241.09 0-39.66-13.71-104.46-41.22-234-1.62-7.64-16.5-77.65-28.53-171.17-10.87-84.29-9.26-110.14 5.95-133.78z" fill="url(#x)"/><path d="m3078 2278.65c-44.25-41.9-26.95-73.1-75.58-111-47.47-37-80.29-20-108.3-56.61-26.08-34.08-4.92-58.35-25.92-108.14-19.28-45.72-49.07-53.55-106.59-104.59-38.35-34-88.85-78.82-117.39-138.48-49.54-103.55-14.9-214.1-3.18-246.44 37.69-103.94 113.78-158.72 141.36-176.68-2.66-2.86-131.48 111.83-134.83 108.4-181.67 25-161.91 12-175 43.08-30.28 71.86 17.66 98.26 18.9 305.49.58 99-10.1 138.16 22 179.51 36.76 47.28 79.12 32.65 132.27 94.47 40.84 47.5 34.3 77.62 72.43 97.63 41 21.51 67.13-3.56 113.38 6.3 77.26 16.48 93.78 105.57 144.86 154.31 38.63 36.86 110 62.63 250.89 35 3.26-4.75 4.83-9.38 4.2-13.71-3.99-27.43-89.24-7.66-153.5-68.54z" fill="url(#y)"/><path d="m2456.58 1071.53s9.16 73.25 36.19 90 70.75 38.69 75.56 44.65-167.48 24.46-252.86-18.62c28.14-5.87 35.79-8 35.79-8 7.64-2.16 21.88-6.17 36.16-14.31 9.72-5.53 25.39-16.35 39.76-36.77l-.31-40.56z" fill="url(#z)"/><path d="m2460.69 1097.47s-17.63 24.19-45.27 14.11c-24.75-9-10-72.95 9.65-80.24 6.55-2.43 18.58-1.36 26.62 3.66 5.65 3.52 20.75 22.28 12.09 43.29 6.26-1.81 11.76-.16 13.14 2.93 1.75 3.93-3.55 9.28-4.75 10.49a21 21 0 0 1 -11.48 5.76z" fill="url(#A)"/><path d="m3053.28 2096.12q-1.2 64.86-50.16 107.42l-1487.4-694.54 50.16-107.42z" fill="url(#B)"/><path d="m3028.72 2175.24a134.51 134.51 0 0 0 19-40.33l-1497.72-699.37-18.87 40.4z" fill="url(#C)"/><path d="m1565.88 1401.57c4.16 45.06-12.32 81-50.16 107.42l-313.25-207.44a3.92 3.92 0 0 1 3.26-7z" fill="url(#D)"/><path d="m1202.47 1301.55 121.77 80.64a103.62 103.62 0 0 0 21.55-46l-140.06-41.62a3.92 3.92 0 0 0 -3.26 6.98z" fill="url(#E)"/><path d="m1864.64 1667.06s-47-42.1-63.83-67.37-8.42 29.48 0 46.32 68.72 58.99 63.83 21.05z" fill="url(#F)"/><path d="m2640.85 1227c54.69 27.09 226.63 108.37 264.15 342.84s-162.57 356.39-162.57 356.39l-46.89-31.23s50-365.77-128.18-468.94 73.49-199.06 73.49-199.06z" fill="url(#G)"/><path d="m2706.62 1902.39c-11.08 2-17.33 11.37-42.34-1.14s-87.54 3.13-87.54 3.13 31.26 28.13 65.65 21.88 66.29 10.72 75.35 13.18 12.18-21.52 12.18-21.52z" fill="url(#H)"/></svg>