<svg id="Capa_1" enable-background="new 0 0 512 512" height="512" viewBox="0 0 512 512" width="512" xmlns="http://www.w3.org/2000/svg" xmlns:xlink="http://www.w3.org/1999/xlink"><linearGradient id="SVGID_1_" gradientUnits="userSpaceOnUse" x1="241" x2="241" y1="512" y2="47.574"><stop offset="0" stop-color="#5558ff"/><stop offset="1" stop-color="#00c0ff"/></linearGradient><linearGradient id="SVGID_2_" gradientUnits="userSpaceOnUse" x1="271" x2="271" y1="421" y2="0"><stop offset="0" stop-color="#addcff"/><stop offset=".5028" stop-color="#eaf6ff"/><stop offset="1" stop-color="#eaf6ff"/></linearGradient><g><g><g><path d="m210.94 288.28c1.372 6.994 7.542 12.09 14.694 12.09.439 0 .879-.015 1.318-.059 84.976-7.426 149.048-71.616 149.048-149.311 0-35.859-14.121-71.562-39.785-98.72-5.669-6.006-15.176-6.299-21.196-.601-6.021 5.684-6.299 15.176-.601 21.196 20.361 21.563 31.582 49.956 31.582 78.125 0 62.021-52.295 113.364-121.655 119.429-6.801.592-12.136 5.65-13.4 12.029-1.253-6.387-6.59-11.44-13.392-12.044-69.302-6.094-121.553-57.436-121.553-119.414 0-28.169 11.221-56.562 31.582-78.124 5.698-6.021 5.42-15.513-.601-21.196-6.035-5.698-15.527-5.435-21.196.601-25.664 27.157-39.785 62.86-39.785 98.719 0 77.637 64.028 141.826 148.916 149.297.454.044.894.059 1.333.059 7.152-.001 13.31-5.084 14.691-12.076zm180.06 12.72c-24.853 0-45 20.147-45 45 0 19.565 12.563 36.048 30 42.246v47.754c0 24.814-20.186 46-45 46h-60c-24.814 0-45-21.186-45-46v-60c0-8.291-6.709-15-15-15s-15 6.709-15 15v60c0 41.353 33.647 76 75 76h60c41.353 0 75-34.647 75-76v-47.754c17.437-6.198 30-22.681 30-42.246 0-24.853-20.147-45-45-45z" fill="url(#SVGID_1_)"/></g></g><g><g><path d="m211 241c-16.569 0-30 13.431-30 30v90c0 16.569 13.432 30 30 30 16.569 0 30-13.431 30-30v-90c0-16.569-13.432-30-30-30zm180 30c-41.353 0-75 33.647-75 75s33.647 75 75 75 75-33.647 75-75-33.647-75-75-75zm0 90c-8.284 0-15-6.716-15-15s6.716-15 15-15 15 6.716 15 15-6.716 15-15 15zm-270-361c-24.814 0-45 20.186-45 45s20.186 45 45 45 45-20.186 45-45-20.186-45-45-45zm225 45c0-24.814-20.186-45-45-45s-45 20.186-45 45 20.186 45 45 45 45-20.186 45-45z" fill="url(#SVGID_2_)"/></g></g></g></svg>