<svg id="Layer_1" enable-background="new 0 0 512 512" height="512" viewBox="0 0 512 512" width="512" xmlns="http://www.w3.org/2000/svg"><g><path d="m346.876 401.379h29.783c9.572 0 18.711-3.991 25.217-11.011l12.678-13.68-7.929 8.606 51.079-55.444c10.889-11.82 28.941-13.519 41.845-3.939 14.165 10.516 16.63 30.754 5.404 44.363l-69.683 84.476c-13.098 16.285-32.871 25.757-53.77 25.757h-282.854-75.113c-12.997-.001-23.533-10.536-23.533-23.533v-77.767c0-13.058 10.632-23.619 23.69-23.532l75.007.634 10.38-20.501c29.868-26.164 85.258-33.483 121.678-17.663.838.364 1.673.739 2.504 1.126l27.556 12.811c6.1 2.836 12.745 4.305 19.472 4.305h66.589c17.947 0 32.496 14.549 32.496 32.496.001 17.947-14.548 32.496-32.496 32.496h-88.84" fill="#ffcbbc"/><path d="m499.549 325.91c-12.904-9.58-30.956-7.881-41.845 3.939l-51.078 55.444 7.928-8.606-12.678 13.68c-6.506 7.021-15.645 11.011-25.217 11.011h-29.783c17.947 0-10.606-14.549-10.606-32.496h6.516c0-17.947-23.628-9.522-41.575-9.522l-31.647-7.495c-6.727 0-2.278-10.195-8.377-13.031l-4.643 15.284v126.389h124.956c20.899 0 40.672-9.472 53.77-25.757l69.683-84.476c11.226-13.61 8.761-33.847-5.404-44.364z" fill="#ffbca7"/><path d="m353.65 99.999h-53.357c-1.503 0-2.722-1.219-2.722-2.722v-53.356c0-6.863-5.564-12.427-12.427-12.427h-58.289c-6.863 0-12.427 5.564-12.427 12.427v53.357c0 1.503-1.219 2.722-2.722 2.722h-53.356c-6.863 0-12.427 5.564-12.427 12.427v58.289c0 6.863 5.564 12.427 12.427 12.427h53.357c1.503 0 2.722 1.219 2.722 2.722v53.357c0 6.863 5.564 12.427 12.427 12.427h58.289c6.863 0 12.427-5.564 12.427-12.427v-53.357c0-1.503 1.219-2.722 2.722-2.722h53.357c6.863 0 12.427-5.564 12.427-12.427v-58.289c0-6.864-5.564-12.428-12.428-12.428z" fill="#00ecce"/><path d="m346.576 335.89h-67.095c-6.778 0-13.474-1.48-19.62-4.338l-19.564-9.096c-10.101-5.662-21.873-9.94-34.315-12.138-14.358-2.654-42.161-2.366-56.17.859-18.188 3.804-33.489 11.691-43.233 21.982-.003.003-.007.006-.011.009h.002c-7.251 7.663-11.428 16.65-11.428 26.263 0 28.037 35.511 50.766 79.315 50.766 13.995 0 35.14-1.745 51.088-5.03 11.892-2.449 23.985-3.79 36.126-3.79h84.904c18.084 0 32.743-14.66 32.743-32.743.002-18.084-14.658-32.744-32.742-32.744z" fill="#ffddce"/><path d="m353.65 99.999h-53.357c-1.503 0-2.722-1.219-2.722-2.722v-53.356c0-6.864-5.564-12.427-12.427-12.427h-28.602v220.156h28.602c6.863 0 12.427-5.564 12.427-12.427v-53.357c0-1.503 1.219-2.722 2.722-2.722h53.357c6.863 0 12.427-5.564 12.427-12.427v-58.289c.001-6.865-5.563-12.429-12.427-12.429z" fill="#00d5dd"/><path d="m346.577 335.891h-67.095c-6.778 0-13.474-1.48-19.62-4.338l-3.318-1.543v71.453c1.709-.053 3.418-.086 5.129-.086h84.904c18.084 0 32.743-14.66 32.743-32.744s-14.66-32.742-32.743-32.742z" fill="#ffcbbc"/></g></svg>