<svg id="Capa_1" enable-background="new 0 0 512 512" height="512" viewBox="0 0 512 512" width="512" xmlns="http://www.w3.org/2000/svg"><g><path d="m101 62v405c0 24.813 20.187 45 45 45h280c24.813 0 45-20.187 45-45v-360c0-24.813-20.187-45-45-45z" fill="#fff16b"/><g><path d="m426 62h-140v450h140c24.813 0 45-20.187 45-45v-360c0-24.813-20.187-45-45-45z" fill="#ffc178"/></g><g><path d="m366 0h-210l-47 68-68 47v292c0 24.853 20.147 45 45 45h280c24.853 0 45-20.147 45-45v-362c0-24.853-20.147-45-45-45z" fill="#f9f9f9"/><g><path d="m366 0h-140v452h140c24.813 0 45-20.187 45-45v-362c0-24.813-20.187-45-45-45z" fill="#e2dff4"/></g><g><path d="m141 115h-100l115-115v100c0 8.284-6.716 15-15 15z" fill="#e2dff4"/></g><g><path d="m346 212h-100c-8.284 0-15-6.716-15-15v-20c0-35.841 29.159-65 65-65s65 29.159 65 65v20c0 8.284-6.716 15-15 15z" fill="#f1b7e7"/></g><g><path d="m296 112v100h50c8.284 0 15-6.716 15-15v-20c0-35.841-29.159-65-65-65z" fill="#e78ef4"/></g><g><path d="m296 137c-23.434 0-42.5-19.066-42.5-42.5s19.066-42.5 42.5-42.5 42.5 19.066 42.5 42.5-19.066 42.5-42.5 42.5z" fill="#ffddce"/></g><path d="m296 52v85c23.435 0 42.5-19.065 42.5-42.5s-19.065-42.5-42.5-42.5z" fill="#ffcbbc"/><g><path d="m186 212h-70c-8.284 0-15-6.716-15-15s6.716-15 15-15h70c8.284 0 15 6.716 15 15s-6.716 15-15 15z" fill="#0d8ebc"/></g><g><path d="m336 272h-220c-8.284 0-15-6.716-15-15s6.716-15 15-15h220c8.284 0 15 6.716 15 15s-6.716 15-15 15z" fill="#0d8ebc"/></g><g><path d="m336 242h-110v30h110c8.284 0 15-6.716 15-15s-6.716-15-15-15z" fill="#0a617d"/></g><g><path d="m336 332h-220c-8.284 0-15-6.716-15-15s6.716-15 15-15h220c8.284 0 15 6.716 15 15s-6.716 15-15 15z" fill="#0d8ebc"/></g><g><path d="m336 302h-110v30h110c8.284 0 15-6.716 15-15s-6.716-15-15-15z" fill="#0a617d"/></g><g><path d="m336 392h-220c-8.284 0-15-6.716-15-15s6.716-15 15-15h220c8.284 0 15 6.716 15 15s-6.716 15-15 15z" fill="#0d8ebc"/></g><g><path d="m336 362h-110v30h110c8.284 0 15-6.716 15-15s-6.716-15-15-15z" fill="#0a617d"/></g></g></g></svg>