<svg viewBox="0 0 300 301.96" xmlns="http://www.w3.org/2000/svg" xmlns:xlink="http://www.w3.org/1999/xlink"><linearGradient id="a" gradientUnits="userSpaceOnUse" x1="219.81" x2="177.45" y1="352.92" y2="119.59"><stop offset=".05" stop-color="#16becc"/><stop offset="1" stop-color="#94ce9a"/></linearGradient><path d="m12.36 86.18c0 1.91 47.71 148.09 47.71 148.09l227.59-8.93-40.31-139.16z" fill="#e7e9ed"/><path d="m67.52 176.75c.58 1.09 6.42 17.73 6.42 17.73l86.24-2.18-7.31-15.55z" fill="#231b52" opacity=".11"/><path d="m118.18 147.85c.44.34 5.53 16.43 5.53 16.43h22.49l-5.2-16.43z" fill="#231b52" opacity=".11"/><path d="m148 147.85c.44.34 5.53 16.43 5.53 16.43h22.47l-5.17-16.43z" fill="#231b52" opacity=".11"/><path d="m177.76 147.85c.44.34 5.53 16.43 5.53 16.43h22.49l-5.17-16.43z" fill="#231b52" opacity=".11"/><path d="m44.07 118a13.19 13.19 0 0 0 12.75 8.63l125.85-1.27c8.58-.08 14.8-7.65 12.67-15.4a13.1 13.1 0 0 0 -13-9.28l-125.79 1.32c-8.89 0-15.16 8.11-12.48 16z" fill="#fff"/><path d="m108.4 174.92-8.16-13.42-10.24-6.5a3.86 3.86 0 0 1 -1.83-3.85l1.21-7.9a8 8 0 0 1 1.62-3.7l2.17-2.23s-11.39-12.56-8.95-13.32 14.93 14.19 17.37 14.44 4.4-1.26 6.81-.25 4.87 7.09 4.87 7.09l1.35 14.44 4.34 8.61z" fill="#f9b6b6"/><path d="m226.38 114.87 1.62 34.47c.35 7.76-6.33 14.22-14.65 14.17-7.72 0-14.06-5.7-14.46-12.89l-1.1-19.71z" fill="#f9b6b6"/><path d="m268.25 232.24.15-46-4.28-26.18c-2.2-13.42-16.5-22-30.5-18.33l-26.74 7a64.64 64.64 0 0 0 -23.31 11.49l-41.17 32.78-25.4-35-15.6 10.17c0 2.9 18.66 63.84 36.54 61.67 12.74-1.55 40.29-15.84 53.14-21.27a196.51 196.51 0 0 1 8.23 19.34l-2.31 54.26c-.42 9.63 7.76 17.67 18.09 17.81 23.61.33 62.49-3.5 74.48-30.67z" fill="url(#a)"/><path d="m222 93 2.05 12.52s10.61-.93 9.86 8.46-8.75 7.08-8.75 7.08 3.81 22.82-22.58 21c-21.18-1.44-25.77-25.76-28.28-46.6-.94-7.77 5.41-14.63 13.78-14.9l17.14-.56c8.31-.26 15.52 5.31 16.78 13z" fill="#f9b6b6"/><path d="m193.18 75.49s21.49-11.1 34.29 2.13 13.26 43.53 24.24 49.08 31.09 6.4 34.29 24.75 12.35 19.2 12.35 19.2l-19.21 11.52-8.69-3.84 1.83 7.68-10.06 4.27-6.85-3.84.45 9s-8.23 11.1-13.71 0-.92-35.84-10.52-42.24-34.75-6.41-34.75-30.73c0 0 9.6-3 6.86-9s-10.52-3-10.52-3-9.15-3-8.23-10.24l-12.58 5.82s-9.98-33.05 20.81-30.56z" fill="#77427f"/><path d="m175.18 102.18s1.56 15.68 2.65 20.18a1.83 1.83 0 0 0 2.64 1.43z" fill="#f9b6b6"/><g fill="#231b52"><path d="m198.27 120.08c0-.12.72-.26 1.49-1a2 2 0 0 0 .72-1.47 1.59 1.59 0 0 0 -.93-1.54 1.36 1.36 0 0 0 -1.75.76l-.7-.17c.82-1.83 1.47-3 1.62-3s-.24 1.36-.94 3.23l-.7-.18a2.08 2.08 0 0 1 2.78-1.36 2.26 2.26 0 0 1 1.38 2.29 2.52 2.52 0 0 1 -1.09 1.83c-1.05.77-1.88.69-1.88.61z"/><path d="m106.83 141.93c-.12.17-1.75-.59-3.63-1.7s-3.32-2.17-3.2-2.34 1.75.58 3.64 1.69 3.36 2.17 3.19 2.35z"/><path d="m95 147.85c-.17.15-1.38-.78-3-1.7s-3.08-1.49-3-1.7 1.7.07 3.43 1.05 2.75 2.21 2.57 2.35z"/><path d="m93.81 150.58c-.06.2-1.49 0-3.07-.74s-2.64-1.63-2.51-1.79 1.36.43 2.87 1.11 2.77 1.21 2.71 1.42z"/><path d="m61.07 108.49c0 .06-.48-.14-1.32-.28a5.91 5.91 0 0 0 -3.47.51 4.93 4.93 0 0 0 -2.8 3.83 4.8 4.8 0 0 0 2.83 4.83 5.47 5.47 0 0 0 5.83-.8 4.73 4.73 0 0 0 1.6-4.39 5.09 5.09 0 0 0 -1.65-2.88c-.62-.55-1.06-.76-1-.82a2.62 2.62 0 0 1 1.23.59 5.09 5.09 0 0 1 .36 8 6.23 6.23 0 0 1 -6.72 1 5.3 5.3 0 0 1 .09-9.82 5.84 5.84 0 0 1 3.79-.32 2.74 2.74 0 0 1 1.23.55z"/><path d="m61.34 117.59c.18-.12 1 .65 1.89 1.74s1.41 2.07 1.22 2.19-1-.65-1.88-1.74-1.41-2.07-1.23-2.19z"/><path d="m171.66 117.08c0 .22-21.88.39-48.86.39s-48.86-.17-48.86-.39 21.87-.38 48.86-.38 48.86.17 48.86.38z" opacity=".32"/></g><path d="m58.6 147.85c.44.34 5.52 16.43 5.52 16.43h22.49l-5.17-16.43z" fill="#fcc781"/><path d="m300 146.6a4.67 4.67 0 0 1 -1.28.2 8.44 8.44 0 0 1 -3.67-.66 14.29 14.29 0 0 1 -4.71-3.33 34.22 34.22 0 0 1 -4.33-6.06c-1.46-2.28-3.09-4.87-5.79-6.68s-6.34-2.41-10.1-2.47-7.86.19-12-.84a22.3 22.3 0 0 1 -10.76-6.6 37.49 37.49 0 0 1 -6.67-10.3c-1.61-3.59-2.8-7.16-4-10.52-2.36-6.72-5.13-12.65-9-16.59a22.78 22.78 0 0 0 -11.21-6.75 23.89 23.89 0 0 0 -4.94-.51 7.29 7.29 0 0 1 1.3-.12 16.71 16.71 0 0 1 3.71.34 22.75 22.75 0 0 1 11.53 6.68 30.62 30.62 0 0 1 5.28 7.33 73.19 73.19 0 0 1 4 9.4c1.24 3.36 2.45 6.91 4.05 10.45a36.93 36.93 0 0 0 6.59 10.08 21.4 21.4 0 0 0 10.34 6.35c3.94 1 8 .7 11.8.85s7.63.7 10.48 2.66 4.45 4.63 5.89 6.93a33.64 33.64 0 0 0 4.18 6 14.19 14.19 0 0 0 4.49 3.35 8.9 8.9 0 0 0 3.53.78c.84.08 1.29-.02 1.29.03z" fill="#77427f"/><path d="m236.61 197.35a10.37 10.37 0 0 1 -3.49-.64 14.28 14.28 0 0 1 -7.33-5.8 11.91 11.91 0 0 1 -1.93-6 17.85 17.85 0 0 1 1.51-7.06c.94-2.37 2.17-4.76 3.08-7.32a17.82 17.82 0 0 0 1-4 11.26 11.26 0 0 0 -.38-4.11 15.27 15.27 0 0 0 -4.79-6.82 37.89 37.89 0 0 0 -6.8-4.52c-4.63-2.49-9-4.76-11.72-7.71a13.61 13.61 0 0 1 -4-8.14 8.62 8.62 0 0 1 .15-2.46 3.29 3.29 0 0 1 .27-.82 12.46 12.46 0 0 0 -.11 3.26 13.84 13.84 0 0 0 4.16 7.8c2.71 2.81 7 5 11.68 7.47a37.6 37.6 0 0 1 7 4.58 15.83 15.83 0 0 1 5 7.16 11.67 11.67 0 0 1 .41 4.38 18.28 18.28 0 0 1 -1 4.14c-1 2.62-2.19 5-3.13 7.32a17.39 17.39 0 0 0 -1.54 6.81 11.4 11.4 0 0 0 1.75 5.77 14.22 14.22 0 0 0 7 5.79 25.82 25.82 0 0 0 3.21.92z" fill="#77427f"/><path d="m198.77 109s-.13.31-.56.73a6.85 6.85 0 0 1 -2.16 1.41 9.05 9.05 0 0 1 -3.86.72 8.46 8.46 0 0 1 -4.58-1.45 7.55 7.55 0 0 1 -2.74-3.71 7.41 7.41 0 0 1 -.32-3.65 6.28 6.28 0 0 1 .85-2.32c.33-.5.57-.73.61-.71a13.21 13.21 0 0 0 -.88 3.09 7.43 7.43 0 0 0 3 6.69 8.76 8.76 0 0 0 7.72.85 15.53 15.53 0 0 0 2.92-1.65z" fill="#77427f"/><path d="m199.07 122.44c0-.09.67.24.63 1.15a1.75 1.75 0 0 1 -.76 1.35 2.11 2.11 0 0 1 -2 .11 1.89 1.89 0 0 1 -.83-2.94c.53-.71 1.15-.77 1.17-.68s-.38.34-.67.94a1.41 1.41 0 0 0 .69 2 1.27 1.27 0 0 0 1.86-.84c.14-.63-.16-1.01-.09-1.09z" fill="#9b9ba2"/><path d="m195.36 71.08c.23 0 .46 1.71.51 3.84s-.08 3.86-.3 3.86-.46-1.71-.51-3.84.08-3.86.3-3.86z" fill="#77427f"/><path d="m191.37 71.13c.17-.13 1.72 1.44 2.92 3.78s1.56 4.45 1.35 4.49-.91-1.9-2.09-4.16-2.37-3.97-2.18-4.11z" fill="#77427f"/><path d="m283 257.62c.11 0 .3.5-.27 1.24a4.08 4.08 0 0 1 -3.73 1.14c-1.69-.21-3.39-1.23-5-1.09a6.86 6.86 0 0 0 -4.87 3c-1.33 1.73-2 4.25-2.9 7.1s-2.26 6.42-6 8.66a9 9 0 0 1 -3.21 1.13 6.79 6.79 0 0 1 -1.8 0l-.9-.09c-.29-.06-.58-.15-.87-.23a12.86 12.86 0 0 1 -5.39-3.54c-1.39-1.41-2.56-2.88-3.8-4.16a8.9 8.9 0 0 0 -3.85-2.64 4.42 4.42 0 0 0 -3.86.8 12.9 12.9 0 0 0 -3.13 3.65c-.44.73-.81 1.44-1.23 2.25s-.86 1.62-1.35 2.42a15.92 15.92 0 0 1 -3.79 4.43 8.94 8.94 0 0 1 -6.08 1.86 10.44 10.44 0 0 1 -5.33-2.13 16.48 16.48 0 0 1 -3.36-3.44c-.87-1.19-1.57-2.33-2.24-3.38a16.28 16.28 0 0 0 -4.16-4.8 7.82 7.82 0 0 0 -4.48-1.29c-2.72.08-3.61 1.66-3.89 1.45-.09-.05-.07-.5.44-1.16a5.29 5.29 0 0 1 3.26-1.76 9.19 9.19 0 0 1 5.9 1 17.48 17.48 0 0 1 5.35 5.13c1.57 2.09 3 4.3 5.25 5.78a6.83 6.83 0 0 0 3.51 1.29 5 5 0 0 0 3.41-1.21 12.66 12.66 0 0 0 2.79-3.5c.41-.7.8-1.45 1.18-2.22s.83-1.67 1.32-2.5a16.12 16.12 0 0 1 4.13-4.82 9.15 9.15 0 0 1 3.44-1.58 8.63 8.63 0 0 1 4 .1 12.59 12.59 0 0 1 5.8 3.79c1.4 1.47 2.55 2.94 3.74 4.17 2.34 2.58 4.9 3.56 7.22 2.21a8.49 8.49 0 0 0 2.91-2.81 18.77 18.77 0 0 0 1.84-3.87c1-2.69 1.87-5.54 3.83-7.78a9.32 9.32 0 0 1 7.18-3.47 8.06 8.06 0 0 1 3.21.87 19.85 19.85 0 0 0 2.14.9 3.52 3.52 0 0 0 2.75-.24c.57-.28.71-.69.89-.66z" fill="#efeef2" opacity=".18"/><path d="m272.83 241c-.2.26-1.33-.7-3.51-.24a7.11 7.11 0 0 0 -3.38 1.8 15.81 15.81 0 0 0 -2.81 4.43c-.45.94-.92 2-1.54 3a13.2 13.2 0 0 1 -2.55 3.18 8.93 8.93 0 0 1 -4.37 2.25 7.81 7.81 0 0 1 -5.45-1.05c-3.07-2-4.53-4.72-6.53-6.57a6.39 6.39 0 0 0 -3.11-1.83 6.8 6.8 0 0 0 -3.75.31c-2.53.85-4.48 3-5.89 5.43-.71 1.17-1.31 2.55-2.11 3.9a13.74 13.74 0 0 1 -3.11 3.86 6.91 6.91 0 0 1 -5.49 1.53 7.27 7.27 0 0 1 -4.37-2.58c-1.85-2.2-2.74-4.27-4-5.74a7.8 7.8 0 0 0 -4.16-2.68 10.47 10.47 0 0 0 -4.07-.29c-2.28.3-3.44 1.09-3.64.84s.68-1.42 3.27-2.28a10.72 10.72 0 0 1 4.94-.35 10.19 10.19 0 0 1 5.91 3c1.65 1.71 2.81 3.84 4.32 5.4a3.88 3.88 0 0 0 2.35 1.33 3 3 0 0 0 2.43-.84 11 11 0 0 0 2.16-2.93c.66-1.18 1.22-2.54 2-4a18.94 18.94 0 0 1 3.1-4.12 13 13 0 0 1 4.88-3.1 11.2 11.2 0 0 1 6.14-.43 10.33 10.33 0 0 1 5.05 2.94 41.16 41.16 0 0 1 3.07 3.59 12.39 12.39 0 0 0 2.66 2.63c1.73 1.19 3.75.8 5.43-.59s2.7-3.24 3.81-5.09a16.18 16.18 0 0 1 3.86-4.81 8.43 8.43 0 0 1 4.74-1.7 4.9 4.9 0 0 1 3.06.85c.62.49.74.86.66.95z" fill="#efeef2" opacity=".18"/><path d="m269.21 219.44c-.11.3-1.41-.24-3.21.67a8.33 8.33 0 0 0 -2.74 2.37 10.6 10.6 0 0 0 -1.19 1.92c-.36.79-.74 1.63-1.13 2.51a20.28 20.28 0 0 1 -1.56 2.89 9.52 9.52 0 0 1 -2.84 2.86 9.08 9.08 0 0 1 -4.49 1.33 13.37 13.37 0 0 1 -4.61-.79 23.61 23.61 0 0 1 -4.1-1.92c-.65-.37-1.28-.76-1.91-1.17s-1.17-.75-1.77-1.1c-2.35-1.41-5-2.62-7.29-2.41a5.07 5.07 0 0 0 -3 1.31 10.87 10.87 0 0 0 -2.18 2.94c-1.21 2.26-2.11 5.1-4.23 7.44a9.31 9.31 0 0 1 -3.96 2.61 7.35 7.35 0 0 1 -5 0 6.77 6.77 0 0 1 -3.26-2.9c-.63-1-1-2-1.45-2.79a8.9 8.9 0 0 0 -6.78-4.51c-2.13-.29-3.4.06-3.51-.22s1-1.1 3.58-1.26a10.75 10.75 0 0 1 4.55.79 10 10 0 0 1 4.69 3.89c1.13 1.78 2 3.7 3.45 4.07s3.58-.31 4.83-1.88c1.42-1.64 2.19-4.09 3.54-6.83a14 14 0 0 1 3-4 9.24 9.24 0 0 1 5.37-2.37 12.63 12.63 0 0 1 5.54.86 24.69 24.69 0 0 1 4.36 2.21c.66.4 1.28.82 1.89 1.23s1.13.76 1.7 1.1a21.47 21.47 0 0 0 3.37 1.72 9.93 9.93 0 0 0 3.21.71 5.56 5.56 0 0 0 2.68-.64c1.59-.86 2.67-2.59 3.62-4.26.49-.83.95-1.67 1.44-2.46a12 12 0 0 1 1.74-2.17 9.26 9.26 0 0 1 3.91-2.38 4.75 4.75 0 0 1 3 .07c.58.18.8.47.74.56z" fill="#efeef2" opacity=".12"/><path d="m269.07 201.74c-.19.26-1.29-.62-3.29-.1a7.74 7.74 0 0 0 -3.21 1.77 24.31 24.31 0 0 0 -3.15 4 16.77 16.77 0 0 1 -2.21 2.61 9.75 9.75 0 0 1 -3.55 2.16 14.68 14.68 0 0 1 -8.87-.22c-2.87-.81-5.56-2.23-8.15-3.22s-5.45-1.73-7.81-1.17a6.28 6.28 0 0 0 -3.06 1.67 17.1 17.1 0 0 0 -2.38 3.11c-.76 1.18-1.44 2.41-2.41 3.68a14.2 14.2 0 0 1 -3.45 3.23 8.51 8.51 0 0 1 -4.88 1.46 7.94 7.94 0 0 1 -4.53-1.65c-2.22-1.79-3.34-3.65-4.69-4.89a5.57 5.57 0 0 0 -4-1.85 6.72 6.72 0 0 0 -3.49 1c-1.78 1.06-2.2 2.29-2.52 2.18-.12 0-.19-.37 0-1a5.06 5.06 0 0 1 1.54-2.35 7.77 7.77 0 0 1 4.34-1.94 7.45 7.45 0 0 1 3.19.32 9.8 9.8 0 0 1 3 1.7c1.75 1.4 3.14 3.23 4.79 4.34a4.18 4.18 0 0 0 5.14-.16 10.61 10.61 0 0 0 2.44-2.47c.7-1 1.37-2.19 2.13-3.44a19.78 19.78 0 0 1 2.93-3.88 10.42 10.42 0 0 1 5-2.74 13.49 13.49 0 0 1 5.59 0 25 25 0 0 1 4.76 1.44c3 1.21 5.35 2.56 7.79 3.32a11.31 11.31 0 0 0 6.58.57 9.36 9.36 0 0 0 4.53-3.37 22 22 0 0 1 4-4.09 8.87 8.87 0 0 1 4.44-1.59 4.51 4.51 0 0 1 2.93.74c.46.4.61.75.53.83z" fill="#efeef2" opacity=".12"/><path d="m142.11 194.31c.22.11-1.7 3.29-3 7.59s-1.39 7.94-1.64 7.93-.47-3.72.85-8.13 3.68-7.51 3.79-7.39z" fill="#77427f"/><path d="m144.9 207.9c-.16.12-2.27-3-2.82-7.47s.66-8 .84-7.89-.61 3.52 0 7.8 2.21 7.47 1.98 7.56z" fill="#77427f"/><path d="m199.94 149.47a10.89 10.89 0 0 1 2.07 0 16.71 16.71 0 0 1 5.73 1.4 19.44 19.44 0 0 1 7.26 5.5 18.4 18.4 0 0 1 4.1 10.84 24.48 24.48 0 0 1 -3.53 13.58 33.71 33.71 0 0 1 -5 6.33 45.1 45.1 0 0 1 -6.75 5.44 99.22 99.22 0 0 1 -16.75 8.54l-18.73 7.66-18.74 7.64a69 69 0 0 1 -9.11 3.31 16.41 16.41 0 0 1 -4.78.49 13 13 0 0 1 -4.57-1.13 19.48 19.48 0 0 1 -6.78-5.46 50.09 50.09 0 0 1 -4.47-6.63 109.49 109.49 0 0 1 -6.27-12.74 202.24 202.24 0 0 1 -6.71-19.27l-1.55-5.32c-.16-.57-.29-1-.38-1.38a3.71 3.71 0 0 1 -.11-.48s.08.15.19.45.26.8.45 1.37c.41 1.25 1 3 1.7 5.27 1.5 4.57 3.6 11.22 7 19.16a111.75 111.75 0 0 0 6.32 12.63 49.64 49.64 0 0 0 4.45 6.53 18.8 18.8 0 0 0 6.54 5.24 13.3 13.3 0 0 0 8.83.57 67.79 67.79 0 0 0 9-3.3l18.65-7.71 18.72-7.65a98.47 98.47 0 0 0 16.68-8.35 44.33 44.33 0 0 0 6.66-5.33 33.06 33.06 0 0 0 4.91-6.18 24 24 0 0 0 3.55-13.24 18 18 0 0 0 -3.89-10.62 19.3 19.3 0 0 0 -7-5.48 17.36 17.36 0 0 0 -5.6-1.52c-1.37-.17-2.09-.11-2.09-.16z" fill="#77427f" opacity=".25"/><path d="m204.92 296.68a4.9 4.9 0 0 1 .05-1.05c.08-.77.19-1.77.32-3l1.27-11a340.23 340.23 0 0 0 2.52-36.51 154.75 154.75 0 0 0 -3.86-36.32c-1.1-4.56-2.21-8.21-3.06-10.71-.4-1.25-.77-2.21-1-2.87a4.35 4.35 0 0 1 -.3-1 5.67 5.67 0 0 1 .45 1c.26.64.69 1.58 1.13 2.83a99 99 0 0 1 3.32 10.68 146.1 146.1 0 0 1 4.12 36.44 298.78 298.78 0 0 1 -2.77 36.57c-.6 4.66-1.13 8.42-1.52 11-.2 1.23-.35 2.23-.47 3a5.25 5.25 0 0 1 -.2.94z" fill="#77427f" opacity=".25"/><path d="m200.71 205.15c.08.2-2.21 1.24-5.13 2.32s-5.35 1.8-5.43 1.6 2.21-1.23 5.13-2.31 5.35-1.76 5.43-1.61z" fill="#77427f" opacity=".25"/><path d="m84.22 124s-.7.18-.17 1.3 1 1.8 1 1.8 1.28-.26 1-.86a13 13 0 0 0 -1.83-2.24z" fill="#77427f"/><path d="m180.85 113c-.18.11-.69-.3-.92-1s-.07-1.31.15-1.31.43.5.63 1.08.34 1.1.14 1.23z" fill="#231b52"/><path d="m181.24 105.41c-.08.2-.78.17-1.57.37s-1.39.53-1.56.38.31-.87 1.36-1.12 1.86.18 1.77.37z" fill="#231b52"/><path d="m191.77 121.57c1.16 1.8.13 4.36-2.46 5.39s-5.29 0-5.88-2.08a4.16 4.16 0 0 1 2.67-4.88 4.73 4.73 0 0 1 5.67 1.57z" fill="#f27081" opacity=".22"/><path d="m53.11 92.49c-3.66.8-7.46.76-8.85-2.7-1-2.57.75-4.44 1.5-6.88a8 8 0 0 0 -1.88-8c-4.13-4.42-14.08-4.93-16.65.78-.64 1.43 1.29 3.21 3.05 2.42 2.12-1 4.43-2.62 7.08-1.84 4 1.17 3.36 4.86 2.37 7.36-1.11 2.83-2 5.43-.42 8.34 2.62 4.92 10.54 7.15 15.21 3.12a1.49 1.49 0 0 0 -1.41-2.56z" fill="#3b3b3b" opacity=".25"/><path d="m50 89.57c-3.67.79-7.47.75-8.85-2.7-1-2.58.75-4.45 1.5-6.89a8.07 8.07 0 0 0 -1.89-8c-4.12-4.42-14.08-4.93-16.64.78-.64 1.43 1.28 3.21 3 2.42 2.12-1 4.44-2.61 7.08-1.84 4 1.17 3.36 4.87 2.38 7.36-1.11 2.83-2 5.43-.42 8.34 2.61 4.93 10.54 7.15 15.21 3.12a1.49 1.49 0 0 0 -1.37-2.59z" fill="#f27081"/><path d="m95.07 89.38c2.62-1.12 4.4-3.58 6.28-5.54q3.32-3.45 6.6-6.92c1.83-1.93-1.54-4.39-3.37-2.47-2.07 2.19-4.13 4.4-6.19 6.6-1.84 2-4.36 4-5.23 6.51a1.44 1.44 0 0 0 1.91 1.82z" fill="#3b3b3b" opacity=".25"/><path d="m91.93 86.45c2.61-1.12 4.4-3.57 6.28-5.54 2.2-2.3 4.41-4.6 6.6-6.91 1.83-1.94-1.55-4.4-3.37-2.48-2.07 2.19-4.13 4.4-6.19 6.6-1.85 2-4.36 4-5.23 6.51a1.44 1.44 0 0 0 1.91 1.82z" fill="#f69580"/><path d="m50 42a2.92 2.92 0 0 0 -1.36-4 3.36 3.36 0 0 0 -4.3 1.27 2.91 2.91 0 0 0 1.36 4 3.36 3.36 0 0 0 4.3-1.27z" fill="#3b3b3b" opacity=".25"/><path d="m46.87 39a2.91 2.91 0 0 0 -1.35-4 3.36 3.36 0 0 0 -4.3 1.26 2.92 2.92 0 0 0 1.35 4 3.36 3.36 0 0 0 4.3-1.26z" fill="#231b52"/><path d="m72.3 48c-2.08 5.54 1 11.53 7.68 12.24 6.26.66 12.3-4.51 11.83-10.43-.44-5.48-6.24-9.95-12.08-9.16-5.66.77-11 7-8.37 12.24.83 1.65 3.77 1 4.06-.67.51-3 .66-5.89 4.19-7.15 3.3-1.18 7 1.31 7.62 4.41.67 3.29-2.59 6.51-6.07 6.61-3.84.11-7.76-4.31-7.42-7.8a.74.74 0 0 0 -1.44-.29z" fill="#3b3b3b" opacity=".25"/><path d="m69.16 45.1c-2.08 5.53 1 11.52 7.68 12.23 6.26.66 12.3-4.51 11.83-10.43-.44-5.48-6.24-9.94-12.09-9.15-5.66.76-11 7-8.37 12.23.83 1.66 3.78 1 4.07-.67.5-3 .66-5.89 4.19-7.15 3.3-1.17 7 1.32 7.61 4.41.68 3.3-2.59 6.51-6.06 6.61-3.84.11-7.77-4.31-7.42-7.8a.74.74 0 0 0 -1.44-.28z" fill="#fcc781"/><path d="m18.41 115.6c-3.17-3.94-6.83-8.43-11.15-11.32-2-1.33-5.37.58-3.64 2.81 3.16 4.07 7.93 7.53 12.22 10.49 1.4 1 3.81-.43 2.57-2z" fill="#3b3b3b" opacity=".25"/><path d="m15.26 112.67c-3.16-3.94-6.83-8.43-11.14-11.32-2-1.33-5.38.58-3.64 2.82 3.16 4.06 7.93 7.52 12.22 10.49 1.39 1 3.8-.44 2.56-2z" fill="#d6e380"/><path d="m75.07 20.41c2-4.58 4.13-9.84 4.51-14.78.18-2.28-3.34-4-4.47-1.43-2.06 4.64-2.73 10.24-3.19 15.21-.15 1.61 2.39 2.8 3.15 1z" fill="#3b3b3b" opacity=".25"/><path d="m71.93 17.48c1.94-4.57 4.12-9.84 4.51-14.78.18-2.28-3.34-4-4.47-1.42-2.06 4.63-2.73 10.24-3.2 15.2-.15 1.61 2.39 2.8 3.16 1z" fill="#77427f"/><path d="m23.89 150.5c3 3.95 6.26 9.51 10.73 12.2 5.44 3.28 6.86-3.2 7.88-6.77 1-3.35 4.65-10.71-.91-12.31-2.48-.72-5.44.61-7.76 1.25l-10.08 2.79c-3.39.94-1.71 5.92 1.65 4.88l7.49-2.3c1.39-.43 6.34-2.73 7.72-1.83l-1.23-1.36c.83 1.73-1 5.61-1.42 7.35-.31 1.17-.73 2.38-.93 3.58-.3 1.94-.2 1-1.48-.12a112.09 112.09 0 0 0 -10.43-8.31c-.67-.44-1.81.19-1.23.95z" fill="#3b3b3b" opacity=".25"/><path d="m20.75 147.58c3 3.95 6.26 9.51 10.73 12.2 5.44 3.28 6.85-3.21 7.87-6.78 1-3.35 4.66-10.71-.91-12.31-2.44-.69-5.44.61-7.76 1.31l-10.07 2.79c-3.39.93-1.71 5.91 1.65 4.88l7.48-2.31c1.4-.43 6.35-2.73 7.72-1.82-.4-.46-.81-.91-1.22-1.37.83 1.74-1 5.61-1.43 7.35-.3 1.18-.73 2.38-.92 3.58-.31 1.94-.21 1-1.49-.11a109.06 109.06 0 0 0 -10.4-8.36c-.68-.45-1.82.18-1.23 1z" fill="#86a7d7"/><g fill="#818181" opacity=".1"><path d="m152.74 299.21 10.34-.61a2.68 2.68 0 0 0 2.84-2.46l1.13-28.87a2.64 2.64 0 0 0 -2.73-2.65h-5.27l1.88-10.93-17.12 10.93h-54.53a2.62 2.62 0 0 0 -2.7 3l5.93 32.23a2.69 2.69 0 0 0 2.87 2.15l52-2.41"/><rect height="2.6" rx=".58" width="59.99" x="99.06" y="277.27"/><rect height="2.6" rx=".58" width="37.16" x="99.7" y="283.3"/></g><path d="m148.74 295.21 10.34-.61a2.68 2.68 0 0 0 2.84-2.46l1.13-28.87a2.64 2.64 0 0 0 -2.73-2.65h-5.27l1.88-10.93-17.12 10.93h-54.53a2.62 2.62 0 0 0 -2.7 3l5.93 32.23a2.69 2.69 0 0 0 2.87 2.15l52-2.41" fill="#fcc781"/><rect fill="#fff" height="2.6" rx=".58" width="59.99" x="95.06" y="273.27"/><rect fill="#fff" height="2.6" rx=".58" width="37.16" x="95.7" y="279.3"/></svg>