<?xml version="1.0" encoding="iso-8859-1"?>
<!-- Generator: Adobe Illustrator 19.0.0, SVG Export Plug-In . SVG Version: 6.00 Build 0)  -->
<svg version="1.1" id="Capa_1" xmlns="http://www.w3.org/2000/svg" xmlns:xlink="http://www.w3.org/1999/xlink" x="0px" y="0px"
	 viewBox="0 0 512 512" style="enable-background:new 0 0 512 512;" xml:space="preserve">
<path style="fill:#546F7A;" d="M457.957,117.844H54.043c-20.635,0-37.424,16.822-37.424,37.5V433.12c0,4.142,3.351,7.5,7.485,7.5
	h463.791c4.134,0,7.485-3.358,7.485-7.5V155.344C495.38,134.666,478.592,117.844,457.957,117.844z"/>
<path style="fill:#475D63;" d="M457.957,117.844h-40.248c20.635,0,37.423,16.822,37.423,37.5V433.12c0,4.142-3.351,7.5-7.485,7.5
	h40.248c4.134,0,7.485-3.358,7.485-7.5V155.344C495.38,134.666,478.592,117.844,457.957,117.844z"/>
<path style="fill:#A8EEFC;" d="M448.12,159.657H64.825c-4.134,0-7.485,3.358-7.485,7.5v266.13c0,4.142,3.351,7.5,7.485,7.5H448.12
	c4.134,0,7.485-3.358,7.485-7.5v-266.13C455.605,163.014,452.254,159.657,448.12,159.657z"/>
<path style="fill:#7EE5F2;" d="M448.12,159.657h-26.945v281.13h26.945c4.134,0,7.485-3.358,7.485-7.5v-266.13
	C455.605,163.014,452.254,159.657,448.12,159.657z"/>
<path style="fill:#4CE166;" d="M447.648,159.49h-78.532l-0.035,175.023h9.451h76.6V166.99
	C455.132,162.847,451.781,159.49,447.648,159.49z"/>
<path style="fill:#44C868;" d="M447.648,159.49h-26.945v175.023h34.43V166.99C455.132,162.847,451.781,159.49,447.648,159.49z"/>
<path style="fill:#FFDB56;" d="M455.132,334.513h-86.051V159.49h-43.249V266.7H185.871V159.49h-43.249v68.096H56.868v43.249h85.754
	v59.932l-85.754,85.754v16.599c0,4.142,3.351,7.5,7.485,7.5h29.579l48.691-48.691v48.691h43.249V309.948h139.962V440.62h43.249
	v-62.858h86.051v-43.249H455.132z"/>
<rect x="420.7" y="334.51" style="fill:#FFBB24;" width="34.43" height="43.25"/>
<path style="fill:#4CE166;" d="M325.806,309.948H185.894v50.73h0.096v79.942h139.842v-7.477c-0.01-0.162-0.026-0.322-0.026-0.487
	L325.806,309.948L325.806,309.948z"/>
<path style="fill:#E0E0E0;" d="M504.515,425.62H7.485c-4.134,0-7.485,3.358-7.485,7.5c0,33.998,27.603,61.657,61.531,61.657h388.937
	c33.929,0,61.531-27.659,61.531-61.657C512,428.978,508.649,425.62,504.515,425.62z"/>
<g>
	<path style="fill:#C6C5CA;" d="M504.515,425.62h-33.247c4.134,0,7.485,3.358,7.485,7.5c0,33.998-27.603,61.657-61.531,61.657
		h33.247c33.929,0,61.531-27.659,61.531-61.657C512,428.978,508.649,425.62,504.515,425.62z"/>
	<path style="fill:#C6C5CA;" d="M319.276,425.62H192.724c-4.134,0-7.485,3.358-7.485,7.5c0,17.751,14.412,32.193,32.127,32.193
		h77.268c17.715,0,32.127-14.442,32.127-32.193C326.761,428.978,323.41,425.62,319.276,425.62z"/>
</g>
<ellipse style="fill:#FFFFFF;" cx="256" cy="122.14" rx="38.775" ry="38.854"/>
<path style="fill:#FF4A4A;" d="M256,17.223c-57.733,0-104.701,47.065-104.701,104.915c0,35.786,16.941,74.207,50.354,114.194
	c24.541,29.37,48.748,48.259,49.766,49.049c1.348,1.045,2.965,1.568,4.581,1.568s3.232-0.523,4.58-1.568
	c1.018-0.79,25.226-19.679,49.766-49.049c33.413-39.988,50.354-78.408,50.354-114.194C360.701,64.288,313.732,17.223,256,17.223z
	 M256,83.285c21.415,0,38.774,17.396,38.774,38.854s-17.36,38.854-38.774,38.854c-21.415,0-38.775-17.395-38.775-38.854
	S234.585,83.285,256,83.285z"/>
<path style="fill:#E7343F;" d="M256,17.223c-4.813,0-9.549,0.334-14.192,0.968c51.044,6.962,90.51,50.92,90.51,103.948
	c0,35.786-16.941,74.207-50.354,114.194c-15.4,18.431-30.666,32.731-40.155,41.024c5.632,4.922,9.232,7.731,9.611,8.025
	c1.348,1.045,2.965,1.568,4.581,1.568s3.232-0.523,4.58-1.568c1.018-0.79,25.226-19.679,49.766-49.049
	c33.413-39.988,50.354-78.408,50.354-114.194C360.701,64.288,313.732,17.223,256,17.223z"/>
<polygon style="fill:#4CE166;" points="142.622,270.834 56.868,270.834 56.868,416.521 142.622,330.766 "/>
<g>
</g>
<g>
</g>
<g>
</g>
<g>
</g>
<g>
</g>
<g>
</g>
<g>
</g>
<g>
</g>
<g>
</g>
<g>
</g>
<g>
</g>
<g>
</g>
<g>
</g>
<g>
</g>
<g>
</g>
</svg>
