<svg viewBox="0 0 3710 3710" xmlns="http://www.w3.org/2000/svg" xmlns:xlink="http://www.w3.org/1999/xlink"><linearGradient id="a" gradientUnits="userSpaceOnUse" x1="1969.49" x2="2176.74" y1="3097.25" y2="2154.59"><stop offset="0" stop-color="#09005d"/><stop offset="1" stop-color="#1a0f91"/></linearGradient><linearGradient id="b" x1="1996.38" x2="1858.22" xlink:href="#a" y1="1437.79" y2="2634.5"/><linearGradient id="c" gradientUnits="userSpaceOnUse" x1="2179.85" x2="2590.99" y1="1198.64" y2="-125.03"><stop offset="0" stop-color="#4f52ff"/><stop offset="1" stop-color="#4042e2"/></linearGradient><linearGradient id="d" x1="1973.37" x2="1973.37" xlink:href="#a" y1="2594.17" y2="2854.91"/><linearGradient id="e" gradientTransform="matrix(-1 0 0 1 83.01 0)" x1="-2487.01" x2="-2294.52" xlink:href="#a" y1="3219.25" y2="3219.25"/><linearGradient id="f" x1="2418.89" x2="2512.49" xlink:href="#c" y1="3114.95" y2="3239.75"/><linearGradient id="g" gradientTransform="matrix(-1 0 0 1 83.01 0)" gradientUnits="userSpaceOnUse" x1="-2469.24" x2="-2415.02" y1="3128.85" y2="3128.85"><stop offset="0" stop-color="#febbba"/><stop offset="1" stop-color="#ff928e"/></linearGradient><linearGradient id="h" gradientTransform="matrix(-1 0 0 1 83.01 0)" x1="-2870.78" x2="-2797.01" xlink:href="#a" y1="3215.1" y2="3215.1"/><linearGradient id="i" gradientTransform="matrix(-1 0 0 1 83.01 0)" x1="-2870.24" x2="-2761.96" xlink:href="#c" y1="3158.3" y2="3158.3"/><linearGradient id="j" x1="-2813.96" x2="-2749.16" xlink:href="#g" y1="3083.65" y2="3083.65"/><linearGradient id="k" x1="3464.63" x2="3018.39" xlink:href="#c" y1="1407.01" y2="2118.98"/><linearGradient id="l" gradientUnits="userSpaceOnUse" x1="2575.99" x2="2520.84" y1="-458.25" y2="434.22"><stop offset="0" stop-color="#ff928e"/><stop offset="1" stop-color="#fe7062"/></linearGradient><linearGradient id="m" x1="-2517.07" x2="-2747.75" xlink:href="#g" y1="2139.08" y2="2343.36"/><linearGradient id="n" x1="2794.98" x2="2739.83" xlink:href="#l" y1="-444.72" y2="447.75"/><linearGradient id="o" x1="2370.71" x2="2315.56" xlink:href="#l" y1="-470.94" y2="421.53"/><linearGradient id="p" x1="-2084.63" x2="-1902.96" xlink:href="#g" y1="2158.4" y2="2158.4"/><linearGradient id="q" x1="-2261.22" x2="-2263.2" xlink:href="#g" y1="1672.91" y2="2012.17"/><linearGradient id="r" gradientTransform="matrix(-.99 -.14 -.14 .99 222.07 -1480.94)" x1="-2434.01" x2="-2601" xlink:href="#g" y1="2779.11" y2="3000.04"/><linearGradient id="s" gradientTransform="matrix(-.99 -.14 -.14 .99 222.07 -1480.94)" x1="-2561.55" x2="-2362.06" xlink:href="#a" y1="2832.4" y2="2832.4"/><linearGradient id="t" gradientTransform="matrix(-.99 -.14 -.14 .99 222.07 -1480.94)" x1="-2678.59" x2="-2544.65" xlink:href="#g" y1="2954.07" y2="2816.64"/><linearGradient id="u" x1="-1922.26" x2="-1857.2" xlink:href="#g" y1="2137.07" y2="2137.07"/><linearGradient id="v" gradientTransform="matrix(-1 0 0 1 83.01 0)" x1="-1548.43" x2="-3512.99" xlink:href="#a" y1="1814.39" y2="3247.5"/><linearGradient id="w" x1="1233.61" x2="1431.28" xlink:href="#a" y1="1975.09" y2="1975.09"/><linearGradient id="x" x1="-1192" x2="-1247.15" xlink:href="#g" y1="-2103.67" y2="-1211.19"/><linearGradient id="y" gradientTransform="matrix(-1 0 0 1 83.01 0)" x1="-1837.58" x2="-2702.25" xlink:href="#c" y1="1831.93" y2="2720.55"/><linearGradient id="z" gradientTransform="matrix(-1 0 0 1 83.01 0)" x1="-1815.23" x2="-2679.9" xlink:href="#c" y1="1910.03" y2="2798.65"/><linearGradient id="A" x1="-2425.97" x2="-2656.66" xlink:href="#g" y1="2241.95" y2="2446.23"/><linearGradient id="B" gradientTransform="matrix(.5798501 .81472318 -.81472318 .5798501 1387.74 -930.16)" gradientUnits="userSpaceOnUse" x1="1989.04" x2="1933.89" y1="-3372.62" y2="-2480.15"><stop offset="0" stop-color="#e1473d"/><stop offset="1" stop-color="#e9605a"/></linearGradient><linearGradient id="C" gradientTransform="matrix(.87 .5 -.5 .87 344.57 -909.55)" x1="1989.04" x2="1933.88" xlink:href="#l" y1="-3372.61" y2="-2480.13"/><linearGradient id="D" gradientTransform="matrix(.96510796 -.26185231 .26185231 .96510796 -1163.53 186.15)" x1="1992.9" x2="1937.75" xlink:href="#l" y1="-3372.38" y2="-2479.91"/><linearGradient id="E" gradientTransform="matrix(.87 .5 -.5 .87 157.27 -1199.88)" x1="2314.86" x2="2259.71" xlink:href="#B" y1="-3352.47" y2="-2460"/><linearGradient id="F" gradientTransform="matrix(.87 .5 -.5 .87 157.27 -1199.88)" x1="2314.86" x2="2259.71" xlink:href="#l" y1="-3352.48" y2="-2460"/><linearGradient id="G" gradientTransform="matrix(.96510796 -.26185231 .26185231 .96510796 -1163.53 186.15)" x1="2321.16" x2="2266.01" xlink:href="#l" y1="-3352.09" y2="-2459.62"/><linearGradient id="H" gradientTransform="matrix(.87 .5 -.5 .87 534.46 -1265.29)" x1="2491.3" x2="2436.15" xlink:href="#B" y1="-3341.58" y2="-2449.1"/><linearGradient id="I" gradientTransform="matrix(.87 .5 -.5 .87 534.46 -1265.29)" x1="2491.3" x2="2436.15" xlink:href="#l" y1="-3341.59" y2="-2449.11"/><linearGradient id="J" gradientTransform="matrix(.96510796 -.26185231 .26185231 .96510796 -1163.53 186.15)" x1="2497.78" x2="2442.63" xlink:href="#l" y1="-3341.17" y2="-2448.7"/><linearGradient id="K" gradientTransform="matrix(1 -.05 .05 1 -911.65 -378.2)" x1="2742.64" x2="2687.49" xlink:href="#B" y1="-3326.05" y2="-2433.58"/><linearGradient id="L" gradientTransform="matrix(.87 .5 -.5 .87 282.94 -1509.78)" x1="2742.64" x2="2687.48" xlink:href="#l" y1="-3326.04" y2="-2433.56"/><linearGradient id="M" gradientTransform="matrix(.96510796 -.26185231 .26185231 .96510796 -1163.53 186.15)" x1="2747.82" x2="2692.67" xlink:href="#l" y1="-3325.73" y2="-2433.26"/><path d="m701.62 471.78c-45.39 224.84-256.12 1544.05 946.29 1964.16 0 0 362.3-832.78-914.36-1974.84a19.4 19.4 0 0 0 -31.93 10.68z" fill="#91b3fa"/><path d="m762.47 718.21c23.43 69.48 48.26 138.4 73.7 207.13s51.73 137.12 78.83 205.22c54.11 136.2 111.28 271.22 172.57 404.4s126.69 264.57 199.09 392.23q54 95.91 115 187.76c40.78 61.08 84 120.68 132 176.68a7.88 7.88 0 1 0 12-10.25c-47.64-55.09-90.9-114-131.75-174.52s-79.25-122.78-115.44-186.3c-72.8-126.84-138.65-257.68-200.62-390.26s-119.85-267.3-174.58-403.07q-41.08-101.83-79.78-204.63c-25.76-68.52-51-137.3-74.68-206.51a3.34 3.34 0 0 0 -6.33 2.15z" fill="#fff" opacity=".45"/><path d="m1443.31 2525.71s15.34-223.81-189.33-470.1c-189.9-228.5-659.41-759.84-753.56-1039.19-4.17-12.37-22.16-10.44-23.46 2.56-13.96 139.38-21.36 491.21 188.56 860.45 270.7 476.15 777.79 646.28 777.79 646.28z" fill="#91b3fa"/><path d="m559.43 1273.47c1.24 31 6.34 61.68 13.1 91.91.82 3.79 1.57 7.59 2.46 11.37l2.88 11.26 5.78 22.54 6.71 22.27c2.31 7.41 4.31 14.92 7.06 22.17a1097.71 1097.71 0 0 0 74.72 170.38c6.88 14 15.19 27.08 23 40.5l11.86 20.06c2 3.32 3.84 6.76 6 10l6.4 9.73 25.6 38.92c4.13 6.59 8.93 12.7 13.48 19l13.8 18.76 13.8 18.77 6.93 9.36 7.35 9 29.41 36.12c4.94 6 9.7 12.13 14.8 18l15.26 17.5 30.51 35 30.91 34.66c10.34 11.52 20.57 23.14 31.07 34.51q31.29 34.32 63.08 68.15c21.09 22.66 42.54 45 63.88 67.38l64.72 66.51c43.14 44.32 86.36 88.53 128 134.09 10.58 11.26 20.57 23 30.76 34.58 5.17 5.73 9.93 11.78 14.84 17.73s9.85 11.86 14.55 18c9.14 12.38 18.76 24.45 27 37.45l6.44 9.59c1 1.61 2.2 3.16 3.17 4.82l2.88 5 11.54 20v.08a1.68 1.68 0 0 0 3-1.59c-14-27.77-30.89-54-49.33-78.93-4.6-6.25-9.5-12.26-14.24-18.41s-9.46-12.3-14.52-18.17c-10-11.87-19.76-23.92-30.11-35.44l-15.34-17.47c-5.16-5.78-10.44-11.43-15.66-17.15l-15.7-17.11-15.87-16.95c-21.11-22.64-42.47-45-63.74-67.47-42.55-44.89-85.11-89.72-127.15-135s-83.52-91.21-124.52-137.44l-30.43-34.94-15.21-17.48c-5.08-5.82-9.84-11.85-14.77-17.77l-29.36-35.68-7.34-8.92-6.91-9.25-13.78-18.54c-37.39-49-70.55-101-100.94-154.57a1089 1089 0 0 1 -77.56-167.56c-2.89-7.15-5-14.57-7.56-21.84l-7.39-21.96-6.45-22.21-3.23-11.11c-1-3.72-1.87-7.48-2.81-11.22-1.79-7.5-3.82-15-5.42-22.5l-4.62-22.68c-2.6-15.2-5.34-30.45-6.38-45.86a.21.21 0 0 0 -.21-.21.22.22 0 0 0 -.2.26z" fill="#fff" opacity=".45"/><path d="m1722.24 2720.74-54.47 375.86h631.9l-82.31-375.86z" fill="url(#a)"/><path d="m660.76 1517.24v1118.76a169.71 169.71 0 0 0 165.34 169.63c408.61 10.54 1837.75 36.09 2226.73 30.36a124.88 124.88 0 0 0 122.94-121.32c7.5-259.9 19.68-884.86-25.4-1175a128.51 128.51 0 0 0 -122.87-108.77c-342.37-11-1857.35-45.73-2246.14-37a123.36 123.36 0 0 0 -120.6 123.34z" fill="url(#b)"/><path d="m731 1511.8v1062.87a98.34 98.34 0 0 0 96.82 98.33l2169 26.79a95.69 95.69 0 0 0 97.12-95.33l3.63-1053.37a70 70 0 0 0 -68.28-70.23l-2220.66-44.86a75.82 75.82 0 0 0 -77.63 75.8z" fill="url(#c)"/><path d="m3110.32 2743.34h-.05l-2379.36-40.54a3 3 0 0 1 -3-3.06 3.05 3.05 0 0 1 3.06-2.95l2379.36 40.54a3 3 0 0 1 0 6z" fill="#91b3fa"/><path d="m1944.11 2792.86a27.77 27.77 0 1 1 27.77-27.77 27.8 27.8 0 0 1 -27.77 27.77zm0-49.52a21.75 21.75 0 1 0 21.75 21.75 21.78 21.78 0 0 0 -21.75-21.75z" fill="#91b3fa"/><path d="m2435.78 3196.54h-924.78c-25.13 0-44-17.88-39.14-37.1l11.87-46.93c3.57-14.11 19.09-24.48 37.54-25.05l891.56-27.82c19.27-.6 36.33 9.62 40.53 24.29l21.39 74.76c5.52 19.42-13.44 37.85-38.97 37.85z" fill="url(#d)"/><path d="m2008.81 3100.17a3 3 0 0 1 0-6l38.21-.56a3.09 3.09 0 0 1 3 3 3 3 0 0 1 -3 3.05l-38.21.56z" fill="#91b3fa"/><path d="m1506.06 3170.66a2.59 2.59 0 0 1 -.48 0 3 3 0 0 1 -2.49-3.44l5.45-34.14a38.08 38.08 0 0 1 37.1-32.12l405.22-5.92a3 3 0 0 1 0 6l-405.22 5.93a32.06 32.06 0 0 0 -31.25 27l-5.45 34.13a3 3 0 0 1 -2.88 2.56z" fill="#91b3fa"/><path d="m2631.77 467.51-1511.45-9.26a86.52 86.52 0 0 0 -86.94 90.8l103 2127 1683 20.44 93.39-1918.59z" fill="#bdd0fb"/><path d="m2694.62 768.67a86.52 86.52 0 0 1 -83.21-93.28l16.2-205 285.39 306.22z" fill="#7d97f4"/><g fill="#fff"><path d="m1367.46 626.05-4.21 33.26h-61.84l-23.73 192.53h-40.29l23.61-192.53h-62l4.06-33.26z"/><path d="m1522.68 851.84h-31.39q-5.31 0-8.43-2.49a10.84 10.84 0 0 1 -3.91-6.72l-9.37-47.16h-84.16l-20.92 47.16a17.12 17.12 0 0 1 -5.62 6.4 14.61 14.61 0 0 1 -8.75 2.81h-31.86l109.15-225.79h41.38zm-124.61-84.94h65.74l-15.31-77.3q-1.24-5.62-2.49-11.87t-2.35-14.05q-3 7.82-5.85 14.44c-1.93 4.43-3.73 8.3-5.39 11.64z"/><path d="m1605.59 731.29-50.75-105.24h36.7q4.07 0 5.85 1.17a8.86 8.86 0 0 1 3 4l34.66 77.92a53 53 0 0 1 3.75-6.56l47.94-70.89q3.75-5.62 9.21-5.62h42.32l-76.83 103.37 56.69 122.42h-36.13a8.74 8.74 0 0 1 -6.32-2.18 16.14 16.14 0 0 1 -3.51-4.85l-39.2-90.41c-.52.84-1 1.67-1.49 2.5s-1 1.67-1.48 2.5l-58.4 85.41a15.68 15.68 0 0 1 -5.78 5.47 15.14 15.14 0 0 1 -6.87 1.56h-40.44z"/><path d="m2641.91 2060.47h-1311.15a73.2 73.2 0 0 1 -73.16-71l-27.4-899.27a73.21 73.21 0 0 1 73.17-75.43h1338.54a73.2 73.2 0 0 1 73.2 73.2v899.27a73.2 73.2 0 0 1 -73.2 73.23z" opacity=".39"/><path d="m2633.63 2065.48h-1311.14a77.84 77.84 0 0 1 -78.17-75.83l-27.4-899.27a78.21 78.21 0 0 1 78.18-80.59h1338.53a78.3 78.3 0 0 1 78.22 78.21v899.27a78.3 78.3 0 0 1 -78.22 78.21zm-1338.53-1045.66a68.18 68.18 0 0 0 -68.16 70.26l27.4 899.27a67.87 67.87 0 0 0 68.15 66.1h1311.14a68.26 68.26 0 0 0 68.19-68.18v-899.27a68.26 68.26 0 0 0 -68.19-68.18z"/><path d="m1160.59 1529.04h1046.75v10.03h-1046.75z" transform="matrix(.00523596 -.99998629 .99998629 .00523596 141.15 3209.99)"/><path d="m1959.76 377.64h10.03v1484.13h-10.03z" transform="matrix(.0048869 -.99998806 .99998806 .0048869 835.46 3078.97)"/><path d="m1227.57 1355.12h1477.5v10.03h-1477.5z"/><path d="m1240.94 1612.52h1464.13v10.03h-1464.13z"/><path d="m1255.32 1825.26h1451.41v10.03h-1451.41z" transform="matrix(.99999657 -.00261799 .00261799 .99999657 -4.76 5.16)"/><rect height="54.94" opacity=".55" rx="4.05" width="623.11" x="1866.26" y="702.27"/><rect height="107.63" opacity=".42" rx="4.05" width="1435.17" x="1271.66" y="2240.22"/><rect height="54.94" opacity=".55" rx="4.05" width="623.11" x="1868.95" y="789.79"/></g><path d="m2383 3209.94c33 2.85 90.21 7.48 135.33 9.47 27.13 1.19 42.74-1.47 51.74-5.07 0 1-.05 2-.09 2.86a9.33 9.33 0 0 1 -8.86 8.82c-85.26 4.76-153.07 1.65-177.21.18a6.65 6.65 0 0 1 -5.41-10 55.21 55.21 0 0 1 4.5-6.26z" fill="url(#e)"/><path d="m2518.29 3219.41c-45.12-2-102.35-6.62-135.33-9.47 32.43-39.78 135.33-66.59 135.33-66.59h29.07c20 28.82 22.88 56.25 22.67 71-9.03 3.59-24.61 6.25-51.74 5.06z" fill="url(#f)"/><path d="m2552.25 3095.9-2.72 53.82a12.27 12.27 0 0 1 -10.49 11.56 47.73 47.73 0 0 1 -21.83-1.81 14.51 14.51 0 0 1 -9.78-11.17l-9.4-52.4z" fill="url(#g)"/><path d="m2929.77 3219c14.3-2 20.77-9.42 23.48-17.36a1.6 1.6 0 0 1 .05.21c2.11 8.38-2.77 17.06-12.52 21.19-11.79 5-24.67 5.84-34.68 5.43-10.73-.44-20.59-4.89-26-12l-.08-.11c10.77 5.34 25.9 5.97 49.75 2.64z" fill="url(#h)"/><path d="m2862.34 3095.55h24c36.51-.74 59.43 76.27 66.94 106.09-2.71 7.94-9.18 15.37-23.48 17.36-23.85 3.33-39 2.7-49.75-2.63-19.73-26-29.51-64-34.21-86.16-5.37-25.21 16.5-34.66 16.5-34.66z" fill="url(#i)"/><path d="m2883.23 3045.6 13.31 52.94a14.37 14.37 0 0 1 -7.48 16.28c-7.44 3.82-17.93 7.84-27.56 6.67a12 12 0 0 1 -9.79-8l-19.54-55.7z" fill="url(#j)"/><path d="m2899.1 3060.9c-16.56 14.69-70.42 16.63-70.42 16.63-194-465.67-273.38-531.82-273.38-531.82 28 175.76 4.51 564.88 4.51 564.88-32 14.13-73.29 0-73.29 0a2999.23 2999.23 0 0 0 -99.08-736.53c131.14-2.95 200.87-47.82 223.64-65.83 109.31 176.23 288.02 752.67 288.02 752.67z" fill="url(#k)"/><path d="m2577.78 1772.72c24.82 123.8 15.92 345.39 10.08 446.47-1.64 28.4 18.19 67.79 34.22 94.65a8.44 8.44 0 0 1 -3.4 11.86c-26.84 13.79-117.76 56.54-223.13 61.86a15 15 0 0 1 -15.11-11.23c-78.17-291.84-169-478.33-169-478.33 100.28-160.06 366.34-125.28 366.34-125.28z" fill="url(#l)"/><path d="m2733.47 2128c-8 57.67-31.53 120.58-78.65 187.4l-17.92-14.6s20.68-83.89 8.93-179.11c29.06-5.63 63.39.22 87.64 6.31z" fill="url(#m)"/><path d="m2550.06 1925.48 27.72-152.76s185.22 141.59 155.69 355.28c-24.25-6.13-58.58-12-87.64-6.31-8.47-68.55-33.77-143.01-95.77-196.21z" fill="url(#n)"/><path d="m2211.49 1898 71.5 154c-11.56 93-61.5 133.16-115.35 148.58a326.9 326.9 0 0 0 -24-100.28c68.79-71.05 67.85-202.3 67.85-202.3z" fill="url(#o)"/><path d="m2143.63 2100.28a326.9 326.9 0 0 1 24 100.28c-143.63 55.74-181.63-52.36-181.63-52.36l26.55-4.69c59.93 6.32 101.81-13.01 131.08-43.23z" fill="url(#p)"/><path d="m2277.36 1707.89 34.52 126.89a24.69 24.69 0 0 0 33 16.43c14.81-5.92 33.59-14 49.76-22.72a33.28 33.28 0 0 0 11.73-47.81l-71.77-107z" fill="url(#q)"/><path d="m2201.85 1611.49c-.32 2.18 28.79 144.8 28.79 144.8l81.08-18.35-7.5-139.27s-97.11-23.67-102.37 12.82z" fill="url(#r)"/><path d="m2286 1629.7 9.69 73a9.66 9.66 0 0 1 0 2.79c-.82 5.73-5.07 25.21-24.74 19.64-17.85-5.06-34.21-9.4-45.51-6a10.27 10.27 0 0 0 -7.07 11.89c2.64 13 9.15 42.05 18.66 66.46a10.27 10.27 0 0 0 12.46 6.07c15.37-4.49 47.54-14.85 71.47-29.25a10.29 10.29 0 0 0 5-9.26c-.78-18.43-2.93-74.45-1.12-90.16 1.71-14.74 19.8-23.57 27.66-26.74a10.08 10.08 0 0 0 5.62-5.64c3.64-9.13 8.66-30.23-17.94-38.88a10.3 10.3 0 0 1 -6.52-13.32c3.94-11 5.6-27.71-15-36.93-20.91-9.37-36.53 1.78-45 10.84a10.28 10.28 0 0 1 -13.11 1.54c-2.41-1.52-5.51-2-9.26.32a10.13 10.13 0 0 1 -14.35-4.35c-5-10.28-15.22-21.29-35.69-17.78-36.34 6.22-40.45 46.48-30.87 70.07s48.6 14.61 68.17 2.72c14.88-9 34.18.43 42.57 5.5a10.19 10.19 0 0 1 4.88 7.47z" fill="url(#s)"/><path d="m2328.09 1701.56s-14.94-41.83.41-52.07 38.07-4.93 33.07 25.37c-6.23 37.69-33.48 26.7-33.48 26.7z" fill="url(#t)"/><path d="m1996.62 2168c-7.23 5.65-32-6.15-47.17-14.3a17.45 17.45 0 0 1 -8.43-20.61c3.65-11.51 9.73-26.36 17.22-28.23 12.43-3.13 68.18 39.84 38.38 63.14z" fill="url(#u)"/><path d="m3017.65 2448.16-1354.44-481.71-71.66 199.06 1354 495.16a63.14 63.14 0 0 0 76.26-27.6c15.83-27.18 30.95-69.65 31.87-133.26a54.1 54.1 0 0 0 -36.03-51.65z" fill="url(#v)"/><path d="m1244.19 1915 187.09 23c-.2 25.75-8.63 59.06-37.17 97.28l-156.25-103.07c-8.29-5.49-3.54-18.41 6.33-17.21z" fill="url(#w)"/><path d="m1663.21 1966.45c8.57 124.75-71.66 199.06-71.66 199.06l-197.44-130.25c28.54-38.22 37-71.53 37.17-97.28z" fill="url(#x)"/><path d="m3000.85 2509.2a4 4 0 0 0 1.32-7.73l-1295.83-458a4 4 0 0 0 -2.66 7.51l1295.84 458.02a3.88 3.88 0 0 0 1.33.2z" fill="url(#y)"/><path d="m2978.49 2587.3a4 4 0 0 0 1.33-7.74l-1295.82-457.96a4 4 0 1 0 -2.65 7.51l1295.83 458a4.14 4.14 0 0 0 1.31.19z" fill="url(#z)"/><path d="m2644.29 2298.3-83.61-6.82-36.22 33.38s8.57 11.85 35.35 5 63.48-8.48 63.48-8.48 37 16.67 37.42-14.52z" fill="url(#A)"/><circle cx="913.15" cy="1458.74" fill="url(#B)" r="131.11" transform="matrix(.3462808 -.93813091 .93813091 .3462808 -771.56 1810.16)"/><circle cx="913.15" cy="1458.74" fill="url(#C)" r="126.75" transform="matrix(.70710678 -.70710678 .70710678 .70710678 -764.03 1072.95)"/><path d="m799.6 1439.38a4.17 4.17 0 0 1 -2 .06 4.25 4.25 0 0 1 -3.3-5 120.75 120.75 0 0 1 87.07-92.71 122.94 122.94 0 0 1 21.62-3.83 4.24 4.24 0 0 1 .71 8.45 114.57 114.57 0 0 0 -20.11 3.56 112.34 112.34 0 0 0 -81 86.24 4.23 4.23 0 0 1 -2.99 3.23z" fill="#fff" opacity=".78"/><circle cx="916.54" cy="1460.68" fill="#fff" opacity=".78" r="107.28" transform="matrix(.70710678 -.70710678 .70710678 .70710678 -764.41 1075.91)"/><path d="m927.26 1540.41-3.06-11.27c-11.87 2.72-24.23 3.1-33.46 1.72a6.74 6.74 0 0 1 -5.69-6.72v-11.27a6.81 6.81 0 0 1 7.75-6.71 79.13 79.13 0 0 0 30.85-1.77c11.31-3.07 18.71-9.19 16.58-17.06-1.93-7.09-9.59-9.54-26.45-9.49-24.1 0-42.85-5.46-48.21-25.2-4.84-17.83 4.51-35 26.14-44.76l-3.06-11.26a6.81 6.81 0 0 1 4.79-8.35l6.62-1.79a6.8 6.8 0 0 1 8.34 4.78l2.74 10.12a86.7 86.7 0 0 1 26.28-2.3 6.77 6.77 0 0 1 6.22 6.78v10.41a6.79 6.79 0 0 1 -7.44 6.77 70.75 70.75 0 0 0 -25.78 2.2c-13.42 3.64-15.75 10.24-14.4 15.23 1.67 6.13 10.86 8.16 29.76 8.8 27 .71 40.11 8.26 45.16 26.85 4.62 17.06-3.87 35.83-27.36 46.32l3.42 12.61a6.8 6.8 0 0 1 -4.79 8.34l-6.62 1.8a6.8 6.8 0 0 1 -8.33-4.78z" fill="url(#D)"/><circle cx="1169.96" cy="1087.48" fill="url(#E)" r="213.97" transform="matrix(.70710678 -.70710678 .70710678 .70710678 -426.29 1145.8)"/><circle cx="1169.96" cy="1087.48" fill="url(#F)" r="206.86" transform="matrix(.70710678 -.70710678 .70710678 .70710678 -426.29 1145.8)"/><path d="m983.88 1053a4 4 0 0 1 -4.93-4.63 195.22 195.22 0 0 1 174.74-155.17 4 4 0 1 1 .67 7.91 188.34 188.34 0 0 0 -33.36 5.89 186.22 186.22 0 0 0 -134.28 143 4 4 0 0 1 -2.84 3z" fill="#fff" opacity=".78"/><circle cx="1175.49" cy="1090.65" fill="#fff" opacity=".78" r="175.08" transform="matrix(.70710678 -.70710678 .70710678 .70710678 -426.91 1150.64)"/><path d="m1193 1220.76-5-18.38c-19.37 4.43-39.56 5-54.62 2.81a11 11 0 0 1 -9.28-11v-18.39a11.1 11.1 0 0 1 12.65-11c14.87 2 32.56 1.93 50.34-2.89 18.46-5 30.53-15 27.05-27.83-3.14-11.58-15.64-15.57-43.16-15.5-39.32-.08-69.93-8.9-78.67-41.13-7.9-29.1 7.35-57.08 42.66-73l-5-18.38a11.1 11.1 0 0 1 7.8-13.62l10.8-2.93a11.1 11.1 0 0 1 13.62 7.81l4.48 16.5c17.93-4.1 31.66-4.57 42.88-3.75a11 11 0 0 1 10.15 11.06v17a11.06 11.06 0 0 1 -12.15 11 115.78 115.78 0 0 0 -42.07 3.6c-21.9 5.94-25.69 16.71-23.49 24.85 2.72 10 17.72 13.33 48.57 14.36 44 1.17 65.46 13.48 73.69 43.83 7.55 27.84-6.3 58.47-44.65 75.6l5.58 20.57a11.1 11.1 0 0 1 -7.81 13.62l-10.8 2.93a11.11 11.11 0 0 1 -13.57-7.74z" fill="url(#G)"/><circle cx="1437.51" cy="1510.09" fill="url(#H)" r="220.18" transform="matrix(.70710678 -.70710678 .70710678 .70710678 -646.76 1458.77)"/><circle cx="1437.51" cy="1510.09" fill="url(#I)" r="212.86" transform="matrix(.70710678 -.70710678 .70710678 .70710678 -646.76 1458.77)"/><path d="m1246 1474.55a4.06 4.06 0 0 1 -1.84 0 4 4 0 0 1 -3.09-4.69 199.63 199.63 0 0 1 144-153.29 201.69 201.69 0 0 1 35.76-6.32 4 4 0 1 1 .67 7.91 194.79 194.79 0 0 0 -34.34 6.08 191.7 191.7 0 0 0 -138.25 147.22 4 4 0 0 1 -2.91 3.09z" fill="#fff" opacity=".78"/><circle cx="1443.2" cy="1513.35" fill="#fff" opacity=".78" r="180.16" transform="matrix(.70710678 -.70710678 .70710678 .70710678 -647.4 1463.75)"/><path d="m1461.2 1647.24-5.13-18.92c-19.93 4.56-40.7 5.2-56.2 2.89a11.33 11.33 0 0 1 -9.55-11.28v-18.93a11.42 11.42 0 0 1 13-11.27c15.3 2 33.51 2 51.8-3 19-5.15 31.41-15.43 27.83-28.63-3.23-11.91-16.09-16-44.41-15.95-40.46-.08-72-9.16-81-42.32-8.12-29.94 7.57-58.74 43.9-75.16l-5.13-18.92a11.42 11.42 0 0 1 8-14l11.12-3a11.42 11.42 0 0 1 14 8l4.6 17c18.45-4.22 32.58-4.7 44.13-3.85a11.35 11.35 0 0 1 10.44 11.38v17.49a11.38 11.38 0 0 1 -12.49 11.36 118.83 118.83 0 0 0 -43.3 3.7c-22.53 6.12-26.44 17.2-24.17 25.57 2.8 10.3 18.24 13.71 50 14.78 45.25 1.2 67.35 13.87 75.82 45.1 7.78 28.65-6.48 60.17-45.94 77.78l5.74 21.17a11.43 11.43 0 0 1 -8 14l-11.12 3a11.42 11.42 0 0 1 -13.94-7.99z" fill="url(#J)"/><circle cx="1606.87" cy="1084.23" fill="url(#K)" r="176.09" transform="matrix(.9774896 -.2109836 .2109836 .9774896 -192.6 363.47)"/><circle cx="1606.87" cy="1084.23" fill="url(#L)" r="170.23" transform="matrix(.70710678 -.70710678 .70710678 .70710678 -296.02 1453.79)"/><path d="m1454 1056.92a4.34 4.34 0 0 1 -5.38-5.06 160.81 160.81 0 0 1 116-123.48 162.79 162.79 0 0 1 28.8-5.1 4.34 4.34 0 1 1 .74 8.64 155.88 155.88 0 0 0 -27.27 4.83 152.17 152.17 0 0 0 -109.73 116.85 4.34 4.34 0 0 1 -3.16 3.32z" fill="#fff" opacity=".78"/><circle cx="1611.42" cy="1086.84" fill="#fff" opacity=".78" r="144.08" transform="matrix(.70710678 -.70710678 .70710678 .70710678 -296.53 1457.78)"/><path d="m1625.82 1193.92-4.1-15.13c-15.94 3.64-32.55 4.15-45 2.31a9.07 9.07 0 0 1 -7.64-9v-15.13a9.15 9.15 0 0 1 10.41-9 106.22 106.22 0 0 0 41.43-2.38c15.19-4.12 25.12-12.35 22.26-22.9-2.58-9.53-12.87-12.82-35.52-12.75-32.36-.07-57.55-7.33-64.74-33.85-6.5-24 6-47 35.1-60.11l-4.1-15.13a9.13 9.13 0 0 1 6.42-11.21l8.89-2.41a9.14 9.14 0 0 1 11.21 6.43l3.68 13.58c14.75-3.37 26-3.76 35.29-3.09a9.09 9.09 0 0 1 8.35 9.11v14a9.1 9.1 0 0 1 -10 9.08 95.11 95.11 0 0 0 -34.63 3c-18 4.89-21.14 13.76-19.33 20.45 2.24 8.24 14.59 11 40 11.82 36.2 1 53.87 11.09 60.65 36.07 6.21 22.91-5.19 48.12-36.75 62.21l4.59 16.93a9.13 9.13 0 0 1 -6.42 11.21l-8.89 2.41a9.14 9.14 0 0 1 -11.16-6.52z" fill="url(#M)"/></svg>