<svg viewBox="0 0 271.54 206.64" xmlns="http://www.w3.org/2000/svg"><path d="m66.51 35.27v35.3l99.08 55.31a0 0 0 0 0 0 0v-35.3l-99.07-55.32a0 0 0 0 0 -.01.01z" fill="#5a99d2"/><path d="m165.6 126.59-.32-.18-99.4-55.48v-36l.63-.35.32.17 99.39 55.48v36zm-98.47-56.36 97.87 54.62v-33.93l-97.87-54.61z" fill="#1b0f34"/><path d="m206.87 67.5-41.26 23.07-39 21.7v35.29s0 0 0 0l39.13-21.76 41.14-23v-35.29a0 0 0 0 0 -.01-.01z" fill="#1b0f34"/><path d="m126.6 148.32-.6-.32v-36l.35-.17 38.75-21.63.16-.13 41.61-23.27.63.35v36.1l-.37.12-40.89 22.86-.17.13zm.61-35.66v33.92l37.9-21.08.31-.21 40.83-22.83v-33.92l-40 22.39-.31.21z" fill="#1b0f34"/><path d="m97.84 96.3v35.29l28.72 16s0 0 0 0v-35.27l-28.72-16s0-.03 0-.02z" fill="#5a99d2"/><path d="m126.58 148.32-.32-.17-29-16.2v-36l.66-.35.33.2 29 16.18v36zm-28.11-17.07 27.53 15.33v-33.92l-27.53-15.33z" fill="#1b0f34"/><path d="m95.24 165.11 31.38-17.46v-35.3l-31.39 17.65-5 27 5 8.16z" fill="#1b0f34"/><path d="m95 165.94-.33-.52-5.06-8.31v-.28l5-27.23.22-.15 31.73-17.81.64.36v36l-.36.18zm-4.11-9.11 4.54 7.46 30.55-17v-33.9l-30.21 17z" fill="#1b0f34"/><path d="m95.21 165.11-28.76-16.05v-7l28.76 16.05z" fill="#5a99d2"/><path d="m95.19 165.81-.3-.19-29.07-16.21v-7.69l.63-.36.32.18 29.08 16.22v7.7zm-28.12-17.1 27.53 15.35v-5.6l-27.53-15.36z" fill="#1b0f34"/><path d="m95.22 158.08-28.76-16.08 6.26-3.49 28.76 16s0 0 0 0l-6.26 3.5z" fill="#fff"/><path d="m95.23 158.72-.32-.12-29.08-16.22v-.7l.32-.19 6.6-3.68.33.21 29 16.2v.71l-.33.18zm-27.53-16.72 27.53 15.35 5-2.8-27.5-15.33z" fill="#1b0f34"/><path d="m101.49 154.55-28.76-16.05v-7l28.76 16.05z" fill="#5a99d2"/><path d="m101.51 155.24-.33-.17-29.08-16.22v-7.69l.63-.35.32.17 29.08 16.22v7.69zm-28.16-17.09 27.53 15.35v-5.6l-27.53-15.36z" fill="#1b0f34"/><path d="m114.06 126.4-28.76-16.05 6.26-3.49 28.76 16s0 0 0 0l-6.26 3.5z" fill="#fff"/><path d="m114.05 127.11-.31-.2-29.06-16.21v-.7l.32-.19 6.6-3.68.33.21 29 16.2v.71l-.32.18zm-27.51-16.76 27.53 15.35 5-2.8-27.5-15.36z" fill="#1b0f34"/><path d="m120.33 122.86-28.76-16v-7a0 0 0 0 1 0 0l28.76 16v7a0 0 0 0 1 0 0z" fill="#5a99d2"/><path d="m120.35 123.56-.33-.17-29.02-16.22v-7.69l.63-.36.32.18 29.05 16.22v7.69zm-28.15-17.09 27.52 15.35v-5.6l-27.52-15.36z" fill="#1b0f34"/><path d="m206.87 67.49-99.08-55.31-41.27 23.07s0 0 0 0l70.39 39.3-45.33 25.23 28.76 16 86.53-48.28z" fill="#fff"/><path d="m120.33 116.55-.33-.21-29-16.2v-.71l.32-.18 44.38-24.7-69.81-38.94v-.7l.32-.19 41.55-23.23.31.15 99.42 55.49v.72l-.32.18zm-27.51-16.76 27.53 15.35 85.28-47.65-97.85-54.62-40 22.39 70.4 39.3z" fill="#1b0f34"/><path d="m101.5 147.52-28.76-16.05 6.26-3.47 28.76 16s0 0 0 0l-6.26 3.5z" fill="#fff"/><path d="m101.49 148.23-.31-.2-29.07-16.21v-.7l.32-.19 6.6-3.68.33.21 29 16.2v.71l-.33.18zm-27.49-16.76 27.53 15.35 5-2.8-27.53-15.36z" fill="#1b0f34"/><path d="m107.77 144-28.77-16.06v-7a0 0 0 0 1 0 0l28.78 16.06v7z" fill="#5a99d2"/><path d="m107.85 144.67-.39-.16-29.08-16.22v-7.69l.63-.36.32.18 29.08 16.22v7.66zm-28.22-17.08 27.53 15.41v-5.61l-27.53-15.39z" fill="#1b0f34"/><path d="m107.78 137-28.78-16.09 6.26-3.49 28.76 16s0 0 0 0l-6.26 3.5z" fill="#fff"/><path d="m107.77 137.67-.31-.2-29.06-16.21v-.7l.32-.19 6.6-3.68.33.21 29 16.19v.68l-.31.2zm-27.51-16.76 27.53 15.35 5-2.8-27.5-15.36z" fill="#1b0f34"/><path d="m114.05 133.43-28.76-16.05v-7a0 0 0 0 1 0 0l28.76 16v7z" fill="#5a99d2"/><path d="m114 134.13-.3-.19-29.03-16.21v-7.73l.63-.36.32.18 29.08 16.22v7.7zm-28.08-17.13 27.52 15.35v-5.6l-27.52-15.33z" fill="#1b0f34"/><path d="m231.31 175.14v21.18l39.61-22.32v-21.19l-39.59 22.34z" fill="#1b0f34"/><path d="m231.33 197-.7-.33.05-.38v-21.29l.11-.15v-.06l.17-.14 39.9-22.51.64.35v21.89zm.6-21.54v19.79l38.36-21.64v-19.76z" fill="#1b0f34"/><path d="m170.43 140.85v20.9l60.86 34.58v-21.19z" fill="#5a99d2"/><path d="m231.3 197-.33-.17-61.17-34.73v-22.31l62 34.94v.08l.08.08v21.78zm-60.24-35.61 59.62 33.87v-19.77l-59.62-33.59z" fill="#1b0f34"/><path d="m110.33 174.26v21.18l60.09-33.44v-21.15l-60.08 33.41z" fill="#1b0f34"/><path d="m110.34 196.15-.63-.35v-21.91l.35-.18 60.37-33.57.63.35v22l-.37.13zm.62-21.54v19.8l58.84-32.73v-19.8z" fill="#1b0f34"/><path d="m81.59 158.24v35.3l28.73 1.91v-21.19l-28.72-16s-.01-.03-.01-.02z" fill="#5a99d2"/><path d="m110.32 196.06-29.32-1.95v-36.23l.67-.35.32.2 29 16.17v22.15zm-28.11-3.06 27.49 1.83v-20.23l-27.49-15.33z" fill="#1b0f34"/><path d="m91.55 205.93 18.82-10.46v-21.18l-21.37 5.06a0 0 0 0 0 0 0l4.26 10.75-1.68 15.81s-.04.02-.03.02z" fill="#1b0f34"/><path d="m91.52 206.64-.65-.41v-.38l1.66-15.66-4.27-10.89.31-.5.29-.05 21.63-5.12.5.35v21.86l-.35.17zm-1.73-26.86 4 10.33-1.56 14.72 17.46-9.71v-20.07z" fill="#1b0f34"/><path d="m97.81 188.34-28.81-16.04 6.27-3.49 28.76 16-6.26 3.49z" fill="#fff"/><path d="m97.79 189.05-.31-.19-29-16.2v-.71l.34-.19 6.6-3.68.33.21 29 16.2v.7l-.32.19zm-27.51-16.76 27.53 15.36 5-2.81-27.5-15.35z" fill="#1b0f34"/><path d="m104.08 184.81-28.76-16v-7l28.77 16v7z" fill="#5a99d2"/><path d="m104.09 185.51-.33-.17-29.07-16.22v-7.67l.57-.37.32.13 29.14 16.25v7.69zm-28.15-17.09 27.52 15.35v-5.61l-27.52-15.35z" fill="#1b0f34"/><path d="m181.19 102.32-105.87 59.4 28.77 16 66.27-36.92 60.93 34.28 39.61-22.28s0 0 0 0z" fill="#fff"/><path d="m104.26 178.39h-.33l-.16-.08-29.07-16.22v-.7l.31-.19 106.18-59.58 90.34 50.81v.71l-.33.18-39.73 22.42h-.34l-.15-.08-60.62-34.1zm-27.7-16.66 27.53 15.36 66.29-36.93 60.93 34.28 38.36-21.65-88.48-49.79z" fill="#1b0f34"/><path d="m91.52 205.93-28.77-16v-7a0 0 0 0 1 0 0l28.77 16v7s0 .01 0 0z" fill="#5a99d2"/><path d="m91.53 206.63-.33-.17-29.07-16.22v-7.69l.63-.36.33.17 29.07 16.22v7.69zm-28.15-17.09 27.52 15.35v-5.61l-27.52-15.35z" fill="#1b0f34"/><path d="m91.53 198.9-28.77-16 6.24-3.55 28.77 16-6.26 3.49z" fill="#fff"/><path d="m91.56 199.59-.35-.16-29.07-16.22v-.71l.32-.18 6.6-3.68.33.21 29 16.19v.69l-.29.18zm-27.56-16.74 27.53 15.36 5-2.81-27.53-15.35z" fill="#1b0f34"/><path d="m97.8 195.37-28.8-16.04v-7l28.77 16v7z" fill="#5a99d2"/><path d="m97.77 196.08-.3-.19-29.06-16.21v-7.68l.63-.36.33.17 29.06 16.19v7.71zm-28.11-17.08 27.52 15.35v-5.61l-27.52-15.37z" fill="#1b0f34"/><path d="m35.37 156.93a7.8 7.8 0 0 0 -4.29-2.49h-.08a1 1 0 0 0 -.69.13l-14.58 8.13a3.06 3.06 0 0 0 -1.33 2.47v10.76a1.44 1.44 0 0 0 .21.81 8.3 8.3 0 0 0 4.37 2.6.14.14 0 0 0 .15-.06l3.6-6.28 7.57-4.23a3.05 3.05 0 0 0 1.34-2.47v-4.91l2.67-2.56z" fill="#fff"/><path d="m19 179.83h-.16a8.71 8.71 0 0 1 -4.6-2.83l-.13-.18a1.92 1.92 0 0 1 -.21-.92v-10.75a3.53 3.53 0 0 1 1.58-2.87l14.58-8.13a1.52 1.52 0 0 1 .93-.21l.24.07a8.12 8.12 0 0 1 4.5 2.65l.18.24-1.29 2.24-2.53 2.42v4.72a3.54 3.54 0 0 1 -1.58 2.88l-7.46 4.16-3.51 6.2a.62.62 0 0 1 -.54.31zm-4-3.34a7.68 7.68 0 0 0 3.84 2.34l3.5-6.19 7.69-4.29a2.59 2.59 0 0 0 1.1-2.07v-5.11l2.76-2.65.87-1.53a7.74 7.74 0 0 0 -3.76-2.09h-.09a.56.56 0 0 0 -.34.08l-14.57 8.1a2.63 2.63 0 0 0 -1.09 2.07v10.76a1 1 0 0 0 .13.55z" fill="#1b0f34"/><path d="m22.73 173 4.56-2.55-12.66-6.45a3 3 0 0 0 -.24 1.12v10.76a1.44 1.44 0 0 0 .21.81 8.3 8.3 0 0 0 4.37 2.6.14.14 0 0 0 .15-.06z" fill="#5a99d2"/><path d="m19 179.83h-.16a8.71 8.71 0 0 1 -4.6-2.83l-.13-.18a1.92 1.92 0 0 1 -.21-.92v-10.75a3.5 3.5 0 0 1 .28-1.3l.2-.48.47.24 12.66 6.39.78.39-5.21 2.91-3.51 6.2a.62.62 0 0 1 -.57.33zm-4-3.34a7.68 7.68 0 0 0 3.84 2.34l3.5-6.19 3.92-2.19-11.34-5.75a2.38 2.38 0 0 0 -.05.45v10.76a1 1 0 0 0 .13.55z" fill="#1b0f34"/><path d="m34.39 171.12-14.58 8.14c-.74.41-1.34 0-1.34-1v-10.74a3.07 3.07 0 0 1 1.34-2.47l14.58-8.13c.73-.41 1.33 0 1.33 1v10.76a3.07 3.07 0 0 1 -1.33 2.44z" fill="#1b0f34"/><path d="m19.27 179.88a1.19 1.19 0 0 1 -.58-.15 1.57 1.57 0 0 1 -.7-1.45v-10.76a3.5 3.5 0 0 1 1.58-2.87l14.57-8.13a1.36 1.36 0 0 1 1.36-.07 1.57 1.57 0 0 1 .7 1.45v10.76a3.55 3.55 0 0 1 -1.57 2.87l-14.58 8.13a1.68 1.68 0 0 1 -.78.22zm15.65-22.65a.66.66 0 0 0 -.29.09l-14.58 8.13a2.61 2.61 0 0 0 -1.1 2.07v10.76c0 .38.12.58.22.64s.32 0 .4-.07l14.57-8.13a2.59 2.59 0 0 0 1.1-2.06v-10.76c0-.39-.12-.59-.22-.64a.19.19 0 0 0 -.1-.03z" fill="#1b0f34"/><path d="m33.18 157.79-4.16-2.2.46-.82 4.17 2.2z" fill="#1b0f34"/><path d="m18.24 177.45-4.17-2.2.47-.82 4.16 2.2z" fill="#1b0f34"/><path d="m22.26 132.59s-2.69 8.21-2.72 14.54a7.06 7.06 0 0 0 .27 1.88c.74 2.71 2.27 11.59 2.27 11.59l6.77-7.08-3.32-12.43z" fill="#5a99d2"/><path d="m21.76 161.62-.16-.94c0-.09-1.53-8.89-2.26-11.55a7.76 7.76 0 0 1 -.28-2c0-6.33 2.63-14.34 2.74-14.68l.42-1.29 3.78 9.76 3.4 12.73zm.55-27.55c-.74 2.57-2.26 8.38-2.29 13.06a6.36 6.36 0 0 0 .26 1.76c.6 2.21 1.7 8.34 2.11 10.7l5.93-6.2-3.26-12.19z" fill="#1b0f34"/><path d="m31.32 201a8.24 8.24 0 0 0 -.65 3.56 1.15 1.15 0 0 0 .85 1l1.61.47a1.42 1.42 0 0 0 1.39-.36l.64-.64a2.36 2.36 0 0 1 1.29-.66 2.66 2.66 0 0 0 1-.41l3.07-2.16a.91.91 0 0 0 .23-1.29 2.36 2.36 0 0 0 -1.4-.83 14.55 14.55 0 0 0 -4.75.24z" fill="#1b0f34"/><path d="m33.53 206.54a2 2 0 0 1 -.54-.08l-1.6-.46a1.63 1.63 0 0 1 -1.2-1.45 8.58 8.58 0 0 1 .69-3.77l.09-.18 3.46-1.13a15 15 0 0 1 5-.26 2.91 2.91 0 0 1 1.68 1 1.27 1.27 0 0 1 .25 1 1.45 1.45 0 0 1 -.59.94l-3.07 2.16a2.88 2.88 0 0 1 -1.17.48 2 2 0 0 0 -1 .53l-.64.65a1.93 1.93 0 0 1 -1.36.57zm-1.85-5.19a8 8 0 0 0 -.52 3.16.67.67 0 0 0 .5.6l1.61.46a.93.93 0 0 0 .9-.23l.65-.64a2.83 2.83 0 0 1 1.55-.8 1.86 1.86 0 0 0 .78-.33l3.06-2.15a.52.52 0 0 0 .21-.33.42.42 0 0 0 -.07-.31 2 2 0 0 0 -1.14-.66 14 14 0 0 0 -4.53.25z" fill="#1b0f34"/><path d="m22 195.64s-.74 3.26-1.06 4.25a2 2 0 0 0 .12 1.45.93.93 0 0 0 .65.52l1.91.42a1.17 1.17 0 0 0 1.26-.51 11.06 11.06 0 0 1 1.89-2.12l1.95-1.59a1.78 1.78 0 0 0 .44-1.89c-.21-.55-1.3-.8-2.34-.9a16.93 16.93 0 0 0 -2-.06z" fill="#1b0f34"/><path d="m23.88 202.78a2.21 2.21 0 0 1 -.37 0l-1.92-.43a1.39 1.39 0 0 1 -1-.78 2.43 2.43 0 0 1 -.14-1.77c.31-1 1.05-4.18 1.05-4.22l.07-.31 3.11-.48a14.85 14.85 0 0 1 2.16.06c1.62.16 2.5.54 2.75 1.2a2.22 2.22 0 0 1 -.59 2.35l-2 1.61a9.85 9.85 0 0 0 -1.8 2 1.66 1.66 0 0 1 -1.32.77zm-1.49-6.73c-.19.85-.73 3.15-1 4a1.52 1.52 0 0 0 .1 1.12.47.47 0 0 0 .32.26l1.91.42a.7.7 0 0 0 .74-.3 10.76 10.76 0 0 1 2-2.23l1.95-1.6a1.33 1.33 0 0 0 .3-1.37c-.06-.15-.53-.46-1.94-.59a17 17 0 0 0 -2-.07z" fill="#1b0f34"/><path d="m40 161.36c-1.49-1.3-5.12.95-7.61 2.81-.67-4.38-10-.76-10-.76s1 11.75.63 14.87-2 5.13-1.88 12c.07 5.43 0 7.54 0 8.18a.45.45 0 0 0 .21.39 3.34 3.34 0 0 0 3.67 0 .42.42 0 0 0 .18-.3c.26-1.55 1.8-11.16 2.8-13.41a14.4 14.4 0 0 0 1-5 9.09 9.09 0 0 1 .45-2.53 20.81 20.81 0 0 1 .69-2.81 3.9 3.9 0 0 1 .34 1.67c.12 1.88.25 3.49.35 4.25.33 2.54-.66 5-1 8.18-.28 2.82.73 11 1 12.94a.91.91 0 0 0 .48.7 3.62 3.62 0 0 0 3.54.07 1 1 0 0 0 .52-.85c0-2.06.11-9.78.81-12.25a33.71 33.71 0 0 0 1-6.33 131 131 0 0 0 2.82-17.28c.1-1.39.56-4.07 0-4.54z" fill="#fff"/><path d="m33.18 203.48a4.47 4.47 0 0 1 -2.1-.56 1.41 1.41 0 0 1 -.72-1c-.3-2.35-1.26-10.22-1-13a34.25 34.25 0 0 1 .55-3.43 14.3 14.3 0 0 0 .42-4.65c-.08-.62-.18-1.81-.3-3.56-.05.21-.09.39-.14.53a8.84 8.84 0 0 0 -.43 2.41 14.81 14.81 0 0 1 -1 5.19c-.94 2.12-2.48 11.49-2.73 13.24a.92.92 0 0 1 -.37.62 3.85 3.85 0 0 1 -4.21 0 .87.87 0 0 1 -.44-.79c0-.66.06-2.78 0-8.16a27.58 27.58 0 0 1 1.23-9.1 17.48 17.48 0 0 0 .66-2.94c.35-3-.62-14.67-.63-14.78v-.34l.33-.13c.26-.11 6.41-2.47 9.23-.91a2.65 2.65 0 0 1 1.19 1.31c3.79-2.71 6.36-3.51 7.67-2.37.55.49.46 1.76.24 3.8 0 .41-.08.8-.1 1.12a132.94 132.94 0 0 1 -2.84 17.32 33.37 33.37 0 0 1 -1 6.35c-.54 1.91-.77 7.52-.79 12.13a1.44 1.44 0 0 1 -.78 1.25 3.9 3.9 0 0 1 -1.94.45zm-2.85-29.34.23.4a3.94 3.94 0 0 1 .39 1.71v.16c.14 2.12.26 3.54.35 4.22a15.16 15.16 0 0 1 -.44 4.94c-.2 1.06-.42 2.14-.53 3.35-.28 2.8.77 11.18 1 12.83a.44.44 0 0 0 .24.36 3.14 3.14 0 0 0 3.06.06.51.51 0 0 0 .28-.44c0-2.27.12-9.86.83-12.37a33.79 33.79 0 0 0 1-6.24 134.18 134.18 0 0 0 2.82-17.25c0-.33.07-.73.11-1.16a9.35 9.35 0 0 0 .06-3c-.92-.79-3.54.27-7 2.84l-.65.48-.12-.78a1.79 1.79 0 0 0 -.92-1.36c-1.88-1-6.18.16-8.06.84.17 2 .93 11.75.6 14.62a18.36 18.36 0 0 1 -.69 3.08 26.54 26.54 0 0 0 -1.19 8.84c.07 5.4 0 7.53 0 8.2a2.9 2.9 0 0 0 3.12 0c.14-1.06 1.74-11.1 2.78-13.47a14.31 14.31 0 0 0 .95-4.87 9.46 9.46 0 0 1 .47-2.65 12.87 12.87 0 0 0 .28-1.29c.24-1.26.32-1.63.64-1.79z" fill="#1b0f34"/><path d="m44.42 127.28-2.59 9.24a.66.66 0 0 0 .37.78l3.8 1.7 3-9.63-4.06-2.25a.3.3 0 0 0 -.52.16z" fill="#5a99d2"/><path d="m46.25 139.65-4.25-1.93a1.12 1.12 0 0 1 -.64-1.32l2.64-9.24a.75.75 0 0 1 .45-.5.83.83 0 0 1 .69 0l4.39 2.44zm-1.43-12-2.53 9a.2.2 0 0 0 .12.24l3.23 1.46 2.7-8.76z" fill="#1b0f34"/><path d="m26.41 130.4a2.63 2.63 0 0 0 -3.69 1c-1.41 2.41-.94 8.4-.33 13.87.54 4.9-1.3 14.66-1.69 16.64a.48.48 0 0 0 .27.52l2.83 1.37a25 25 0 0 0 10.51 2.3 8.77 8.77 0 0 0 3.71-.82l.25-.11a6.34 6.34 0 0 0 3.12-3.17s-3.57-7.42-3.57-12.43 1.73-14.14-1.56-15.89a8.23 8.23 0 0 0 -6.33-.58z" fill="#1b0f34"/><path d="m34.31 166.62a25.64 25.64 0 0 1 -10.71-2.35l-2.84-1.38a.93.93 0 0 1 -.53-1c.37-1.91 2.21-11.66 1.68-16.5-.66-5.88-1.06-11.67.39-14.15a3.21 3.21 0 0 1 2-1.58 3.45 3.45 0 0 1 2.39.36h.05l3.26 2.6a8.76 8.76 0 0 1 6.46.7c2.76 1.47 2.37 7.12 2 12.11-.11 1.54-.21 3-.21 4.19 0 4.85 3.49 12.16 3.53 12.24l.09.18-.09.19a6.78 6.78 0 0 1 -3.35 3.41l-.25.11a9.3 9.3 0 0 1 -3.87.87zm-9.31-36.13a1.85 1.85 0 0 0 -.46 0 2.31 2.31 0 0 0 -1.36 1.14c-1.32 2.26-.88 8.14-.27 13.59.55 5-1.31 14.85-1.69 16.77l2.84 1.4a24.76 24.76 0 0 0 10.29 2.25 8.28 8.28 0 0 0 3.5-.78l.25-.11a5.84 5.84 0 0 0 2.8-2.75c-.57-1.23-3.52-7.77-3.52-12.43 0-1.23.1-2.7.21-4.25.31-4.48.7-10.05-1.52-11.23a7.75 7.75 0 0 0 -5.92-.56l-.26.1-3.72-2.9a2.8 2.8 0 0 0 -1.17-.24z" fill="#1b0f34"/><path d="m27.4 130.76c-.11.18 0 .23.2.37.68.63 2.75 2.08 6.36 1.06l.12-2.52a.08.08 0 0 1 .05-.08l1.9-.66s1.6-2.08 1.18-6.53l-.48-1.89-4.12-.27-3.21 3.24-.55 3.34a13 13 0 0 1 -1.45 3.94z" fill="#fff"/><path d="m31.56 133a6.28 6.28 0 0 1 -4.3-1.54c-.49-.39-.41-.73-.27-.95a12.52 12.52 0 0 0 1.38-3.78l.58-3.48 3.47-3.5 4.69.31.57 2.22c.44 4.64-1.19 6.83-1.26 6.92l-.09.12-1.78.61-.12 2.61-.33.09a9.22 9.22 0 0 1 -2.54.37zm-3.62-2.21c.64.59 2.43 1.81 5.56 1l.09-2.18a.55.55 0 0 1 .39-.5l1.73-.6c.3-.47 1.37-2.47 1-6.11l-.37-1.4-3.54-.23-2.95 3-.52 3.2a14.25 14.25 0 0 1 -1.39 3.83z" fill="#1b0f34"/><path d="m28.06 130.9a1.43 1.43 0 0 0 -1.63-.34 1.65 1.65 0 0 0 -.72.37c-1.06 1.15 2.7 4.56 7.49 3.26a12.46 12.46 0 0 1 2.28-.37l.76-.06s0 0 0 0a3.51 3.51 0 0 0 -1.43-1.6 1.06 1.06 0 0 0 -1.16 0 4.5 4.5 0 0 1 -2.74.08 4.94 4.94 0 0 1 -2.85-1.34z" fill="#1b0f34"/><path d="m31.06 135a7 7 0 0 1 -5.67-2.53 1.4 1.4 0 0 1 0-1.8 1.49 1.49 0 0 1 .72-.42l.15-.06a1.94 1.94 0 0 1 2.2.45 4.46 4.46 0 0 0 2.54 1.12c1.62.27 2.21.11 2.41 0a1.56 1.56 0 0 1 1.7 0 3.94 3.94 0 0 1 1.6 1.84l.07.22-.27.39-1 .08a12 12 0 0 0 -2.18.36 8.42 8.42 0 0 1 -2.27.35zm-4.07-4a.77.77 0 0 0 -.34.07 1.28 1.28 0 0 1 -.27.11.69.69 0 0 0 -.31.16c-.13.15 0 .45.14.68.7 1.1 3.44 2.75 6.86 1.83a13 13 0 0 1 2.37-.4h.05a4.58 4.58 0 0 0 -.94-.85.6.6 0 0 0 -.62 0 4.81 4.81 0 0 1 -3.08.15 5.47 5.47 0 0 1 -3.14-1.46 1 1 0 0 0 -.71-.39z" fill="#1b0f34"/><path d="m27.46 164.77c-2-2.69-1.35-8-1.32-8.17l.72.09c0 .05-.66 5.2 1.19 7.67z" fill="#5a99d2"/><path d="m19.87 174.32h.72v2.29h-.72z" fill="#5a99d2"/><path d="m19.87 167.77h.72v5.76h-.72z" fill="#5a99d2"/><path d="m49.49 129.2a1.75 1.75 0 0 0 -2.25-.8l.59.32.52 1.3-1.21 1.35-.47.59-.56-.11s-.23-1-.81-1.18-.73.7-.73.7v.67a8.78 8.78 0 0 0 .75 2.84l3 .86a17.27 17.27 0 0 1 1-2.77 4.71 4.71 0 0 0 .17-3.77z" fill="#fff"/><path d="m48.61 136.33-3.61-1.06-.09-.2a9.2 9.2 0 0 1 -.79-3v-.73a1.5 1.5 0 0 1 .61-1.06.9.9 0 0 1 .77 0 2 2 0 0 1 1 1.19l.27-.34 1-1.16-.36-.88-1.17-.64.76-.45a2 2 0 0 1 1.48-.14 2.34 2.34 0 0 1 1.44 1.14c.72 1.29.17 3.38-.29 4.21a16.15 16.15 0 0 0 -.9 2.67zm-3-1.83 2.26.66a14 14 0 0 1 .86-2.4 4.39 4.39 0 0 0 .29-3.33 1.4 1.4 0 0 0 -.69-.63l.53 1.31-1.41 1.56-.63.81-1.16-.24-.07-.29c-.08-.3-.29-.76-.51-.84 0 0-.06.21-.08.33v.61a8.43 8.43 0 0 0 .66 2.45z" fill="#1b0f34"/><path d="m34.85 137.9a30.19 30.19 0 0 0 5.44 12.19 13.39 13.39 0 0 0 3 2.82 1 1 0 0 0 1.41-.25l.34-.31a5.87 5.87 0 0 0 1.47-2.13 5.84 5.84 0 0 0 .39-1.65l1.5-11.51a1 1 0 0 0 -.7-1l-1.94-.62a.44.44 0 0 0 -.59.35c-.16 1.32-.6 3.44-1.17 5.84a38.35 38.35 0 0 0 -.54 6.73s-2.52-11.49-5.21-13.55-3.94.82-3.4 3.09z" fill="#1b0f34"/><path d="m43.82 153.57a1.5 1.5 0 0 1 -.87-.28 14 14 0 0 1 -3.05-2.92 30.51 30.51 0 0 1 -5.52-12.37c-.34-1.45-.05-3.37 1.14-4.1.59-.35 1.57-.55 3 .53 1.85 1.42 3.57 6.82 4.54 10.44a22.53 22.53 0 0 1 .44-3.35c.61-2.57 1-4.57 1.16-5.79a.87.87 0 0 1 .43-.65 1 1 0 0 1 .79-.1l1.94.63a1.44 1.44 0 0 1 1 1.5l-1.5 11.53a6.11 6.11 0 0 1 -.42 1.76 6.32 6.32 0 0 1 -1.58 2.29l-.32.31a1.44 1.44 0 0 1 -.93.58 1.24 1.24 0 0 1 -.25-.01zm-7.29-19a1 1 0 0 0 -.49.13c-.7.43-1 1.82-.72 3.12a30.09 30.09 0 0 0 5.35 12 13.19 13.19 0 0 0 2.84 2.72.52.52 0 0 0 .34.09l-.92-4.2c-.69-3.15-2.95-11.67-5-13.28a2.49 2.49 0 0 0 -1.4-.6zm9 1.31a47.9 47.9 0 0 1 -1.13 5.85 38.36 38.36 0 0 0 -.53 6.63v4.29a.53.53 0 0 0 .34-.22l.07-.09.34-.31a5.39 5.39 0 0 0 1.35-2 5 5 0 0 0 .36-1.52l1.54-11.51a.52.52 0 0 0 -.37-.53z" fill="#1b0f34"/><path d="m28 118.57a6.51 6.51 0 0 0 -2 3 5.43 5.43 0 0 0 .64 4.8 4.41 4.41 0 0 0 5.44 1.9.17.17 0 0 0 .11-.2 5.17 5.17 0 0 1 .77-3.72 3 3 0 0 1 2.58-1.08.27.27 0 0 0 .14 0c.38-.35 2.35-2.29 1-4.48a6.87 6.87 0 0 0 -7.94-2.48.09.09 0 0 0 0 .17c.32.14.8.47.27 1.14a8.73 8.73 0 0 1 -1.01.95z" fill="#1b0f34"/><path d="m30.45 129a4.94 4.94 0 0 1 -4.19-2.41 5.85 5.85 0 0 1 -.7-5.2 7 7 0 0 1 2.15-3.18 8.32 8.32 0 0 0 .94-1c.12-.17.14-.26.13-.28s-.06-.09-.21-.15a.56.56 0 0 1 -.35-.53.57.57 0 0 1 .36-.51 7.41 7.41 0 0 1 8.54 2.68c1.53 2.49-.64 4.65-1.09 5.06a.72.72 0 0 1 -.51.17 2.52 2.52 0 0 0 -2.16.91 4.85 4.85 0 0 0 -.67 3.37.65.65 0 0 1 -.41.7 5.4 5.4 0 0 1 -1.83.37zm-2.09-10.1a6.08 6.08 0 0 0 -1.88 2.76 5 5 0 0 0 .58 4.42 3.93 3.93 0 0 0 4.65 1.8 5.36 5.36 0 0 1 .9-3.86 3.49 3.49 0 0 1 2.84-1.26c.49-.47 1.92-2.07.84-3.83a6.35 6.35 0 0 0 -6.71-2.48 1.11 1.11 0 0 1 .14.29 1.19 1.19 0 0 1 -.31 1.07 8.07 8.07 0 0 1 -1.05 1.09z" fill="#1b0f34"/><path d="m32.76 119.08c-.55-1.13-2.53-1.1-3.35-1l-.06-.7c1.21-.1 3.35 0 4.06 1.43z" fill="#5a99d2"/><path d="m31.06 127.12a2.4 2.4 0 0 1 -2.56-1.83l.71-.12c0 .16.36 1.55 2.51 1.2l.12.69a5.54 5.54 0 0 1 -.78.06z" fill="#5a99d2"/><path d="m30.78 134.85a6.58 6.58 0 0 1 -4.16-1.4l-.46-.32a1.92 1.92 0 0 1 -.48-2.64l.61.37a1.26 1.26 0 0 0 .3 1.71l.45.31a6.06 6.06 0 0 0 4.78 1.21 17.9 17.9 0 0 0 3.9-.7l.28.61a17.19 17.19 0 0 1 -4.1.76c-.4.07-.77.09-1.12.09z" fill="#5a99d2"/><path d="m37.63 146.62c-.12-.24-3-5.73-3.14-8.7a10.24 10.24 0 0 1 .1-2.27l.71.12a9.46 9.46 0 0 0 -.09 2.11c.13 2.83 3 8.36 3.07 8.42z" fill="#5a99d2"/><path d="m43 147.53a11.06 11.06 0 0 0 -.28-2.06l.7-.17a11.61 11.61 0 0 1 .31 2.2z" fill="#5a99d2"/><path d="m30 175.79c-.66-2.42-1.33-6.33-1.33-6.37l.95-.15s.66 3.91 1.31 6.29z" fill="#1b0f34"/><path d="m27.12 155.14-.71-.11a8.15 8.15 0 0 0 0-2.3l.71-.11a8.53 8.53 0 0 1 0 2.52z" fill="#5a99d2"/><path d="m47.72 138.43-2.59-.72.2-.67 2.6.72z" fill="#5a99d2"/><path d="m39.61 164.1c-.29-2.47-1.67-2.77-1.73-2.79l.14-.68c.08 0 1.95.38 2.31 3.4z" fill="#5a99d2"/><path d="m27.85 197c-.41-.91-2.13-.74-2.14-.74l-.09-.69c.09 0 2.27-.25 2.89 1.15z" fill="#5a99d2"/><path d="m39.1 201.5a2.35 2.35 0 0 0 -2.32-1.21l-.08-.7a3 3 0 0 1 3.07 1.65z" fill="#5a99d2"/><path d="m37.84 172.2a3 3 0 0 1 -1.63-.46c-1.73-1.1-1.85-3.76-1.86-3.88h1s.11 2.3 1.42 3.14a2.76 2.76 0 0 0 2.48 0l.35.87a5 5 0 0 1 -1.76.33z" fill="#1b0f34"/><path d="m24.93 183a4 4 0 0 1 -2.74-2.54l.93-.25a3 3 0 0 0 2.07 1.89z" fill="#1b0f34"/><path d="m33.73 186.49c-3.4-.29-3.48-2.65-3.48-2.67h1c0 .07.1 1.56 2.61 1.77z" fill="#1b0f34"/><path d="m11.22 106 4.45-2.78a.07.07 0 0 0 0-.11l-5.67-6.64a.08.08 0 0 0 -.14 0l-.9 4h.04l-.22 2.77s0 0 0 .05l2.34 2.71a.08.08 0 0 0 .1 0z" fill="#1b0f34"/><path d="m11.18 106.47a.59.59 0 0 1 -.43-.19l-2.45-2.75v-.26l.21-2.76 1-4.39.33-.12a.57.57 0 0 1 .57.18l5.79 6.82v.26a.54.54 0 0 1 -.25.37l-4.46 2.79a.64.64 0 0 1 -.31.05zm-1.91-3.28 2 2.23 3.73-2.36-4.84-5.67-.72 3.24z" fill="#1b0f34"/><path d="m28.09 86-21.26-11.9a1.55 1.55 0 0 0 -1.38-.19l-4.16 2.4a.11.11 0 0 0 0 .18l5 5.07a.11.11 0 0 1 0 .08v8.36a4.63 4.63 0 0 0 2.18 3.64l3.17 1.77.22.3a11.23 11.23 0 0 0 4.93 7.16c.15.1.25 0 .15-.23-.51-.94-1.47-3-1.18-4.59l.35-.14 6.56 3.65.05.06 2.74 7.06a.12.12 0 0 0 .16.06l4.11-2.4a1.43 1.43 0 0 0 .57-1.28v-15.46a4.64 4.64 0 0 0 -2.21-3.6z" fill="#fff"/><path d="m25.64 109.27-.31-.07a.63.63 0 0 1 -.36-.34l-2.69-6.94-6.12-3.41a8.5 8.5 0 0 0 1.18 3.93.64.64 0 0 1 -.11.81.61.61 0 0 1 -.74 0 11.69 11.69 0 0 1 -5.12-7.35l-.09-.14-3.08-1.69a5.07 5.07 0 0 1 -2.42-4v-8.29l-4.87-5a.58.58 0 0 1 -.16-.48.59.59 0 0 1 .3-.42l4.15-2.4a2.09 2.09 0 0 1 1.87.18l21.26 11.89a5.06 5.06 0 0 1 2.42 4v15.48a1.91 1.91 0 0 1 -.78 1.67zm-9.53-11.86 6.89 3.85.11.22 2.58 6.65 3.77-2.13a1.07 1.07 0 0 0 .33-.89v-15.51a4.17 4.17 0 0 0 -1.94-3.24l-21.26-11.86a1.11 1.11 0 0 0 -1-.16l-3.7 2.15 4.78 4.88v.27 8.36a4.19 4.19 0 0 0 1.94 3.24l3.39 1.92.3.49a10.83 10.83 0 0 0 3.59 6 6.82 6.82 0 0 1 -.63-3.65v-.25z" fill="#1b0f34"/><path d="m23.92 88.44-21.32-11.89c-1.17-.65-2.12-.12-2.12 1.19v15.54a4.5 4.5 0 0 0 2.12 3.55l3.28 1.83a.36.36 0 0 1 .17.24 11.21 11.21 0 0 0 4.95 7.19c.15.1.25 0 .15-.23-.53-1-1.54-3.13-1.14-4.76 0-.08.09-.1.17 0l13.76 7.67c1.17.65 2.12.12 2.12-1.19v-15.58a4.5 4.5 0 0 0 -2.14-3.56z" fill="#5a99d2"/><path d="m24.86 109.46a2.42 2.42 0 0 1 -1.18-.34l-13.29-7.41a8.34 8.34 0 0 0 1.17 3.93.64.64 0 0 1 -.1.81.63.63 0 0 1 -.75 0 11.78 11.78 0 0 1 -5.13-7.45l-3.22-1.8a5 5 0 0 1 -2.36-4v-15.46a1.86 1.86 0 0 1 .86-1.74 2 2 0 0 1 2 .14l21.3 11.86a5 5 0 0 1 2.36 4v15.55a1.86 1.86 0 0 1 -.86 1.72 1.56 1.56 0 0 1 -.8.19zm-14.78-8.9a.8.8 0 0 1 .33.08l13.75 7.67a1.1 1.1 0 0 0 1 .15 1 1 0 0 0 .38-.92v-15.54a4.09 4.09 0 0 0 -1.88-3.15l-21.3-11.85a1.1 1.1 0 0 0 -1-.15 1 1 0 0 0 -.38.93v15.5a4.06 4.06 0 0 0 1.88 3.15l3.28 1.82a.84.84 0 0 1 .4.57 10.71 10.71 0 0 0 3.59 6 6.62 6.62 0 0 1 -.61-3.82l.05-.23.28-.17a.66.66 0 0 1 .23-.04z" fill="#1b0f34"/><path d="m25.13 89.07-.5-.8 3.71-2.18.5.8z" fill="#1b0f34"/><path d="m5.25 78.05-.5-.79 3.71-2.18.51.79z" fill="#1b0f34"/><path d="m26.3 93.29-.52-.79 4.09-2.5.52.78z" fill="#1b0f34"/><path d="m30.27 92.54-4.23 2.48v13.48l4.09-2.17.14-.97z" fill="#1b0f34"/><path d="m14.77 100.19a2 2 0 0 1 -.93-.3 3.39 3.39 0 0 1 -1.19-1.09 2.67 2.67 0 0 1 -.44-1.48c0-.58.18-1 .52-1.12a1.48 1.48 0 0 1 1.36.23 3.3 3.3 0 0 1 1.18 1.1 2.7 2.7 0 0 1 .42 1.47c0 .58-.18 1-.54 1.12a1 1 0 0 1 -.38.07zm-1.66-3.61a.38.38 0 0 0 -.16 0c-.21.1-.25.44-.25.71a2.21 2.21 0 0 0 .36 1.23 2.85 2.85 0 0 0 1 .94 1 1 0 0 0 .86.19c.17-.07.25-.31.25-.69a2.27 2.27 0 0 0 -.34-1.22 2.82 2.82 0 0 0 -1-.94 1.74 1.74 0 0 0 -.72-.22zm2.09-.25-2.68-1.49v-.84a2.13 2.13 0 0 1 .33-1.3 1.71 1.71 0 0 1 1.15-.56 1.73 1.73 0 0 0 .72-.22s.16-.12.16-.43a.88.88 0 0 0 -.22-.54 2.27 2.27 0 0 0 -.64-.53 4.49 4.49 0 0 0 -2.39-.52h-.18l-1.16-3.17h.31a6.81 6.81 0 0 1 3.86 1 7.85 7.85 0 0 1 2.59 2.25 4.78 4.78 0 0 1 1 2.77 2.45 2.45 0 0 1 -.46 1.59 2.24 2.24 0 0 1 -1.44.7 2.55 2.55 0 0 0 -.83.22.37.37 0 0 0 -.1.31zm-2.2-1.76 1.72 1a.78.78 0 0 1 .28-.67 2.29 2.29 0 0 1 1.05-.32 1.8 1.8 0 0 0 1.14-.58 2 2 0 0 0 .35-1.3 4.37 4.37 0 0 0 -.86-2.51 7.33 7.33 0 0 0 -2.43-2.11 6.45 6.45 0 0 0 -3.25-.92l.83 2.27a5 5 0 0 1 2.44.59 2.51 2.51 0 0 1 .78.65 1.29 1.29 0 0 1 .32.82.91.91 0 0 1 -.35.8 2.06 2.06 0 0 1 -.94.31 1.26 1.26 0 0 0 -.86.39 1.74 1.74 0 0 0 -.22 1.01z" fill="#fff"/><path d="m11.54 93.61v-.68a2 2 0 0 1 .28-1.17 1.49 1.49 0 0 1 1-.48 1.79 1.79 0 0 0 .83-.27.69.69 0 0 0 .26-.61 1.07 1.07 0 0 0 -.28-.68 2.27 2.27 0 0 0 -.7-.59 4.73 4.73 0 0 0 -2.53-.55l-1-2.73a6.61 6.61 0 0 1 3.72.94 7.54 7.54 0 0 1 2.53 2.21 4.51 4.51 0 0 1 .91 2.64 2.19 2.19 0 0 1 -.41 1.44 2 2 0 0 1 -1.29.62 2.46 2.46 0 0 0 -.94.27.6.6 0 0 0 -.19.49v.41zm-.31 2.62c0-.49.13-.79.38-.92s.63 0 1.13.23a3 3 0 0 1 1.1 1 2.54 2.54 0 0 1 .38 1.34c0 .49-.13.79-.4.91a1.3 1.3 0 0 1 -1.08-.21 3.1 3.1 0 0 1 -1.11-1 2.46 2.46 0 0 1 -.4-1.35z" fill="#1b0f34"/><path d="m174.19 136.67c-1.43-1.73-3-1.39-7-2.24a22.85 22.85 0 0 0 -10.34.14c-3.36.83-5.4 1.37-6.79 2.89l-1.79.9v3.64c.07 2.42 2.12 4.69 6.19 6.31a21.51 21.51 0 0 0 12.82.86c6-1.39 9-4.31 9.12-7.26v-.14-3.45z" fill="#1b0f34"/><path d="m162.27 150.26a21.57 21.57 0 0 1 -7.93-1.48c-4.1-1.63-6.41-4-6.49-6.73v-.1-3.87l2-1c1.52-1.62 3.82-2.19 7-3a23.57 23.57 0 0 1 10.57-.15c1.1.24 2 .38 2.81.51 2 .32 3.25.51 4.38 1.85l2.43 1.8v3.86c-.1 3.44-3.65 6.32-9.49 7.68a22.74 22.74 0 0 1 -5.28.63zm-13.48-11.62v3.36c.08 2.39 2.18 4.48 5.9 6a21.14 21.14 0 0 0 12.52.84c5.31-1.23 8.67-3.85 8.76-6.82v-.17-3.18l-2.15-1.67c-.91-1.1-1.89-1.25-3.83-1.56-.81-.13-1.73-.27-2.86-.52a22.59 22.59 0 0 0 -10.13.08c-3.43.85-5.28 1.36-6.55 2.75l-.14.11z" fill="#1b0f34"/><path d="m172.35 132.81c5.5 3.06 5.5 8 0 11.1s-14.41 3.07-19.91 0-5.5-8 0-11.1 14.41-3.07 19.91 0z" fill="#fff"/><path d="m162.39 146.67a21.4 21.4 0 0 1 -10.19-2.35c-2.82-1.57-4.37-3.69-4.37-6s1.55-4.39 4.37-6c5.62-3.13 14.77-3.13 20.39 0 2.82 1.57 4.37 3.69 4.37 6s-1.55 4.39-4.37 6a21.41 21.41 0 0 1 -10.2 2.35zm0-15.7a20.48 20.48 0 0 0 -9.71 2.24c-2.51 1.4-3.89 3.23-3.89 5.15s1.38 3.75 3.89 5.15c5.36 3 14.07 3 19.43 0 2.5-1.4 3.88-3.22 3.88-5.15s-1.38-3.75-3.88-5.15a20.5 20.5 0 0 0 -9.72-2.21z" fill="#1b0f34"/><path d="m169.35 135a18 18 0 0 0 -13.91 0c-3.84 1.87-3.84 4.91 0 6.78a18 18 0 0 0 13.91 0c3.84-1.9 3.84-4.94 0-6.78z" fill="#1b0f34"/><path d="m162.39 143.61a16.82 16.82 0 0 1 -7.17-1.45c-2-1-3.14-2.33-3.14-3.8s1.12-2.81 3.14-3.8a18.48 18.48 0 0 1 14.34 0c2 1 3.15 2.34 3.15 3.8s-1.12 2.82-3.15 3.8a16.75 16.75 0 0 1 -7.17 1.45zm0-9.58a15.77 15.77 0 0 0 -6.73 1.36c-1.69.82-2.62 1.88-2.62 3s.93 2.15 2.62 3a17.39 17.39 0 0 0 13.47 0c1.69-.82 2.61-1.87 2.61-3s-.92-2.15-2.61-3a15.81 15.81 0 0 0 -6.74-1.39z" fill="#1b0f34"/><path d="m169.35 137a18 18 0 0 0 -13.91 0 5.29 5.29 0 0 0 -2.65 2.38 5.32 5.32 0 0 0 2.65 2.37 18 18 0 0 0 13.91 0 5.34 5.34 0 0 0 2.65-2.38 5.37 5.37 0 0 0 -2.65-2.37z" fill="#5a99d2"/><path d="m162.39 143.61a16.82 16.82 0 0 1 -7.17-1.45 5.75 5.75 0 0 1 -2.87-2.6l-.08-.18.08-.19a5.7 5.7 0 0 1 2.87-2.6 18.48 18.48 0 0 1 14.34 0 5.73 5.73 0 0 1 2.88 2.6l.08.18-.08.19a5.73 5.73 0 0 1 -2.88 2.6 16.75 16.75 0 0 1 -7.17 1.45zm-9.07-4.23a5.11 5.11 0 0 0 2.34 2 17.39 17.39 0 0 0 13.47 0 5 5 0 0 0 2.33-2 5 5 0 0 0 -2.33-2 17.39 17.39 0 0 0 -13.47 0 5.06 5.06 0 0 0 -2.34 2z" fill="#1b0f34"/><path d="m162.2 150.09a24.6 24.6 0 0 1 -6.73-.9l.3-.89c.07 0 7.19 2.17 14-.5v-2.65h1v3.27l-.29.12a21.79 21.79 0 0 1 -8.28 1.55z" fill="#5a99d2"/><path d="m149.9 142.65h.96v2.96h-.96z" fill="#5a99d2"/><path d="m163.23 133.69h.96v1.91h-.96z" fill="#5a99d2"/><path d="m155.15 137.36v1.64l2.32.83 1.08-1.71 8.18 4.56a14.49 14.49 0 0 0 2-.64l.88-.5v-1.62l-10.85-4.43z" fill="#1b0f34"/><path d="m166.69 143.15-7.95-4.44-1.07 1.67-3-1.07v-2.23l4.1-2.14 11.36 4.65v2.19l-1.12.63a13.47 13.47 0 0 1 -2.12.69zm-8.13-5.58.27.11 8 4.47a13 13 0 0 0 1.73-.57l.59-.33v-1.05l-10.34-4.2-3.18 1.67v1l1.63.58 1-1.48z" fill="#1b0f34"/><path d="m158.59 136.46-1.08 1.71-2.32-.83 1.51-2.34 2.09-1.16 10.85 6-2.45 1.37z" fill="#fff"/><path d="m167.19 141.8-8.45-4.71-1.07 1.67-3.25-1.16 1.93-2.94 2.44-1.36 11.33 6.32v.56l-.26.13zm-8.63-5.8.27.11 8.36 4.67 1.49-.84-9.89-5.51-1.75 1-1.17 1.77 1.39.5 1-1.48z" fill="#1b0f34"/><path d="m168.06 145.64h.96v2.96h-.96z" fill="#5a99d2"/><path d="m108.78 25.45-6.43.08a4 4 0 0 0 -1.9.45l-14.8 8.25c-.75.42-.75 1.09 0 1.51l18.69 10.42a3.07 3.07 0 0 0 2.71 0l18.68-10.42c.75-.42.75-1.09 0-1.51l-14.93-8.33a4.22 4.22 0 0 0 -2.02-.45z" fill="#fff"/><path d="m105.69 47.08a3.52 3.52 0 0 1 -1.67-.39l-18.68-10.42a1.38 1.38 0 0 1 0-2.56l14.79-8.26a4.81 4.81 0 0 1 2.21-.53l6.44-.07a4.62 4.62 0 0 1 2.34.53l14.88 8.33a1.37 1.37 0 0 1 0 2.56l-18.64 10.42a3.52 3.52 0 0 1 -1.67.39zm3.15-21-6.43.07a3.5 3.5 0 0 0 -1.6.37l-14.81 8.23c-.21.12-.25.22-.25.24s0 .11.25.23l18.68 10.42a2.44 2.44 0 0 0 2.08 0l18.69-10.42c.2-.12.25-.22.25-.23s0-.12-.25-.24l-14.93-8.32a3.47 3.47 0 0 0 -1.68-.37z" fill="#1b0f34"/><path d="m110.42 35.57 5.24 2.33c1.59-1.12 1.88-2.62.85-3.87z" fill="#1b0f34"/><path d="m115.71 38.44-6.71-3 7.69-2 .2.24a2.82 2.82 0 0 1 .68 2.2 3.58 3.58 0 0 1 -1.63 2.34zm-3.86-2.75 3.75 1.67a2.45 2.45 0 0 0 1-1.55 1.81 1.81 0 0 0 -.3-1.25z" fill="#1b0f34"/><path d="m104.13 35 6.09-1.55a4.85 4.85 0 0 0 -1.36-1.09 10.79 10.79 0 0 0 -9.47 0c-2.61 1.46-2.61 3.82 0 5.28a10.79 10.79 0 0 0 9.47 0c.18-.1.35-.21.5-.31z" fill="#5a99d2"/><path d="m104.13 39.14a10.45 10.45 0 0 1 -5-1.15 3.64 3.64 0 0 1 -2.13-2.99 3.64 3.64 0 0 1 2.2-3 11.36 11.36 0 0 1 9.95 0 5.06 5.06 0 0 1 1.49 1.2l.46.56-5.5 1.4 4.77 2.12-.67.46a5.74 5.74 0 0 1 -.55.34 10.39 10.39 0 0 1 -5.02 1.06zm0-7.46a9.41 9.41 0 0 0 -4.49 1 2.8 2.8 0 0 0 -1.72 2.32 2.8 2.8 0 0 0 1.72 2.24 10.3 10.3 0 0 0 8.7.14l-5.64-2.5 6.59-1.67a4.89 4.89 0 0 0 -.67-.45 9.44 9.44 0 0 0 -4.49-1.08z" fill="#1b0f34"/><path d="m171 54.43-6.43.07a4.1 4.1 0 0 0 -1.9.45l-14.8 8.26c-.75.41-.75 1.09 0 1.51l18.69 10.42a3.07 3.07 0 0 0 2.71 0l18.73-10.42c.75-.42.75-1.1 0-1.51l-15-8.33a4.1 4.1 0 0 0 -2-.45z" fill="#fff"/><path d="m167.91 76.05a3.52 3.52 0 0 1 -1.67-.39l-18.68-10.42a1.37 1.37 0 0 1 0-2.56l14.79-8.25a4.81 4.81 0 0 1 2.21-.53l6.43-.08a4.66 4.66 0 0 1 2.35.54l14.92 8.32a1.37 1.37 0 0 1 0 2.56l-18.68 10.42a3.52 3.52 0 0 1 -1.67.39zm3.09-21.05-6.43.08a3.38 3.38 0 0 0 -1.6.37l-14.79 8.25c-.21.11-.25.21-.25.23s0 .12.25.23l18.68 10.42a2.44 2.44 0 0 0 2.08 0l18.69-10.42c.2-.11.24-.21.24-.23s0-.12-.24-.23l-14.92-8.3a3.81 3.81 0 0 0 -1.71-.4z" fill="#1b0f34"/><path d="m111.54 43.36-6.44.08a4.13 4.13 0 0 0 -1.9.45l-14.79 8.25c-.75.42-.75 1.1 0 1.52l18.68 10.42a3.14 3.14 0 0 0 2.71 0l18.68-10.42c.75-.42.75-1.1 0-1.52l-14.93-8.32a4.2 4.2 0 0 0 -2.01-.46z" fill="#fff"/><path d="m108.44 65a3.52 3.52 0 0 1 -1.67-.39l-18.68-10.43a1.38 1.38 0 0 1 0-2.56l14.8-8.25a4.65 4.65 0 0 1 2.2-.54l6.44-.07a4.65 4.65 0 0 1 2.34.53l14.93 8.33a1.38 1.38 0 0 1 0 2.56l-18.69 10.42a3.52 3.52 0 0 1 -1.67.4zm3.1-21-6.43.07a3.53 3.53 0 0 0 -1.6.38l-14.79 8.22c-.21.11-.25.21-.25.23s0 .12.25.23l18.68 10.42a2.46 2.46 0 0 0 2.09 0l18.68-10.42c.2-.11.25-.21.25-.23s0-.12-.25-.23l-14.93-8.33a3.78 3.78 0 0 0 -1.7-.37z" fill="#1b0f34"/><path d="m151 28-72.32 40.36 26 14.5c2.11 2 16.27 10.67 16.83 11.13 1.18 1 3.14 0 3.14 0l72.6-40.49a.46.46 0 0 0 0-.81l-44.25-24.69a2.07 2.07 0 0 0 -2 0z" fill="#fff"/><path d="m122.85 95a2.65 2.65 0 0 1 -1.74-.58c-.17-.13-1.69-1.09-3.29-2.1-4.45-2.82-11.85-7.5-13.51-9l-26.88-15 73.26-40.87a2.71 2.71 0 0 1 2.62 0l44.25 24.68a1 1 0 0 1 0 1.85l-72.56 40.54a5.24 5.24 0 0 1 -2.15.48zm-42.91-26.64 25.18 14.07c1.46 1.36 9.22 6.27 13.39 8.9 2.39 1.51 3.24 2.06 3.42 2.21.83.69 2.42-.07 2.44-.08l72.35-40.37-44-24.55a1.39 1.39 0 0 0 -1.37 0z" fill="#1b0f34"/><path d="m82 62.1 42.65 23a8.4 8.4 0 0 0 -4 6.63 2.66 2.66 0 0 0 1.12 2.45l-46.72-25.18a2.82 2.82 0 0 1 -1-2.34 8.4 8.4 0 0 1 4-6.63z" fill="#fff"/><path d="m121.51 94.75-46.77-25.27a3.39 3.39 0 0 1 -1.27-2.86 8.92 8.92 0 0 1 4.28-7.15l.3-.17 4.27 2.27 43.6 23.56-1 .54a7.85 7.85 0 0 0 -3.65 6.1 2.11 2.11 0 0 0 .82 1.93zm-43.43-34.06a7.93 7.93 0 0 0 -3.35 5.93 2.26 2.26 0 0 0 .7 1.86l44.71 24.14a4.64 4.64 0 0 1 -.07-.85 9 9 0 0 1 3.4-6.57l-41.76-22.57z" fill="#1b0f34"/><path d="m174.19 55.8-28.53-15.92c-.85-.48-.74-1.31.24-1.85a3.79 3.79 0 0 1 3.31-.14l28.53 15.92c.85.48.75 1.3-.23 1.85a3.82 3.82 0 0 1 -3.32.14z" fill="#5a99d2"/><path d="m175.63 56.72a3.59 3.59 0 0 1 -1.75-.4l-28.53-15.92a1.54 1.54 0 0 1 -.89-1.33 1.9 1.9 0 0 1 1.12-1.57 4.48 4.48 0 0 1 3.95-.13l28.53 15.92a1.55 1.55 0 0 1 .88 1.33 1.9 1.9 0 0 1 -1.12 1.57 4.63 4.63 0 0 1 -2.19.53zm-1.13-1.45a3.23 3.23 0 0 0 2.69-.13c.4-.22.5-.43.5-.52s-.1-.19-.26-.28l-28.53-15.92a3.16 3.16 0 0 0 -2.69.13c-.39.22-.5.43-.5.52s.1.19.26.28z" fill="#1b0f34"/><path d="m166.23 60.38-20.94-11.66c-.85-.48-.75-1.3.24-1.85a3.76 3.76 0 0 1 3.31-.13l20.94 11.66c.85.47.75 1.3-.24 1.85a3.76 3.76 0 0 1 -3.31.13z" fill="#5a99d2"/><path d="m167.67 61.31a3.66 3.66 0 0 1 -1.76-.4l-20.91-11.67a1.55 1.55 0 0 1 -.88-1.33 1.91 1.91 0 0 1 1.12-1.57 4.48 4.48 0 0 1 3.95-.13l20.91 11.67a1.54 1.54 0 0 1 .9 1.32 1.89 1.89 0 0 1 -1.12 1.57 4.53 4.53 0 0 1 -2.21.54zm-20.26-14.31a3.4 3.4 0 0 0 -1.57.37c-.35.19-.5.4-.5.52s.1.19.26.28l20.94 11.67a3.23 3.23 0 0 0 2.69-.13c.39-.22.5-.44.5-.53s-.1-.18-.26-.27l-20.94-11.65a2.38 2.38 0 0 0 -1.12-.26z" fill="#1b0f34"/><path d="m158.27 64.84-11.92-6.65c-.85-.48-.74-1.31.24-1.85a3.82 3.82 0 0 1 3.32-.14l11.91 6.65c.85.48.74 1.3-.24 1.85a3.79 3.79 0 0 1 -3.31.14z" fill="#5a99d2"/><path d="m159.71 65.76a3.66 3.66 0 0 1 -1.76-.4l-11.95-6.65a1.54 1.54 0 0 1 -.89-1.33 1.89 1.89 0 0 1 1.13-1.57 4.45 4.45 0 0 1 3.94-.13l11.91 6.65a1.54 1.54 0 0 1 .89 1.33 1.9 1.9 0 0 1 -1.12 1.57 4.66 4.66 0 0 1 -2.15.53zm-1.13-1.45a3.23 3.23 0 0 0 2.69-.13c.39-.22.5-.43.5-.52s-.1-.19-.26-.28l-11.92-6.65a3.19 3.19 0 0 0 -2.69.13c-.39.22-.5.43-.5.52s.1.19.27.28z" fill="#1b0f34"/><path d="m137.21 64.55c5.34 3 5.34 7.8 0 10.78s-14 3-19.34 0-5.34-7.81 0-10.78 14-2.98 19.34 0z" fill="#5a99d2"/><path d="m127.54 78.16a21.05 21.05 0 0 1 -10-2.3c-2.79-1.56-4.32-3.66-4.32-5.92s1.53-4.37 4.32-5.92c5.51-3.07 14.46-3.07 20 0 2.78 1.55 4.31 3.66 4.31 5.92s-1.53 4.36-4.31 5.92a21.09 21.09 0 0 1 -10 2.3zm0-15.25a19.63 19.63 0 0 0 -9.35 2.16c-2.38 1.33-3.7 3.06-3.7 4.87s1.32 3.54 3.7 4.87c5.15 2.88 13.55 2.88 18.71 0 2.38-1.33 3.69-3.06 3.69-4.87s-1.31-3.54-3.69-4.87a19.68 19.68 0 0 0 -9.36-2.16z" fill="#1b0f34"/><path d="m134.84 66.4a19 19 0 0 0 -14.6 0c-4 2-4 5.12 0 7.07a18.86 18.86 0 0 0 14.6 0c4.04-1.95 4.04-5.11 0-7.07z" fill="#fff"/><path d="m127.54 75.53a17.84 17.84 0 0 1 -7.54-1.53c-2.17-1.05-3.37-2.5-3.37-4.07s1.2-3 3.37-4.08a19.72 19.72 0 0 1 15.16 0c2.18 1 3.37 2.5 3.37 4.08s-1.19 3-3.37 4.07a17.81 17.81 0 0 1 -7.62 1.53zm0-10a16.6 16.6 0 0 0 -7 1.41c-1.7.82-2.68 1.91-2.68 3s1 2.17 2.68 3a18.18 18.18 0 0 0 14 0c1.71-.82 2.68-1.91 2.68-3s-1-2.17-2.68-3a16.57 16.57 0 0 0 -7-1.4z" fill="#1b0f34"/><path d="m183.07 13.86-2.68-5-1.15.88c-2.95-2-7.06-3.33-12.17-3.55-8.37-.35-19.37-2.55-27.75 1.81-7.87 4.08-13.26 14.49-17.5 20.9-2.75 4.17-4 8.15-4 11.66l-1.41.4 2.82 5.26c2.45 4.57 8 7.57 16.15 7.92 16.24.71 36.51-9.45 45.26-22.69 4.46-6.76 5.06-13 2.43-17.59zm-10 17.26c-3.26 4.88-11.5 4.81-17.58 7.88s-10 9.23-16 9c-12-.52-16.56-8.91-10.06-18.73s21.51-17.41 33.57-16.89 16.55 8.91 10.06 18.74z" fill="#1b0f34"/><path d="m137 54.77c-.55 0-1.09 0-1.63 0-8.08-.36-14-3.28-16.68-8.25l-3.16-5.92 1.69-.47a22.16 22.16 0 0 1 4.1-11.54c.73-1.11 1.5-2.34 2.31-3.63 3.9-6.25 8.76-14 15.41-17.48 6.84-3.55 15.28-2.85 22.72-2.23 1.89.16 3.68.3 5.37.38a24.14 24.14 0 0 1 12.1 3.37l1.38-1.06 3.11 5.8c.05.08.09.16.13.24 2.57 4.94 1.62 11.23-2.7 17.76-8.54 12.97-28.05 23.03-44.15 23.03zm-17.12-8.71c2.53 4.51 8 7.14 15.55 7.47q.78 0 1.59 0c15.73 0 34.76-9.82 43.11-22.44 4.19-6.34 5-12.37 2.42-17l-.25-.44-2.1-3.85-.93.71-.39-.27c-2.93-2-7-3.22-11.83-3.43-1.71-.08-3.51-.23-5.42-.38-7.27-.61-15.5-1.29-22 2.09s-11.12 10.91-14.94 17c-.81 1.31-1.59 2.55-2.33 3.66-2.59 3.92-3.94 7.84-3.9 11.33v.49l-1.13.32zm20 2.5h-.4c-6.06-.27-10.51-2.47-12.51-6.21s-1.32-8.52 1.95-13.46c6.59-10 21.91-17.64 34.14-17.11 6.07.26 10.51 2.46 12.52 6.2s1.31 8.52-2 13.46c-2.17 3.29-6.29 4.42-10.66 5.62a39 39 0 0 0 -7.14 2.46 34 34 0 0 0 -6 4.17c-3.16 2.5-6.12 4.87-9.94 4.87zm21.91-35.56c-11.62 0-25.69 7.26-31.85 16.58-3 4.56-3.7 8.91-1.9 12.25s5.86 5.31 11.46 5.56c3.52.16 6.4-2.16 9.44-4.6a35.93 35.93 0 0 1 6.26-4.31 40.73 40.73 0 0 1 7.38-2.55c4.13-1.13 8-2.2 9.95-5.1 3-4.56 3.69-8.91 1.9-12.25s-5.87-5.35-11.43-5.58c-.42 0-.81 0-1.21 0z" fill="#1b0f34"/><path d="m164.09.64c-16.24-.71-36.5 9.45-45.25 22.69s-2.69 24.53 13.55 25.24 36.51-9.45 45.26-22.69 2.69-24.53-13.56-25.24zm6 24.91c-6.5 9.82-21.54 17.36-33.59 16.84s-16.56-8.91-10.06-18.73 21.56-17.37 33.56-16.84 16.56 8.91 10.07 18.73z" fill="#5a99d2"/><path d="m134 49.21c-.54 0-1.09 0-1.62 0-8.09-.35-14-3.28-16.69-8.25s-1.69-11.37 2.62-17.96c8.84-13.38 29.41-23.67 45.81-23 8.09.36 14 3.29 16.68 8.25s1.74 11.34-2.62 17.93c-8.56 12.97-28.06 23.03-44.18 23.03zm28.49-48c-15.73 0-34.77 9.82-43.12 22.44-4.1 6.21-5 12.15-2.56 16.72s8 7.26 15.62 7.59c16 .7 36.07-9.35 44.7-22.4 4.11-6.21 5-12.15 2.57-16.72s-8-7.26-15.62-7.6q-.81-.03-1.6-.03zm-24.82 41.79c-.41 0-.82 0-1.22 0-6.06-.26-10.5-2.46-12.51-6.2s-1.32-8.52 2-13.46c6.59-10 21.92-17.65 34.14-17.12 6.07.27 10.51 2.47 12.52 6.21s1.31 8.52-2 13.46c-6.38 9.63-20.92 17.11-32.93 17.11zm21.13-35.6c-11.62 0-25.68 7.25-31.8 16.6-3 4.56-3.69 8.91-1.9 12.25s5.86 5.31 11.46 5.55c11.82.52 26.65-6.91 33-16.55 3-4.56 3.69-8.91 1.9-12.25s-5.89-5.33-11.46-5.58z" fill="#1b0f34"/><path d="m172.45 40.17-2.94-5.47 1.11-.56 2.94 5.48z" fill="#5a99d2"/><path d="m130 53.95-2.94-5.48 1.11-.56 2.94 5.48z" fill="#5a99d2"/><path d="m140 54.16-2.94-5.48 1.11-.56 2.94 5.48z" fill="#5a99d2"/><path d="m157.73 12.77-2.94-5.48 1.11-.55 2.94 5.47z" fill="#5a99d2"/><path d="m132.5 24.82-2.94-5.47 1.11-.56 2.94 5.48z" fill="#5a99d2"/><path d="m233.74 26.93a.41.41 0 0 0 -.4-.42l-54.44-2.16a.72.72 0 0 0 -.37.23l-2.53 3.87a1.59 1.59 0 0 0 0 1.47l2 3.87a.66.66 0 0 0 .37.34l54.44 2.16a.42.42 0 0 0 .43-.39z" fill="#fff"/><path d="m232.86 36.89-54.53-2.16h-.08a1.31 1.31 0 0 1 -.73-.64l-2.07-3.86a2.14 2.14 0 0 1 0-2.07l2.55-3.91a1.3 1.3 0 0 1 .74-.48h.09.09l54.44 2.16a1 1 0 0 1 .73.32 1 1 0 0 1 .27.73l-.46 9a1 1 0 0 1 -1.04.91zm-54.27-3.36 54.07 2.14.44-8.56-54-2.15-2.55 3.82a1 1 0 0 0 0 .86l2.08 3.87z" fill="#1b0f34"/><path d="m236.33 32.23-2.56 3.88c-.24.36-.63.3-.87-.15l-2.08-3.86a1.56 1.56 0 0 1 0-1.47l2.56-3.87c.24-.37.63-.31.87.14l2.08 3.86a1.62 1.62 0 0 1 0 1.47z" fill="#5a99d2"/><path d="m233.39 37a1.24 1.24 0 0 1 -1-.71l-2.08-3.86a2.19 2.19 0 0 1 0-2.08l2.56-3.87a1.1 1.1 0 0 1 .95-.52 1.25 1.25 0 0 1 1 .71l2.07 3.87a2.17 2.17 0 0 1 0 2.07l-2.56 3.87a1.09 1.09 0 0 1 -.94.52zm.38-9.65-2.42 3.65a1 1 0 0 0 0 .86l2 3.74 2.42-3.66a1 1 0 0 0 0-.86z" fill="#1b0f34"/><path d="m176.63 31.17 1.41 2.62 54.86 2.17-1.38-2.56z" fill="#1b0f34"/><path d="m208.3 30.45-28.3-1.12.05-1.21 28.3 1.12z" fill="#1b0f34"/><path d="m223.11 31.15-9.37-.37.05-1.21 9.37.37z" fill="#1b0f34"/><path d="m148.57 37.23-.4-1.14c16.11-5.2 19.1-16.35 19.13-16.47l1.22.29c-.12.48-3.15 11.9-19.95 17.32z" fill="#fff"/><path d="m161.74 26.66-1-.78c4.41-5 3.62-9.53 3.61-9.57l1.23-.22c.08.21.95 5.14-3.84 10.57z" fill="#fff"/><path d="m129.69 38.06h-1.25a14.26 14.26 0 0 1 2.33-7.41l1.08.62a13.13 13.13 0 0 0 -2.16 6.79z" fill="#5a99d2"/><path d="m270.69 100.13-5.17-.45s0 0 0 0l-9.23-5.14a4.56 4.56 0 0 0 -4 .06l-1.9 1.06-.62-.35a4.57 4.57 0 0 0 -4 .06l-1.9 1.06-.63-.35a4.45 4.45 0 0 0 -3-.3l-6.76-1.94.16-.73c1.44-.83-.61-1.16-.88-1.23l-6.49-1.7a.06.06 0 0 0 -.08.06v5.21a1.27 1.27 0 0 0 .77 1.06l3.52 2a.07.07 0 0 1 0 .07l-.48 1.27a.05.05 0 0 1 0 0l-1.87.23a0 0 0 0 0 -.05 0v5.37c.11.65.95 1.2 2.15 1.32a35.76 35.76 0 0 1 4.9.84l3.68.92a67.23 67.23 0 0 0 11.09 1.75 23.43 23.43 0 0 1 9.52 2.6l.37.21 8.81-4.92a3.67 3.67 0 0 0 2.18-2.82v-5.26a.06.06 0 0 0 -.09.04z" fill="#5a99d2"/><path d="m259.74 113.89-.68-.38a22.68 22.68 0 0 0 -9.26-2.51 67.06 67.06 0 0 1 -11.19-1.76l-3.69-.92a34.31 34.31 0 0 0 -4.8-.83c-1.48-.15-2.54-.86-2.71-1.82 0-.08 0-.14 0-5.37v-.65l.61-.12 1.5-.17.18-.57-3.16-1.79a1.86 1.86 0 0 1 -1.08-1.59v-5.48l.27-.23a.71.71 0 0 1 .6-.11l6.49 1.7c.66.14 1.72.37 1.84 1.13a1 1 0 0 1 -.5 1l6 1.73a5 5 0 0 1 3.35.39l.31.18 1.58-.89a5.2 5.2 0 0 1 4.63-.06l.31.18 1.59-.89a5.2 5.2 0 0 1 4.63-.06l9.12 5.09 5.61.49.06.61v5.26a4.27 4.27 0 0 1 -2.49 3.34zm-31.08-8.43c.11.36.68.71 1.59.81a34 34 0 0 1 5 .86l3.69.92a66.79 66.79 0 0 0 11 1.73 23.78 23.78 0 0 1 9.78 2.68h.06l8.5-4.74a3.16 3.16 0 0 0 1.87-2.33v-4.73l-4.79-.42-9.36-5.19a3.93 3.93 0 0 0 -3.38.06l-2.21 1.23-.93-.52a4 4 0 0 0 -3.38.06l-2.21 1.24-.94-.53a3.88 3.88 0 0 0 -2.58-.23h-.17l-.19-.05-7.31-2.09.34-1.54.16-.1-.51-.13h-.14l-5.78-1.52v4.5c0 .18.16.38.45.54l4 2.2-.12.53-.54 1.7-.46.09-1.36.16c-.1 3.72-.09 4.61-.08 4.81z" fill="#1b0f34"/><path d="m259.75 112.86a.19.19 0 0 0 .29.16l8.52-4.75a3.69 3.69 0 0 0 2.18-2.82v-5.26s0 0-.06-.06h-10.74a.18.18 0 0 0 -.19.19z" fill="#1b0f34"/><path d="m259.94 113.65a.86.86 0 0 1 -.41-.1.8.8 0 0 1 -.41-.69v-12.55a.81.81 0 0 1 .82-.8h10.81.57l.06.61v5.26a4.26 4.26 0 0 1 -2.5 3.34l-8.52 4.76a.86.86 0 0 1 -.42.17zm.43-12.92v11.41l7.88-4.39a3.19 3.19 0 0 0 1.87-2.33v-4.7z" fill="#1b0f34"/><path d="m250.36 90.33-.62-.35a4.57 4.57 0 0 0 -4 .06l-1.9 1.06-.63-.35a4.57 4.57 0 0 0 -4 .06l-1.9 1.06-5.84-3.26a4.59 4.59 0 0 0 -4 .06l-.47.33c-1.14.63-1.19 1.63-.11 2.23l14.32 8s0 .06-.06.06l-2.6-.35q-2.82-.39-5.7-.57l-1.43-.1c-1.54-.1-3 .52-3.28 1.39l-.06.21c-.25.82.68 1.58 2.13 1.73a35.75 35.75 0 0 1 4.9.85l3.68.91a65.18 65.18 0 0 0 11.09 1.75 23.43 23.43 0 0 1 9.52 2.6l.37.21 8.81-4.92c1.89-1 2.63-2.58 1.95-4l-.12-.25a8.81 8.81 0 0 0 -3.83-3.74l-10.28-5.73a4.59 4.59 0 0 0 -4 .06z" fill="#fff"/><g fill="#1b0f34"><path d="m259.74 108.57-.68-.38a22.59 22.59 0 0 0 -9.26-2.52 67.38 67.38 0 0 1 -11.19-1.77l-3.69-.92a34.56 34.56 0 0 0 -4.8-.83 3.3 3.3 0 0 1 -2.45-1.18 1.51 1.51 0 0 1 -.22-1.33l.06-.2c.36-1.16 2.05-2 3.93-1.82l1.43.09c1.8.12 3.61.3 5.38.53l-11.71-6.53a1.86 1.86 0 0 1 -1.09-1.59 2 2 0 0 1 1.2-1.69l.5-.28a5.2 5.2 0 0 1 4.63-.06l5.53 3.08 1.59-.88a5.2 5.2 0 0 1 4.63-.06l.31.17 1.58-.88a5.24 5.24 0 0 1 4.63-.07l.31.18 1.59-.88a5.2 5.2 0 0 1 4.63-.07l10.28 5.74a9.42 9.42 0 0 1 4.09 4l.12.25c.83 1.74 0 3.58-2.2 4.8zm-28.68-9.75c-1.19 0-2.2.48-2.35 1l-.06.21a.35.35 0 0 0 .06.31 2.2 2.2 0 0 0 1.54.65 36.93 36.93 0 0 1 5 .86l3.69.92a65.91 65.91 0 0 0 11 1.73 23.94 23.94 0 0 1 9.78 2.68h.06l8.5-4.74c1.6-.89 2.23-2.11 1.69-3.25l-.12-.25a8.24 8.24 0 0 0 -3.57-3.46l-10.28-5.75a4 4 0 0 0 -3.38.06l-2.26 1.21-.93-.53a3.93 3.93 0 0 0 -3.38.07l-2.21 1.23-.94-.52a3.9 3.9 0 0 0 -3.38.06l-2.21 1.23-6.15-3.43a3.89 3.89 0 0 0 -3.38.06l-.5.27c-.36.2-.57.45-.57.65s.17.38.46.54l14.77 8.24-.31 1h-.6l-2.6-.35c-1.85-.25-3.76-.44-5.65-.57l-1.43-.09z"/><path d="m241.68 95-4.68-2.61.63-1.04 4.67 2.6z"/><path d="m243.14 100.97-2.96-1.66.63-1.04 2.96 1.65z"/><path d="m247.11 93.62-3.58-2 .62-1.04 3.59 1.99z"/><path d="m252.93 92.46-2.88-1.61.63-1.05 2.88 1.61z"/><path d="m228.15 92.25h1.25v5.32h-1.25z"/><path d="m237.42 103.12h1.25v5.32h-1.25z"/><path d="m254.77 106.15h1.25v5.32h-1.25z"/><path d="m230.35 101.68h1.25v5.32h-1.25z"/><path d="m222.7 88.79-5.54-1.57.36-1.17 5.53 1.58z"/><path d="m224.76 86.22-3.01-4.65 1.06-.65 3.02 4.65z"/><path d="m229.08 84.81-1.25-.11.49-5.28 1.25.11z"/><path d="m217.94 118.42c-1.43-1.73-3-1.39-7-2.24a22.9 22.9 0 0 0 -10.35.14c-3.35.83-5.4 1.37-6.79 2.89l-1.79.9v3.68c.08 2.42 2.12 4.69 6.19 6.31a21.51 21.51 0 0 0 12.82.86c6-1.39 9-4.31 9.13-7.26v-3.59z"/><path d="m206 132a21.62 21.62 0 0 1 -7.94-1.48c-4.1-1.64-6.41-4-6.49-6.73v-4l2-1c1.53-1.62 3.82-2.19 7-3a23.57 23.57 0 0 1 10.57-.15c1.1.24 2 .39 2.81.51 2 .32 3.25.51 4.39 1.85l2.42 1.8v3.86c-.11 3.44-3.66 6.32-9.5 7.68a23.3 23.3 0 0 1 -5.26.66zm-13.48-11.62v3.31c.08 2.39 2.18 4.48 5.91 6a21.13 21.13 0 0 0 12.52.84c5.3-1.23 8.66-3.85 8.75-6.82v-.17-3.18l-2.18-1.63c-.91-1.1-1.89-1.25-3.83-1.56-.81-.13-1.73-.27-2.86-.52a22.59 22.59 0 0 0 -10.12.14c-3.43.85-5.28 1.36-6.54 2.75l-.14.11z"/></g><path d="m216.09 114.56c5.5 3.06 5.5 8 0 11.1s-14.41 3.07-19.91 0-5.5-8 0-11.1 14.41-3.07 19.91 0z" fill="#fff"/><path d="m206.14 128.42a21.41 21.41 0 0 1 -10.2-2.35c-2.82-1.57-4.37-3.69-4.37-6s1.55-4.39 4.37-6c5.62-3.13 14.77-3.13 20.39 0 2.82 1.57 4.37 3.69 4.37 6s-1.55 4.39-4.37 6a21.4 21.4 0 0 1 -10.19 2.35zm0-15.7a20.5 20.5 0 0 0 -9.72 2.24c-2.5 1.4-3.88 3.23-3.88 5.15s1.38 3.75 3.88 5.15c5.36 3 14.07 3 19.43 0 2.51-1.4 3.89-3.22 3.89-5.15s-1.38-3.75-3.89-5.15a20.46 20.46 0 0 0 -9.71-2.24z" fill="#1b0f34"/><path d="m213.09 116.72a18 18 0 0 0 -13.91 0c-3.84 1.87-3.84 4.91 0 6.78a18 18 0 0 0 13.91 0c3.84-1.87 3.84-4.91 0-6.78z" fill="#1b0f34"/><path d="m206.14 125.36a16.75 16.75 0 0 1 -7.17-1.45c-2-1-3.15-2.33-3.15-3.8s1.12-2.81 3.15-3.8a18.48 18.48 0 0 1 14.34 0c2 1 3.14 2.34 3.14 3.8s-1.12 2.82-3.14 3.8a16.82 16.82 0 0 1 -7.17 1.45zm0-9.58a15.81 15.81 0 0 0 -6.74 1.36c-1.69.82-2.61 1.88-2.61 3s.92 2.15 2.61 3a17.39 17.39 0 0 0 13.47 0c1.69-.82 2.62-1.87 2.62-3s-.93-2.15-2.62-3a15.74 15.74 0 0 0 -6.73-1.36z" fill="#1b0f34"/><path d="m213.09 118.75a18 18 0 0 0 -13.91 0 5.37 5.37 0 0 0 -2.65 2.37 5.34 5.34 0 0 0 2.65 2.38 18 18 0 0 0 13.91 0 5.25 5.25 0 0 0 2.65-2.38 5.28 5.28 0 0 0 -2.65-2.37z" fill="#5a99d2"/><path d="m206.14 125.36a16.75 16.75 0 0 1 -7.17-1.45 5.73 5.73 0 0 1 -2.88-2.6l-.08-.19.08-.18a5.73 5.73 0 0 1 2.88-2.6 18.48 18.48 0 0 1 14.34 0 5.75 5.75 0 0 1 2.87 2.6l.08.18-.08.19a5.75 5.75 0 0 1 -2.87 2.6 16.82 16.82 0 0 1 -7.17 1.45zm-9.07-4.24a5 5 0 0 0 2.33 2 17.39 17.39 0 0 0 13.47 0 5.12 5.12 0 0 0 2.34-2 5.17 5.17 0 0 0 -2.34-2 17.39 17.39 0 0 0 -13.47 0 5.08 5.08 0 0 0 -2.33 2z" fill="#1b0f34"/><path d="m213.53 126.9h.96v2.96h-.96z" fill="#5a99d2"/><path d="m193.64 124.4h.96v2.96h-.96z" fill="#5a99d2"/><path d="m206.97 115.44h.96v1.91h-.96z" fill="#5a99d2"/><path d="m198.89 119.11v1.62l2.32.83 1.09-1.71 8.18 4.56a14.49 14.49 0 0 0 2-.64l.89-.5v-1.62l-10.86-4.43z" fill="#1b0f34"/><path d="m210.44 124.9-8-4.44-1.07 1.67-3-1.08v-2.22l4.09-2.14 11.37 4.65v2.19l-1.13.63a13.7 13.7 0 0 1 -2.11.69zm-8.15-5.59.28.12 8 4.47a13 13 0 0 0 1.73-.57l.59-.33v-1l-10.35-4.22-3.18 1.66v1l1.64.56.94-1.48z" fill="#1b0f34"/><path d="m202.33 118.21-1.09 1.71-2.32-.83 1.55-2.36 2.09-1.16 10.85 6-2.48 1.43z" fill="#fff"/><path d="m210.93 123.55-8.45-4.71-1.07 1.67-3.25-1.16 1.94-2.94 2.43-1.36 11.19 6.26.34.33-.44.41zm-8.64-5.86.28.12 8.36 4.66 1.49-.83-9.89-5.51-1.75 1-1.16 1.77 1.39.5.94-1.48z" fill="#1b0f34"/><path d="m211.81 127.39h.96v2.96h-.96z" fill="#5a99d2"/><path d="m226 125c-1.43-1.73-3-1.38-7-2.24a23 23 0 0 0 -10.34.14c-3.36.84-5.4 1.38-6.79 2.9l-1.79.9v3.67c.07 2.42 2.12 4.69 6.19 6.31a21.59 21.59 0 0 0 12.82.87c6-1.4 9-4.32 9.12-7.26v-3.59z" fill="#1b0f34"/><path d="m214.05 138.63a21.46 21.46 0 0 1 -7.94-1.49c-4.1-1.63-6.4-4-6.49-6.72v-4l2-1c1.52-1.62 3.82-2.19 7-3a23.42 23.42 0 0 1 10.57-.14c1.1.24 2 .38 2.8.5 2 .32 3.26.52 4.39 1.86l2.43 1.8v3.85c-.11 3.45-3.66 6.32-9.49 7.68a22.76 22.76 0 0 1 -5.27.66zm-13.48-11.63v3.3c.08 2.39 2.17 4.49 5.9 6a21.22 21.22 0 0 0 12.52.85c5.31-1.24 8.66-3.85 8.76-6.83v-3.32l-2.17-1.64c-.91-1.1-1.89-1.25-3.83-1.56-.81-.12-1.73-.27-2.86-.51a22.45 22.45 0 0 0 -10.12.13c-3.43.86-5.28 1.37-6.55 2.76l-.14.1z" fill="#1b0f34"/><ellipse cx="214.17" cy="126.73" fill="#fff" rx="14.08" ry="7.85"/><path d="m214.17 135a21.35 21.35 0 0 1 -10.2-2.35c-2.81-1.57-4.36-3.68-4.36-6s1.55-4.39 4.36-6c5.63-3.14 14.78-3.14 20.4 0 2.82 1.57 4.37 3.68 4.37 6s-1.55 4.38-4.37 6a21.41 21.41 0 0 1 -10.2 2.35zm0-15.7a20.34 20.34 0 0 0 -9.71 2.25c-2.51 1.39-3.89 3.22-3.89 5.15s1.38 3.75 3.89 5.15c5.35 3 14.07 3 19.43 0 2.5-1.4 3.88-3.23 3.88-5.15s-1.38-3.76-3.88-5.15a20.38 20.38 0 0 0 -9.72-2.22z" fill="#1b0f34"/><path d="m221.13 123.34a18 18 0 0 0 -13.91 0c-3.84 1.87-3.84 4.9 0 6.77a18 18 0 0 0 13.91 0c3.87-1.87 3.87-4.9 0-6.77z" fill="#1b0f34"/><path d="m214.17 132a17 17 0 0 1 -7.17-1.44c-2-1-3.14-2.34-3.14-3.8s1.11-2.82 3.14-3.81a18.53 18.53 0 0 1 14.34 0c2 1 3.15 2.34 3.15 3.81s-1.12 2.81-3.15 3.8a16.9 16.9 0 0 1 -7.17 1.44zm0-9.57a15.89 15.89 0 0 0 -6.73 1.35c-1.69.83-2.62 1.88-2.62 3s.93 2.15 2.62 3a17.39 17.39 0 0 0 13.47 0c1.68-.82 2.61-1.88 2.61-3s-.93-2.15-2.61-3a16 16 0 0 0 -6.74-1.38z" fill="#1b0f34"/><path d="m221.13 125.37a17.86 17.86 0 0 0 -13.91 0 5.2 5.2 0 0 0 -2.65 2.37 5.2 5.2 0 0 0 2.65 2.37 18 18 0 0 0 13.91 0 5.28 5.28 0 0 0 2.65-2.37 5.28 5.28 0 0 0 -2.65-2.37z" fill="#5a99d2"/><path d="m214.17 132a17 17 0 0 1 -7.17-1.44 5.74 5.74 0 0 1 -2.88-2.61l-.08-.18.08-.18a5.74 5.74 0 0 1 2.88-2.59 18.48 18.48 0 0 1 14.34 0 5.7 5.7 0 0 1 2.88 2.61l.08.18-.08.18a5.7 5.7 0 0 1 -2.88 2.61 16.9 16.9 0 0 1 -7.17 1.42zm-9.07-4.23a5.18 5.18 0 0 0 2.34 2 17.39 17.39 0 0 0 13.47 0 5.09 5.09 0 0 0 2.33-2 5.09 5.09 0 0 0 -2.33-2 17.39 17.39 0 0 0 -13.47 0 5.18 5.18 0 0 0 -2.34 1.97z" fill="#1b0f34"/><path d="m221.57 133.51h.96v2.96h-.96z" fill="#5a99d2"/><path d="m201.68 131.01h.96v2.96h-.96z" fill="#5a99d2"/><path d="m215.01 122.05h.96v1.91h-.96z" fill="#5a99d2"/><path d="m206.92 125.72v1.63l2.33.82 1.08-1.7 8.18 4.56a13 13 0 0 0 2-.64l.88-.49v-1.62l-10.86-4.44z" fill="#1b0f34"/><path d="m218.47 131.51-8-4.44-1.06 1.67-3-1.07v-2.22l4.1-2.14 11.39 4.69v2.2l-1.12.63a15 15 0 0 1 -2.12.69zm-8.14-5.58.28.12 8 4.46a11 11 0 0 0 1.73-.57l.59-.33v-1l-10.35-4.23-3.17 1.62v1l1.63.58.94-1.47z" fill="#1b0f34"/><path d="m210.36 124.83-1.08 1.7-2.33-.83 1.56-2.35 2.08-1.17 10.86 6.06-2.45 1.39z" fill="#fff"/><path d="m219 130.16-8.46-4.71-1.06 1.67-3.28-1.12 1.93-2.94 2.43-1.35 11.24 6.26.19.44-.33.29zm-8.64-5.85.28.12 8.36 4.66 1.49-.83-9.9-5.52-1.74 1-1.17 1.78 1.32.48.94-1.47z" fill="#1b0f34"/><path d="m219.84 134h.96v2.96h-.96z" fill="#5a99d2"/><path d="m245.91 140.45c-1.43-1.73-3-1.39-7-2.24a22.85 22.85 0 0 0 -10.34.14c-3.35.83-5.4 1.37-6.79 2.9l-1.79.89v3.68c.07 2.42 2.12 4.69 6.19 6.31a21.59 21.59 0 0 0 12.82.87c6-1.4 9-4.32 9.12-7.27v-.14-3.45z" fill="#1b0f34"/><path d="m234 154a21.57 21.57 0 0 1 -7.93-1.48c-4.1-1.63-6.41-4-6.49-6.73v-4l2-1c1.53-1.62 3.82-2.19 7-3a23.56 23.56 0 0 1 10.57-.15c1.1.24 2 .39 2.81.51 2 .32 3.25.51 4.38 1.85l2.43 1.8v3.86c-.1 3.44-3.65 6.32-9.49 7.68a22.74 22.74 0 0 1 -5.28.66zm-13.48-11.62v3.31c.08 2.39 2.18 4.48 5.9 6a21.14 21.14 0 0 0 12.52.84c5.31-1.23 8.67-3.85 8.76-6.82v-.17-3.18l-2.17-1.63c-.91-1.1-1.89-1.25-3.83-1.56-.81-.13-1.73-.27-2.86-.52a22.59 22.59 0 0 0 -10.12.14c-3.43.85-5.28 1.36-6.55 2.75l-.14.11z" fill="#1b0f34"/><path d="m244.07 136.59c5.5 3.07 5.5 8 0 11.11s-14.41 3.06-19.91 0-5.5-8 0-11.11 14.41-3.07 19.91 0z" fill="#fff"/><path d="m234.11 150.45a21.4 21.4 0 0 1 -10.19-2.35c-2.82-1.57-4.37-3.69-4.37-6s1.55-4.38 4.37-5.95c5.62-3.14 14.77-3.14 20.39 0 2.82 1.57 4.37 3.68 4.37 5.95s-1.55 4.39-4.37 6a21.41 21.41 0 0 1 -10.2 2.35zm0-15.7a20.48 20.48 0 0 0 -9.71 2.25c-2.51 1.4-3.89 3.23-3.89 5.15s1.38 3.76 3.89 5.15c5.36 3 14.07 3 19.43 0 2.5-1.39 3.88-3.22 3.88-5.15s-1.38-3.75-3.88-5.15a20.5 20.5 0 0 0 -9.72-2.25z" fill="#1b0f34"/><path d="m241.07 138.75a18 18 0 0 0 -13.91 0c-3.84 1.88-3.84 4.91 0 6.78a18 18 0 0 0 13.91 0c3.84-1.87 3.84-4.9 0-6.78z" fill="#1b0f34"/><path d="m234.11 147.39a17 17 0 0 1 -7.17-1.44c-2-1-3.14-2.34-3.14-3.81s1.12-2.81 3.14-3.8a18.48 18.48 0 0 1 14.34 0c2 1 3.14 2.34 3.14 3.8s-1.12 2.82-3.14 3.81a17 17 0 0 1 -7.17 1.44zm0-9.58a15.92 15.92 0 0 0 -6.73 1.36c-1.69.82-2.62 1.88-2.62 3s.93 2.15 2.62 3a17.39 17.39 0 0 0 13.47 0c1.69-.82 2.62-1.87 2.62-3s-.93-2.15-2.62-3a16 16 0 0 0 -6.74-1.36z" fill="#1b0f34"/><path d="m241.07 140.78a18 18 0 0 0 -13.91 0 5.29 5.29 0 0 0 -2.65 2.38 5.28 5.28 0 0 0 2.65 2.37 18 18 0 0 0 13.91 0 5.32 5.32 0 0 0 2.65-2.37 5.34 5.34 0 0 0 -2.65-2.38z" fill="#5a99d2"/><path d="m234.11 147.39a17 17 0 0 1 -7.17-1.44 5.76 5.76 0 0 1 -2.87-2.61l-.08-.18.08-.19a5.75 5.75 0 0 1 2.87-2.6 18.48 18.48 0 0 1 14.34 0 5.75 5.75 0 0 1 2.87 2.6l.08.19-.08.18a5.76 5.76 0 0 1 -2.87 2.61 17 17 0 0 1 -7.17 1.44zm-9.11-4.23a5.11 5.11 0 0 0 2.34 2 17.39 17.39 0 0 0 13.47 0 5.11 5.11 0 0 0 2.34-2 5.12 5.12 0 0 0 -2.34-2 17.39 17.39 0 0 0 -13.47 0 5.12 5.12 0 0 0 -2.34 2z" fill="#1b0f34"/><path d="m241.51 148.93h.96v2.96h-.96z" fill="#5a99d2"/><path d="m221.62 146.43h.96v2.96h-.96z" fill="#5a99d2"/><path d="m234.95 137.47h.96v1.91h-.96z" fill="#5a99d2"/><path d="m226.87 141.14v1.62l2.32.83 1.08-1.7 8.18 4.56a13.24 13.24 0 0 0 2-.64l.88-.49v-1.63l-10.85-4.43z" fill="#1b0f34"/><path d="m238.41 146.93-7.95-4.44-1.07 1.67-3-1.07v-2.23l4.1-2.14 11.37 4.65v2.2l-1.13.62a13.82 13.82 0 0 1 -2.12.69zm-8.14-5.58.28.11 8 4.47a13.49 13.49 0 0 0 1.73-.57l.59-.33v-1.03l-10.35-4.22-3.18 1.66v1l1.66.56 1-1.48z" fill="#1b0f34"/><path d="m230.31 140.25-1.12 1.75-2.32-.83 1.55-2.36 2.09-1.16 10.85 6-2.45 1.35z" fill="#fff"/><path d="m238.91 145.58-8.45-4.71-1.07 1.67-3.25-1.16 1.94-2.94 2.43-1.36 11.19 6.26.34.33-.44.41zm-8.64-5.85.28.11 8.36 4.67 1.49-.84-9.89-5.51-1.75 1-1.17 1.77 1.39.5 1-1.48z" fill="#1b0f34"/><path d="m239.78 149.42h.96v2.96h-.96z" fill="#5a99d2"/><path d="m203.94 123.42c-1.86-1.29-3.27-.55-7.32-.33a22.74 22.74 0 0 0 -9.92 2.84c-3 1.68-4.81 2.74-5.72 4.57l-1.47 1.33 1 3.45v.09c.76 2.3 3.36 3.95 7.73 4.44a21.51 21.51 0 0 0 12.59-2.52c5.39-2.92 7.48-6.52 6.74-9.38v-.14l-1-3.32z" fill="#1b0f34"/><path d="m190.53 140.41a22 22 0 0 1 -2.3-.13c-4.41-.5-7.3-2.19-8.13-4.77v-.1l-1.1-3.73 1.62-1.47c1-2 3.06-3.1 5.88-4.68a23.34 23.34 0 0 1 10.13-2.91c1.13-.06 2-.16 2.84-.25 2-.22 3.28-.35 4.75.64l2.83 1.1 1.07 3.71c.87 3.34-1.74 7-7 9.88a22.37 22.37 0 0 1 -10.59 2.71zm-10.48-8.41.93 3.19c.75 2.27 3.35 3.74 7.36 4.19a21.12 21.12 0 0 0 12.29-2.46c4.76-2.58 7.26-6 6.51-8.87v-.16l-.89-3.06-2.56-1c-1.18-.82-2.16-.72-4.12-.5-.82.09-1.74.19-2.9.25a22.27 22.27 0 0 0 -9.7 2.78c-3.06 1.72-4.7 2.7-5.53 4.37l-.1.14z" fill="#1b0f34"/><path d="m201.09 120.19c6.15 1.51 7.55 6.3 3.11 10.69s-13 6.73-19.16 5.21-7.55-6.29-3.12-10.69 13.01-6.73 19.17-5.21z" fill="#fff"/><path d="m189.07 137a17.89 17.89 0 0 1 -4.15-.47c-3.15-.78-5.24-2.41-5.88-4.6s.26-4.62 2.53-6.87c4.54-4.49 13.34-6.89 19.63-5.34 3.16.77 5.24 2.4 5.88 4.59s-.26 4.62-2.53 6.87c-3.55 3.59-9.89 5.82-15.48 5.82zm7.93-16.81c-5.32 0-11.32 2.14-14.75 5.54-2 2-2.83 4.12-2.29 6s2.38 3.25 5.18 3.94c6 1.47 14.39-.81 18.71-5.09 2-2 2.83-4.12 2.29-6s-2.38-3.25-5.18-3.94a16.86 16.86 0 0 0 -3.96-.45z" fill="#1b0f34"/><path d="m198.8 123.06a17.75 17.75 0 0 0 -13.38 3.64c-3.17 2.81-2.32 5.73 1.9 6.52a17.75 17.75 0 0 0 13.38-3.64c3.18-2.81 2.3-5.73-1.9-6.52z" fill="#1b0f34"/><path d="m189.59 133.89a12.79 12.79 0 0 1 -2.36-.21c-2.23-.42-3.69-1.43-4.1-2.84s.29-3 2-4.48a18.39 18.39 0 0 1 13.8-3.76c2.23.42 3.69 1.43 4.1 2.84s-.29 3-2 4.48c-2.71 2.4-7.42 3.97-11.44 3.97zm6.89-10.57a17.54 17.54 0 0 0 -10.74 3.68c-1.39 1.24-2 2.5-1.68 3.55s1.5 1.83 3.35 2.17a17.25 17.25 0 0 0 13-3.52c1.39-1.24 2-2.49 1.68-3.55s-1.5-1.83-3.35-2.17a11.42 11.42 0 0 0 -2.26-.16z" fill="#1b0f34"/><path d="m199.37 125a17.84 17.84 0 0 0 -13.37 3.65 5.14 5.14 0 0 0 -1.89 3 5.34 5.34 0 0 0 3.22 1.59 17.75 17.75 0 0 0 13.38-3.64 5.11 5.11 0 0 0 1.89-3 5.4 5.4 0 0 0 -3.23-1.6z" fill="#5a99d2"/><path d="m189.59 133.89a12.79 12.79 0 0 1 -2.36-.21 5.91 5.91 0 0 1 -3.5-1.76l-.13-.15v-.2a5.61 5.61 0 0 1 2-3.26 18.43 18.43 0 0 1 13.8-3.76 5.91 5.91 0 0 1 3.5 1.76l.13.15v.2a5.58 5.58 0 0 1 -2 3.26c-2.71 2.4-7.42 3.97-11.44 3.97zm-5-2.4a5.22 5.22 0 0 0 2.8 1.27 17.25 17.25 0 0 0 13-3.52 5 5 0 0 0 1.7-2.5 5.22 5.22 0 0 0 -2.8-1.27 17.26 17.26 0 0 0 -13 3.53 5 5 0 0 0 -1.68 2.49z" fill="#1b0f34"/><path d="m202.92 135.59-.83-2.85.92-.25.83 2.84z" fill="#5a99d2"/><path d="m183.06 138.39-.82-2.85.92-.25.83 2.85z" fill="#5a99d2"/><path d="m193.09 125.26-.54-1.84.93-.25.54 1.84z" fill="#5a99d2"/><path d="m185.8 129.07.46 1.57 2.47.19.56-1.93 9.15 2.25a13.07 13.07 0 0 0 1.74-1.14l.71-.7-.45-1.56-11.7-1.43z" fill="#1b0f34"/><path d="m198.54 131.62-8.9-2.19-.56 1.89-3.2-.25-.62-2.14 3.34-3.13 12.25 1.49.61 2.12-.9.9a14.79 14.79 0 0 1 -1.85 1.22zm-9.4-3.24h.3l9 2.2a12.35 12.35 0 0 0 1.51-1l.47-.47-.29-1-11.15-1.36-2.59 2.44.28 1 1.74.13.49-1.67z" fill="#1b0f34"/><path d="m188.86 127.31-.57 1.92-2.47-.19.84-2.67 1.68-1.67 12.15 3-2 2z" fill="#fff"/><path d="m198.64 130.2-9.46-2.33-.55 1.89-3.46-.27 1-3.33 2-2 12.65 3.11.22.51zm-10-3.38h.3l9.36 2.3 1.2-1.19-11.07-2.72-1.41 1.39-.62 2 1.47.11.5-1.67z" fill="#1b0f34"/><path d="m201.39 136.51-.83-2.85.93-.25.83 2.85z" fill="#5a99d2"/><path d="m241.74 129.28c-.92-2-2.53-2.08-6.13-3.89a22.81 22.81 0 0 0 -10-2.42c-3.46 0-5.58 0-7.33 1.11l-2 .42-1 3.47v.09c-.57 2.36.81 5.06 4.31 7.63a21.37 21.37 0 0 0 12.16 4c6.18.14 9.88-1.93 10.75-4.75l.05-.14.91-3.33z" fill="#1b0f34"/><path d="m232.36 140.18h-.59a22 22 0 0 1 -12.44-4.12c-3.53-2.59-5.13-5.47-4.49-8.1v-.11l1-3.74 2.17-.47c1.9-1.18 4.27-1.17 7.53-1.14a23.25 23.25 0 0 1 10.29 2.5c1 .51 1.84.87 2.58 1.19 1.87.81 3 1.3 3.75 2.87l1.86 2.34-1 3.73c-1.02 3.17-5.02 5.05-10.66 5.05zm-15.7-15.28-.87 3.19c-.55 2.33.91 4.87 4.12 7.23a21 21 0 0 0 11.88 3.93c5.46.14 9.4-1.58 10.27-4.43l.06-.15.85-3.08-1.67-2.12c-.59-1.29-1.49-1.68-3.29-2.45-.75-.33-1.6-.7-2.63-1.21a22.41 22.41 0 0 0 -9.81-2.38c-3.55 0-5.46 0-7.06 1l-.16.07z" fill="#1b0f34"/><path d="m241 125.1c4.5 4.32 3.18 9.13-2.95 10.73s-14.75-.61-19.25-4.94-3.17-9.13 3-10.73 14.68.61 19.2 4.94z" fill="#fff"/><path d="m233.71 136.81c-5.51 0-11.68-2.14-15.27-5.59-2.3-2.21-3.24-4.64-2.63-6.84s2.66-3.85 5.8-4.67c6.27-1.64 15.11.63 19.71 5.06 2.31 2.21 3.24 4.64 2.64 6.84s-2.66 3.85-5.8 4.67a17.74 17.74 0 0 1 -4.45.53zm-7.61-16.71a16.59 16.59 0 0 0 -4.24.51c-2.79.73-4.61 2.15-5.12 4s.33 4 2.38 5.94c4.39 4.22 12.82 6.38 18.79 4.82 2.79-.73 4.61-2.15 5.12-4s-.34-4-2.39-5.94c-3.42-3.29-9.29-5.33-14.54-5.33z" fill="#1b0f34"/><path d="m237.5 126.45a17.75 17.75 0 0 0 -13.44-3.45c-4.21.85-5 3.78-1.8 6.55a17.81 17.81 0 0 0 13.44 3.45c4.21-.86 5.02-3.79 1.8-6.55z" fill="#1b0f34"/><path d="m233.21 133.69c-4 0-8.58-1.48-11.27-3.8-1.69-1.45-2.42-3-2-4.45s1.83-2.45 4.05-2.9a18.38 18.38 0 0 1 13.86 3.56c1.7 1.45 2.42 3 2 4.45s-1.82 2.45-4 2.9a13.4 13.4 0 0 1 -2.64.24zm-6.61-10.47a12.64 12.64 0 0 0 -2.44.23c-1.85.38-3 1.17-3.31 2.23s.32 2.31 1.73 3.52a17.34 17.34 0 0 0 13 3.34c1.84-.38 3-1.17 3.31-2.23s-.33-2.31-1.74-3.52a17.5 17.5 0 0 0 -10.55-3.57z" fill="#1b0f34"/><path d="m237 128.4a17.82 17.82 0 0 0 -13.48-3.4 5.43 5.43 0 0 0 -3.19 1.63 5.14 5.14 0 0 0 1.93 3 17.81 17.81 0 0 0 13.44 3.37 5.46 5.46 0 0 0 3.2-1.63 5.14 5.14 0 0 0 -1.9-2.97z" fill="#5a99d2"/><path d="m233.21 133.69c-4 0-8.58-1.48-11.27-3.8a5.65 5.65 0 0 1 -2.09-3.23v-.2l.12-.15a5.9 5.9 0 0 1 3.47-1.81 18.39 18.39 0 0 1 13.87 3.56 5.57 5.57 0 0 1 2.08 3.23v.2l-.12.15a5.9 5.9 0 0 1 -3.48 1.81 13.4 13.4 0 0 1 -2.58.24zm-12.36-7a5 5 0 0 0 1.73 2.47 17.34 17.34 0 0 0 13 3.34 5.28 5.28 0 0 0 2.77-1.32 5 5 0 0 0 -1.74-2.47 17.27 17.27 0 0 0 -13-3.34 5.25 5.25 0 0 0 -2.76 1.36z" fill="#1b0f34"/><path d="m235.37 139.49-.93-.24.79-2.86.93.24z" fill="#5a99d2"/><path d="m216.81 132.14-.93-.24.78-2.86.94.24z" fill="#5a99d2"/><path d="m232.36 125.77-.94-.24.51-1.84.93.23z" fill="#5a99d2"/><path d="m223.14 125.23-.43 1.57 2 1.37 1.5-1.37 6.69 6.43a14.3 14.3 0 0 0 2.1-.12l1-.26.43-1.57-9.31-7z" fill="#1b0f34"/><path d="m233.18 133.69h-.41l-6.51-6.27-1.48 1.35-2.62-1.77.59-2.15 4.53-1 9.75 7.3-.58 2.13-1.26.33a13.49 13.49 0 0 1 -2.01.08zm0-.93a13.35 13.35 0 0 0 1.82-.12l.66-.18.27-1-8.88-6.65-3.51.82-.28 1 1.43 1 1.3-1.19.39-.11.24.18z" fill="#1b0f34"/><path d="m226.71 125.22-1.5 1.38-2-1.38 2.13-1.89 2.33-.61 8.88 8.54-2.73.72z" fill="#fff"/><path d="m233.6 132.51-6.91-6.65-1.48 1.35-2.83-1.93 2.65-2.36 2.71-.71 9.25 8.9-.07.47-.23.11zm-6.79-7.8.24.18 6.84 6.58 1.66-.44-8.1-7.78-1.94.51-1.6 1.42 1.21.83 1.3-1.2z" fill="#1b0f34"/><path d="m233.57 139.53-.93-.24.79-2.86.93.24z" fill="#5a99d2"/><path d="m222.86 136c-2.08-.93-3.32.06-7.26 1a22.5 22.5 0 0 0 -9.19 4.58c-2.62 2.2-4.2 3.56-4.74 5.52l-1.19 1.58 1.67 3.21v.07c1.18 2.14 4.06 3.28 8.45 3a21.31 21.31 0 0 0 11.87-4.75c4.74-3.85 6.09-7.76 4.82-10.44l-.06-.13-1.59-3.09z" fill="#1b0f34"/><path d="m209.31 155.49c-3.7 0-6.35-1.14-7.54-3.27l-.05-.08-1.8-3.47 1.31-1.73c.62-2.11 2.4-3.6 4.86-5.67a23 23 0 0 1 9.39-4.68c1.1-.27 2-.53 2.75-.76 2-.59 3.15-1 4.78-.23l3 .56 1.77 3.46c1.5 3.12-.35 7.23-4.95 11a21.83 21.83 0 0 1 -12.14 4.86c-.47-.01-.93.01-1.38.01zm-8.26-6.73 1.53 3c1.18 2.1 4 3.08 8 2.79a20.84 20.84 0 0 0 11.59-4.64c4.18-3.39 6-7.18 4.69-9.88l-.07-.16-1.43-2.87-2.7-.53c-1.32-.59-2.27-.3-4.15.26-.78.24-1.67.5-2.79.77a22 22 0 0 0 -9 4.49c-2.67 2.24-4.09 3.49-4.58 5.28l-.08.16z" fill="#1b0f34"/><path d="m219.43 133.38c6.34.38 8.64 4.83 5.13 9.94s-11.48 9-17.82 8.59-8.63-4.82-5.13-9.94 11.48-8.97 17.82-8.59z" fill="#fff"/><path d="m207.59 152.4c-.29 0-.59 0-.88 0-3.24-.19-5.61-1.41-6.66-3.44s-.64-4.6 1.16-7.22c3.58-5.23 11.77-9.18 18.25-8.79 3.24.19 5.61 1.41 6.66 3.45s.64 4.59-1.16 7.21c-3.42 4.97-11.04 8.79-17.37 8.79zm11-18.58c-6 0-13.29 3.65-16.55 8.41-1.59 2.33-2 4.56-1.09 6.28s3 2.76 5.85 2.93c6.16.38 14-3.39 17.39-8.38 1.6-2.33 2-4.56 1.1-6.28s-3-2.76-5.86-2.93z" fill="#1b0f34"/><path d="m217.74 136.62a17.57 17.57 0 0 0 -12.44 6c-2.57 3.33-1.17 6 3.13 6.07a17.62 17.62 0 0 0 12.44-6c2.57-3.34 1.13-6.06-3.13-6.07z" fill="#1b0f34"/><path d="m208.47 149.14c-2.27 0-3.9-.74-4.58-2s-.3-3 1.06-4.76c2.64-3.41 8.37-6.18 12.79-6.18 2.28 0 3.9.74 4.58 2s.3 3-1.06 4.76c-2.64 3.41-8.37 6.18-12.79 6.18zm9.23-12.06a17.1 17.1 0 0 0 -12 5.81c-1.12 1.46-1.47 2.81-1 3.79s1.82 1.52 3.71 1.53c4.17 0 9.57-2.59 12.06-5.81 1.13-1.46 1.47-2.81 1-3.79s-1.82-1.52-3.71-1.53z" fill="#1b0f34"/><path d="m218.68 138.43a17.58 17.58 0 0 0 -12.44 6 5 5 0 0 0 -1.28 3.26 5.46 5.46 0 0 0 3.47 1 17.62 17.62 0 0 0 12.44-6 5 5 0 0 0 1.28-3.27 5.52 5.52 0 0 0 -3.47-.99z" fill="#5a99d2"/><path d="m208.47 149.14a6 6 0 0 1 -3.78-1.09l-.16-.13v-.2a5.51 5.51 0 0 1 1.37-3.57c2.65-3.43 8.4-6.18 12.83-6.19a6 6 0 0 1 3.78 1.1l.16.12v.2a5.51 5.51 0 0 1 -1.37 3.58c-2.68 3.41-8.41 6.18-12.83 6.18zm-3-1.68a5.28 5.28 0 0 0 3 .75c4.17 0 9.57-2.59 12.06-5.81a4.92 4.92 0 0 0 1.18-2.76 5.28 5.28 0 0 0 -3-.74 17.09 17.09 0 0 0 -12 5.81 4.83 4.83 0 0 0 -1.27 2.75z" fill="#1b0f34"/><path d="m224.21 148.18-1.37-2.65.86-.41 1.37 2.64z" fill="#5a99d2"/><path d="m205.25 154.52-1.37-2.65.87-.41 1.37 2.64z" fill="#5a99d2"/><path d="m212.56 139.81-.89-1.71.87-.41.88 1.71z" fill="#5a99d2"/><path d="m206.14 144.88.75 1.45 2.46-.26.18-2 9.43.56a13.62 13.62 0 0 0 1.49-1.44l.56-.82-.75-1.45-11.76.72z" fill="#1b0f34"/><path d="m206.6 146.82-1-2 2.68-3.68 12.31-.74 1 2-.71 1a13.48 13.48 0 0 1 -1.58 1.53l-.14.12-9.18-.54-.18 2zm.1-1.9.47.91 1.73-.18.16-1.73.22-.33h.3l9.23.54a12.88 12.88 0 0 0 1.29-1.26l.37-.55-.48-.94-11.21.69z" fill="#1b0f34"/><path d="m208.8 142.59-.18 2-2.46.26.3-2.78 1.33-1.95 12.51.74-1.56 2.28z" fill="#fff"/><path d="m205.59 145.4.38-3.47 1.55-2.26 13 .77.27.43-.12.23-1.67 2.56-9.74-.58-.18 2zm1.31-3.14-.22 2.09 1.47-.16.16-1.73.23-.32h.29l9.64.56.95-1.38-11.4-.67z" fill="#1b0f34"/><path d="m222.89 149.36-1.37-2.65.86-.41 1.37 2.64z" fill="#5a99d2"/></svg>