<svg height="300" viewBox="0 0 1000 1000" width="300" xmlns="http://www.w3.org/2000/svg"><path d="m784.49 536.89-145.44-55.01c-10.05-3.8-15.12-15.03-11.32-25.08l76.14-201.32c3.8-10.05 15.03-15.12 25.08-11.32l92.24 34.89 43.57 100.6-55.18 145.92c-3.81 10.05-15.03 15.12-25.09 11.32z" fill="#f5f5f5"/><path d="m821.19 279.05-21.43 56.66c-3.53 9.35 1.18 19.79 10.53 23.33l54.47 20.61z" fill="#ebebeb"/><path d="m798.63 340.96c-3.95 8.98-1.27 16.95 8.02 23.91.52.39 1.08.74 1.64 1.08 6.63 3.96 50.31 30 50.71 28.92.3-.77 2.22-5.85 5.76-15.22l-54.48-20.61c-8.95-3.74-12.83-9.76-11.65-18.08z" fill="#e0e0e0"/><path d="m788.44 328.78c-.27.73-15.56-4.38-34.14-11.4-18.59-7.03-33.42-13.32-33.15-14.05.28-.72 15.56 4.38 34.15 11.41 18.58 7.03 33.42 13.32 33.14 14.04z" fill="#e0e0e0"/><path d="m819.79 377.25c-.28.73-25.3-8.05-55.88-19.62s-55.15-21.53-54.87-22.26c.27-.73 25.28 8.06 55.87 19.62 30.58 11.57 55.15 21.54 54.88 22.26z" fill="#e0e0e0"/><path d="m819.64 407.78c-.27.72-27.52-8.91-60.85-21.51-33.35-12.61-60.15-23.42-59.87-24.15.27-.73 27.52 8.9 60.86 21.51 33.33 12.61 60.14 23.42 59.86 24.15z" fill="#e0e0e0"/><path d="m810.1 433.01c-.28.73-27.53-8.9-60.86-21.5-33.34-12.61-60.14-23.42-59.87-24.15.28-.73 27.52 8.9 60.87 21.51 33.33 12.61 60.13 23.42 59.86 24.14z" fill="#e0e0e0"/><path d="m800.55 458.25c-.27.73-27.52-8.9-60.85-21.51-33.35-12.61-60.15-23.41-59.87-24.14.27-.73 27.52 8.9 60.86 21.51 33.33 12.6 60.14 23.42 59.86 24.14z" fill="#e0e0e0"/><path d="m791.01 483.49c-.28.73-27.53-8.9-60.86-21.51-33.34-12.61-60.14-23.42-59.87-24.14.28-.73 27.52 8.9 60.87 21.51 33.33 12.6 60.13 23.41 59.86 24.14z" fill="#e0e0e0"/><path d="m404.12 626.64-191.75 67.14c-6.63 2.32-13.89-1.17-16.21-7.81l-96.21-274.73c-2.32-6.63 1.17-13.89 7.81-16.21l191.74-67.15c6.64-2.32 13.9 1.17 16.22 7.81l96.2 274.73c2.33 6.63-1.17 13.89-7.8 16.22z" fill="#ebebeb"/><path d="m397.33 617.27-185.49 64.96-95.36-272.32 185.49-64.95z" fill="#e0e0e0"/><path d="m392.19 610.78-185.49 64.96-93.54-267.11 185.49-64.96z" fill="#fafafa"/><path d="m392.19 610.78c-.79-2.23-38.45-109.46-93.79-267.02l.34.16c-56.26 19.71-119.2 41.76-185.46 64.97l-.02.01.18-.37c34.96 100.33 67.5 192.99 93.48 267.13l-.3-.14c112.82-39.36 183.75-64.1 185.57-64.74-1.82.64-72.68 25.55-185.41 65.18l-.22.08-.08-.23c-25.98-74.13-58.45-166.79-93.59-267.09l-.1-.27.28-.1.02-.01c66.27-23.19 129.21-45.22 185.47-64.92l.25-.09.09.26c55.04 157.66 92.51 264.96 93.29 267.19z" fill="#e0e0e0"/><path d="m326.39 633.82c27.54-23.22 43.69-46.93 48.47-71.12-7.65 11.99-19.42 19.08-35.32 21.27-.55 25.39-4.93 42.01-13.15 49.85z" fill="#e0e0e0"/><path d="m184.51 490.82-9.77 3.42c-3.56 1.25-7.46-.63-8.71-4.19l-3.42-9.77c-1.25-3.57.63-7.47 4.19-8.71l9.77-3.43c3.56-1.24 7.46.63 8.71 4.2l3.42 9.77c1.25 3.56-.63 7.46-4.19 8.71z" fill="#ebebeb"/><path d="m175.38 484.96c-.01 0-.01 0-.02.01-.15.04-.31.02-.45-.05l-4.47-2.6c-.27-.15-.36-.5-.2-.76.15-.27.49-.36.76-.21l3.94 2.29 4.73-10.1c.13-.28.46-.41.74-.27.28.13.4.46.27.74l-4.98 10.66c-.06.14-.18.24-.32.29z" fill="#fff"/><path d="m303.47 426.81c.05.15-24.04 8.72-53.8 19.14-29.77 10.43-53.94 18.75-54 18.6-.05-.15 24.04-8.72 53.81-19.15 29.76-10.42 53.93-18.75 53.99-18.59z" fill="#e0e0e0"/><path d="m246.9 465.23c.01.04-.61.3-1.75.73-1.23.46-2.86 1.06-4.83 1.8-4.1 1.48-9.76 3.5-16.03 5.7-6.27 2.19-11.96 4.15-16.09 5.54-2 .66-3.65 1.2-4.9 1.62-1.16.37-1.8.55-1.82.51-.01-.03.61-.29 1.75-.73 1.23-.45 2.86-1.06 4.83-1.79 4.1-1.49 9.76-3.51 16.03-5.7 6.27-2.2 11.96-4.15 16.09-5.54 1.99-.66 3.65-1.21 4.9-1.62 1.16-.37 1.8-.56 1.82-.52z" fill="#e0e0e0"/><path d="m306.04 434.15c.05.16-24.04 8.73-53.8 19.15-29.77 10.43-53.94 18.75-53.99 18.6s24.03-8.72 53.8-19.15c29.76-10.42 53.94-18.75 53.99-18.6z" fill="#e0e0e0"/><path d="m198.45 530.62-9.77 3.42c-3.57 1.25-7.47-.63-8.72-4.2l-3.42-9.76c-1.24-3.57.63-7.47 4.2-8.72l9.77-3.42c3.56-1.24 7.46.63 8.71 4.2l3.42 9.76c1.25 3.57-.63 7.47-4.19 8.72z" fill="#ebebeb"/><path d="m189.31 524.76h-.01c-.15.05-.32.03-.45-.05l-4.48-2.59c-.26-.15-.35-.5-.2-.76.16-.27.5-.36.77-.21l3.94 2.29 4.73-10.11c.13-.27.46-.4.74-.27.28.14.4.47.27.75l-4.98 10.66c-.07.13-.18.24-.33.29z" fill="#fff"/><path d="m317.4 466.6c.06.16-24.03 8.73-53.79 19.15-29.78 10.43-53.95 18.75-54 18.6s24.03-8.72 53.8-19.15c29.77-10.42 53.94-18.75 53.99-18.6z" fill="#e0e0e0"/><path d="m260.83 505.03c.02.04-.6.3-1.74.73-1.24.46-2.87 1.06-4.84 1.79-4.09 1.49-9.76 3.51-16.03 5.71-6.27 2.19-11.96 4.15-16.08 5.54-2 .66-3.65 1.2-4.9 1.62-1.16.37-1.81.55-1.82.51-.01-.03.61-.29 1.75-.73 1.23-.46 2.86-1.06 4.83-1.79 4.09-1.49 9.76-3.51 16.03-5.7 6.27-2.2 11.96-4.16 16.09-5.55 1.99-.65 3.64-1.2 4.89-1.61 1.16-.37 1.81-.56 1.82-.52z" fill="#e0e0e0"/><path d="m319.98 473.95c.05.16-24.04 8.73-53.8 19.15-29.77 10.43-53.94 18.75-53.99 18.6-.06-.15 24.03-8.72 53.8-19.15 29.76-10.42 53.93-18.75 53.99-18.6z" fill="#e0e0e0"/><path d="m212.38 570.42-9.77 3.42c-3.56 1.24-7.46-.63-8.71-4.2l-3.42-9.76c-1.25-3.57.63-7.47 4.19-8.72l9.77-3.42c3.57-1.25 7.47.63 8.71 4.2l3.42 9.76c1.25 3.57-.62 7.47-4.19 8.72z" fill="#ebebeb"/><path d="m203.25 564.56c-.01 0-.01 0-.02 0-.15.05-.31.03-.45-.05l-4.47-2.59c-.27-.16-.36-.5-.2-.77.15-.26.5-.35.76-.2l3.95 2.29 4.72-10.11c.13-.28.47-.4.75-.27s.4.47.27.75l-4.99 10.66c-.06.13-.18.24-.32.29z" fill="#fff"/><path d="m331.34 506.4c.05.15-24.04 8.73-53.8 19.15-29.77 10.43-53.94 18.75-53.99 18.6-.06-.15 24.03-8.72 53.8-19.15 29.76-10.42 53.94-18.75 53.99-18.6z" fill="#e0e0e0"/><path d="m274.77 544.83c.01.04-.61.3-1.75.73-1.23.46-2.86 1.06-4.83 1.79-4.09 1.49-9.76 3.51-16.03 5.71-6.27 2.19-11.96 4.15-16.09 5.54-1.99.66-3.64 1.2-4.89 1.61-1.16.37-1.81.56-1.82.52-.02-.04.6-.29 1.74-.73 1.24-.46 2.87-1.06 4.84-1.79 4.09-1.49 9.76-3.51 16.03-5.7 6.27-2.2 11.95-4.16 16.08-5.55 2-.66 3.65-1.2 4.9-1.61 1.16-.37 1.81-.56 1.82-.52z" fill="#e0e0e0"/><path d="m333.91 513.75c.06.15-24.03 8.73-53.79 19.15-29.78 10.42-53.95 18.75-54 18.6s24.03-8.73 53.8-19.15 53.94-18.75 53.99-18.6z" fill="#e0e0e0"/><path d="m226.32 610.21-9.77 3.43c-3.56 1.24-7.46-.63-8.71-4.2l-3.42-9.77c-1.25-3.56.63-7.46 4.19-8.71l9.77-3.42c3.56-1.25 7.46.63 8.71 4.19l3.42 9.77c1.25 3.57-.63 7.47-4.19 8.71z" fill="#ebebeb"/><path d="m217.19 604.36c-.01 0-.01 0-.02 0-.15.05-.31.03-.45-.05l-4.47-2.59c-.27-.16-.36-.5-.21-.77.16-.26.5-.35.77-.2l3.94 2.29 4.73-10.11c.13-.28.46-.4.74-.27s.4.47.27.75l-4.98 10.65c-.06.14-.18.25-.32.3z" fill="#fff"/><path d="m345.28 546.2c.05.15-24.04 8.73-53.8 19.15-29.77 10.42-53.94 18.75-54 18.6-.05-.15 24.03-8.73 53.81-19.15 29.76-10.42 53.93-18.75 53.99-18.6z" fill="#e0e0e0"/><path d="m288.71 584.63c.01.04-.61.29-1.75.73-1.23.46-2.86 1.06-4.84 1.79-4.09 1.49-9.75 3.51-16.02 5.7-6.27 2.2-11.96 4.16-16.09 5.55-2 .66-3.65 1.2-4.9 1.61-1.16.37-1.81.56-1.82.52s.61-.3 1.75-.73c1.23-.46 2.86-1.06 4.83-1.79 4.1-1.49 9.76-3.51 16.03-5.71 6.27-2.19 11.96-4.15 16.09-5.54 1.99-.66 3.64-1.2 4.9-1.61 1.16-.37 1.8-.56 1.82-.52z" fill="#e0e0e0"/><path d="m347.85 553.55c.05.15-24.04 8.73-53.8 19.15-29.77 10.42-53.94 18.75-53.99 18.6s24.03-8.73 53.8-19.15c29.76-10.42 53.94-18.75 53.99-18.6z" fill="#e0e0e0"/><path d="m134.17 382.6 4.9 13.99c2.84 8.11 11.72 12.38 19.83 9.54l102.6-35.92c8.11-2.84 12.39-11.72 9.54-19.84l-4.88-13.95z" fill="#e0e0e0"/><path d="m201.53 363.65c-7.59 2.66-15.94-1.36-18.6-8.95-2.66-7.6 1.36-15.94 8.95-18.6 7.6-2.66 15.94 1.36 18.6 8.95 2.66 7.6-1.35 15.94-8.95 18.6zm-7.8-22.27c-4.68 1.64-7.15 6.79-5.51 11.47 1.63 4.68 6.78 7.16 11.46 5.52s7.16-6.79 5.52-11.47-6.78-7.16-11.47-5.52z" fill="#e0e0e0" fill-rule="evenodd"/><path d="m283.54 399.92c.09.27-26.96 9.98-60.42 21.7-33.47 11.72-60.66 21-60.76 20.73-.09-.26 26.96-9.97 60.42-21.69s60.66-21 60.76-20.74z" fill="#e0e0e0"/><path d="m248.89 404.9c.09.26-11.82 4.67-26.6 9.85s-26.84 9.16-26.93 8.89c-.09-.26 11.81-4.67 26.6-9.85 14.78-5.18 26.84-9.16 26.93-8.89z" fill="#e0e0e0"/><path d="m781.91 810.16c7.18-3.7 15.64-4.19 23.61-2.87 4.29.71 8.75 1.99 11.67 5.21 2.91 3.22 3.46 8.88.12 11.65-2 1.64-4.77 1.89-7.36 1.86-6.24-.07-13.17-1.17-18.16 2.59-2.84 2.14-4.73 5.7-8.14 6.76-3.33 1.03-7.08-.94-8.85-3.94-1.76-3-1.82-6.76-1-10.14.58-4.92 3.28-8.63 8.11-11.12z" fill="#ff725e"/><path d="m765.45 778.39c4.39 6.28 12.93 4.2 16.89.37 3.95-3.83 5.63-9.38 7.15-14.67 3.48-12.09 6.99-24.78 4.4-37.09-.77-3.68-2.15-7.35-4.74-10.08-2.58-2.74-6.56-4.36-10.2-3.4-4.3 1.14-6.98 5.35-8.91 9.36-5.68 11.79-8.69 24.86-8.74 37.95-.02 6.11.7 12.52 4.15 17.56z" fill="#ff725e"/><path d="m753.39 787.4c4.77-5.66 5.67-13.92 3.55-21.01s-6.92-13.12-12.44-18.05c-6.48-5.77-14.1-10.26-22.28-13.14-3.22-1.14-6.62-2.03-10.02-1.7-3.4.32-6.82 2.06-8.41 5.08-2.34 4.47-.1 9.9 2.34 14.32 4.28 7.8 9.18 15.26 14.63 22.29 4.38 5.65 9.41 11.23 16.09 13.78 6.69 2.56 13.63 2.26 17.17-2.38" fill="#ff725e"/><path d="m765.15 873.02c.08.01.22-1.01.4-2.85.2-2.07.45-4.68.76-7.78.36-3.27.84-7.16 1.75-11.41.9-4.23 2.32-8.81 4.14-13.46 1.89-4.63 4.19-8.83 6.88-12.19 2.67-3.38 5.78-5.82 8.69-7.23 2.91-1.43 5.52-2.02 7.33-2.28 1.82-.18 2.83-.33 2.83-.41.01-.08-1.01-.09-2.88-.04-1.85.12-4.57.59-7.64 1.98-3.07 1.37-6.37 3.85-9.17 7.29-2.82 3.44-5.21 7.73-7.13 12.44-1.85 4.73-3.25 9.36-4.12 13.68-.86 4.32-1.25 8.26-1.51 11.56-.25 3.3-.34 5.98-.39 7.83-.04 1.85-.02 2.87.06 2.87z" fill="#263238"/><path d="m765.69 867.04c.04 0 .06-.46.07-1.32 0-1 0-2.25-.01-3.79-.01-3.28 0-8.03.17-13.89.29-11.74 1.3-24.36 3.25-42.16 1.85-16.74 4.33-36.22 6.95-48.88.56-2.89 1.12-5.48 1.66-7.75.5-2.27.94-4.23 1.35-5.82.36-1.49.66-2.71.89-3.68.19-.84.27-1.29.23-1.3s-.2.41-.46 1.24c-.29.95-.65 2.15-1.1 3.62-.48 1.58-.98 3.52-1.55 5.79-.6 2.26-1.22 4.85-1.84 7.72-2.58 11.48-5.33 27.52-7.3 45.36-1.95 17.84-2.83 34.08-2.91 45.84-.07 5.88.06 10.64.21 13.92.09 1.54.17 2.79.23 3.79.06.86.12 1.31.16 1.31z" fill="#263238"/><path d="m765.77 835.71c.08 0 .06-1.4-.03-3.95-.15-2.54-.5-6.21-1.21-10.7-.76-4.49-1.82-9.81-3.48-15.6-.72-2.64-2.42-8.98-6.53-18.45-5.41-12.84-12.75-23.33-19.15-29.83-1.5-1.72-3.17-2.97-4.5-4.19-.7-.58-1.31-1.16-1.93-1.62-.62-.44-1.21-.84-1.75-1.21-2.1-1.44-3.28-2.2-3.32-2.13-.19.26 4.71 3.14 10.9 9.73 6.16 6.57 13.31 16.99 18.67 29.71 3 6.91 5.08 13.06 6.56 18.29 1.71 5.73 2.85 11 3.71 15.44.81 4.45 1.29 8.08 1.57 10.6.24 2.52.41 3.92.49 3.91z" fill="#263238"/><path d="m735.49 890.97 3.14 43h55.24l3.14-43z" fill="#263238"/><path d="m730.15 874.02v16.95h73.45v-16.95z" fill="#263238"/><path d="m730.15 932.33v4.7h3.45 68.79v-4.7z" fill="#455a64"/><path d="m736.99 945.3-3.39-8.27h66.16l-3.95 8.27z" fill="#455a64"/><path d="m795.99 905.03c.01.01-.08.14-.26.39-.22.29-.49.65-.83 1.1-.78 1-1.86 2.38-3.22 4.11l-.14.19-.14-.19c-2.02-2.8-4.72-6.54-7.9-10.94h.45c-2.35 3.33-4.97 7.04-7.78 11.02l-.25.35-.27-.33c-2.87-3.41-5.99-7.13-9.23-10.98l.53-.01c-.16.2-.33.42-.51.64-2.86 3.59-5.63 7.06-8.25 10.35l-.28.34-.25-.35c-2.81-3.97-5.42-7.67-7.79-11.02l.45.02c-3.84 4.37-7.09 8.08-9.59 10.93l-.17.19-.13-.22c-1.26-2.12-2.27-3.82-3-5.04-.32-.55-.57-.99-.77-1.35-.17-.3-.25-.47-.24-.48.02-.01.12.14.32.43.23.34.51.77.86 1.29.76 1.21 1.82 2.87 3.15 4.96l-.3-.03c2.46-2.88 5.66-6.63 9.44-11.06l.23-.28.22.3c2.39 3.34 5.03 7.02 7.86 10.97l-.53-.01c2.61-3.29 5.38-6.77 8.23-10.37.18-.22.35-.43.51-.64l.26-.32.27.32c3.23 3.86 6.35 7.58 9.21 11l-.52.02c2.84-3.96 5.49-7.65 7.87-10.96l.23-.32.22.32c3.11 4.45 5.76 8.22 7.74 11.05l-.28-.01c1.41-1.69 2.53-3.03 3.35-4.01.36-.42.66-.76.89-1.04.21-.23.32-.34.34-.33z" fill="#e0e0e0"/><path d="m797.78 890.69c0 .19-13.84.34-30.91.34-17.08 0-30.92-.15-30.92-.34s13.84-.35 30.92-.35c17.07 0 30.91.16 30.91.35z" fill="#455a64"/><path d="m800.57 937.49c0 .19-15.04.34-33.6.34s-33.6-.15-33.6-.34 15.04-.34 33.6-.34 33.6.15 33.6.34z" fill="#263238"/><path d="m255.6 800.3c-.15.18-1.42-.57-2.82-1.7-1.41-1.12-2.42-2.19-2.27-2.38.15-.18 1.41.57 2.82 1.7 1.4 1.12 2.42 2.19 2.27 2.38z" fill="#263238"/><path d="m293.91 743.03c.23-5.35.38-10.84-1.31-15.92s-5.61-9.76-10.85-10.84c-5.98-1.24-12.12 2.54-15.47 7.65-3.36 5.11-4.51 11.31-5.5 17.34-6.83 41.56-9.35 83.83-7.51 125.91l24.49 3.43c10.76-43.95 14.19-82.36 16.15-127.57z" fill="#455a64"/><path d="m278.35 716.08c.01.01-.02.14-.11.39-.11.3-.24.66-.4 1.11-.4 1.04-.95 2.45-1.64 4.23-.34.92-.79 1.92-1.16 3.06-.36 1.15-.76 2.38-1.19 3.71s-.88 2.76-1.37 4.26c-.4 1.54-.82 3.16-1.26 4.86-1.85 6.78-3.38 15.03-4.73 24.23-1.33 9.22-2.2 19.42-2.88 30.14-1.25 21.45-1.45 40.93-2 55.02-.26 7.04-.51 12.74-.77 16.67-.13 1.91-.24 3.42-.31 4.53-.04.48-.08.86-.1 1.18-.03.26-.05.4-.07.4-.01 0-.02-.14-.02-.41 0-.31.01-.7.01-1.18.04-1.11.08-2.62.15-4.53.16-3.94.31-9.64.49-16.68.39-14.08.49-33.56 1.74-55.06.69-10.73 1.58-20.96 2.96-30.19 1.4-9.22 3-17.49 4.93-24.28.46-1.7.91-3.32 1.33-4.86.51-1.5.99-2.92 1.44-4.25.45-1.32.87-2.56 1.26-3.7s.87-2.13 1.24-3.04c.75-1.76 1.35-3.16 1.78-4.18.2-.43.36-.79.49-1.08.11-.24.18-.36.19-.35z" fill="#263238"/><path d="m280.62 716.09c1 1.03 2 2.72 2.99 5.07 1.54 3.5 2.51 9.06 2.24 15.84-.66 13.54-1.87 32.19-3.48 52.78-1.62 20.59-3.41 39.2-4.86 52.66-.72 6.73-1.35 12.17-1.81 15.92-.23 1.82-.42 3.26-.55 4.33-.07.44-.12.81-.17 1.12-.04.25-.07.38-.09.38-.01-.01-.01-.14 0-.39.02-.31.05-.68.08-1.13.1-1.07.23-2.52.39-4.34.37-3.85.89-9.28 1.54-15.95 1.28-13.47 2.98-32.09 4.6-52.67 1.61-20.58 2.92-39.24 3.73-52.73.35-6.74-.51-12.2-1.93-15.69-1.38-3.52-2.79-5.13-2.68-5.2z" fill="#263238"/><path d="m297.6 779.48c-.08.23-2.16-.31-4.64-1.2s-4.43-1.8-4.35-2.02c.08-.23 2.16.31 4.64 1.2 2.49.89 4.43 1.79 4.35 2.02z" fill="#263238"/><path d="m300.55 754.52c.1.22-1.88 1.32-4.42 2.46-2.53 1.13-4.67 1.87-4.77 1.65s1.88-1.32 4.42-2.45c2.53-1.14 4.67-1.88 4.77-1.66z" fill="#263238"/><path d="m299.02 734.15c-.02.24-1.65.32-3.65.18-2-.13-3.61-.44-3.59-.68s1.65-.33 3.65-.19 3.61.45 3.59.69z" fill="#263238"/><path d="m273.75 721.09c-.21.13-1.28-1.2-2.4-2.98s-1.86-3.32-1.65-3.45c.2-.13 1.27 1.21 2.39 2.98 1.12 1.78 1.86 3.33 1.66 3.45z" fill="#263238"/><path d="m265.4 733.41c-.01.24-1.57.41-3.48.37-1.92-.05-3.47-.27-3.46-.52 0-.24 1.56-.4 3.48-.36 1.91.04 3.46.27 3.46.51z" fill="#263238"/><path d="m259.4 758.06c-.09.22-1.73-.23-3.66-1-1.93-.78-3.43-1.6-3.33-1.82.09-.22 1.72.23 3.66 1 1.93.78 3.42 1.6 3.33 1.82z" fill="#263238"/><path d="m258.76 778.79c.05.24-1.35.73-3.12 1.1s-3.24.48-3.29.24c-.05-.23 1.34-.73 3.11-1.1s3.25-.48 3.3-.24z" fill="#263238"/><path d="m255.94 812.7c.04.23-1.44.7-3.31 1.03-1.87.34-3.42.42-3.46.18-.05-.24 1.43-.7 3.3-1.04 1.87-.33 3.42-.41 3.47-.17z" fill="#263238"/><path d="m254.06 831.41c.12.22-1.12 1.09-2.76 1.96-1.63.86-3.05 1.39-3.16 1.18-.12-.22 1.12-1.09 2.75-1.96 1.64-.86 3.06-1.39 3.17-1.18z" fill="#263238"/><path d="m269.35 852.66c-.21.12-1.29-1.37-2.41-3.32-1.12-1.96-1.85-3.64-1.64-3.76s1.28 1.37 2.4 3.32c1.12 1.96 1.86 3.64 1.65 3.76z" fill="#263238"/><path d="m273.76 817.35c.17.18-1.03 1.63-2.68 3.24-1.65 1.62-3.12 2.79-3.29 2.61-.17-.17 1.03-1.62 2.68-3.23 1.64-1.62 3.12-2.79 3.29-2.62z" fill="#263238"/><path d="m272.78 798.83c-.18.16-1.29-.75-2.48-2.04-1.2-1.29-2.02-2.47-1.85-2.63.18-.17 1.29.75 2.49 2.04 1.19 1.29 2.02 2.47 1.84 2.63z" fill="#263238"/><path d="m275.81 775.16c.18.16-.82 1.57-2.23 3.15s-2.7 2.72-2.88 2.56.81-1.57 2.23-3.15c1.41-1.57 2.7-2.72 2.88-2.56z" fill="#263238"/><path d="m277.52 757.99c-.17.17-1.56-.93-3.12-2.45-1.55-1.53-2.67-2.9-2.5-3.07.17-.18 1.57.92 3.12 2.44 1.55 1.53 2.67 2.9 2.5 3.08z" fill="#263238"/><path d="m280.87 734.77c.21.12-.49 1.68-1.56 3.47-1.07 1.8-2.11 3.15-2.32 3.03-.2-.12.5-1.68 1.57-3.48 1.07-1.79 2.1-3.15 2.31-3.02z" fill="#263238"/><path d="m287.18 713.25c.21.11-.41 1.67-1.38 3.48-.98 1.81-1.94 3.18-2.16 3.06-.21-.11.41-1.67 1.39-3.48.97-1.8 1.94-3.18 2.15-3.06z" fill="#263238"/><path d="m294.34 723.02c.1.22-.88.91-2.19 1.53-1.31.63-2.46.96-2.57.75-.1-.22.88-.91 2.19-1.54 1.31-.62 2.46-.96 2.57-.74z" fill="#263238"/><path d="m294.51 800.3c-.05.22-2.27-.08-4.79-1.16-2.53-1.07-4.29-2.47-4.16-2.66.14-.21 2.05.82 4.5 1.85 2.44 1.05 4.51 1.72 4.45 1.97z" fill="#263238"/><path d="m291.58 816.66c.05.24-1.43.73-3.29 1.09-1.87.36-3.42.46-3.46.22-.05-.24 1.43-.72 3.29-1.08 1.87-.36 3.42-.46 3.46-.23z" fill="#263238"/><path d="m287.99 844.73c-.14.18-2.01-1.1-3.73-3.28-1.73-2.16-2.55-4.28-2.34-4.37.23-.12 1.36 1.75 3.02 3.83 1.65 2.09 3.21 3.63 3.05 3.82z" fill="#263238"/><path d="m248.62 857.56c-.16-.18.84-1.29 2.22-2.47 1.39-1.19 2.64-2 2.79-1.82.16.19-.83 1.3-2.22 2.48-1.38 1.18-2.63 2-2.79 1.81z" fill="#263238"/><path d="m237.3 796.31c-1.59-4.98-4.58-10.78-9.81-10.85-3.1-.05-5.89 2.18-7.35 4.91-1.46 2.74-2.07 5.91-1.98 9.01.6 20.48 4.14 43.91 11.23 65.24h19.12c-.24-23.7-3.98-45.74-11.21-68.31z" fill="#455a64"/><path d="m202.72 764.98c-2.67-10.69-10.65-16.47-19.91-17-8.45 1.48-11.73 9.8-12.73 18.32-1.01 8.52 1.64 17.01 4.25 25.18 8.39 26.24 16.78 52.49 25.17 78.73 7.93-.86 15.86-1.73 23.79-2.6-7.53-35.16-11.85-67.75-20.57-102.63z" fill="#455a64"/><g fill="#263238"><path d="m227.49 785.46c.08.06-.78.86-1.62 2.7-.83 1.86-1.23 4.82-.89 8.46.37 3.63.78 8.01 1.39 12.8.63 4.81 1.49 10.07 2.56 15.56 2.17 10.99 4.6 20.85 6.15 28.03.78 3.59 1.37 6.51 1.75 8.53.16.93.29 1.7.4 2.34.08.53.11.81.08.82s-.12-.27-.26-.79c-.15-.62-.33-1.38-.56-2.3-.5-2.13-1.19-4.99-2.01-8.46-1.7-7.14-4.23-16.98-6.4-28-1.08-5.51-1.93-10.79-2.51-15.62-.3-2.42-.5-4.72-.7-6.88-.18-2.14-.41-4.14-.51-5.99-.26-3.69.24-6.77 1.2-8.64.64-1.24 1.29-2.1 1.93-2.56z"/><path d="m183.16 747.3c.08.07-1.27 1.21-2.88 3.86-1.6 2.63-3.31 6.91-3.62 12.45-.36 5.54.87 12.11 2.94 19.15 2.09 7.08 4.38 14.85 6.79 23.01 4.75 16.3 9.04 31.06 12.18 41.85 1.5 5.3 2.72 9.62 3.59 12.71.39 1.44.7 2.6.94 3.47.2.8.29 1.22.27 1.23-.03.01-.18-.4-.44-1.18-.28-.86-.64-2-1.09-3.42-.94-3.08-2.26-7.37-3.87-12.63-3.2-10.78-7.58-25.51-12.42-41.78-2.38-8.17-4.65-15.95-6.72-23.04-2.04-7.08-3.24-13.77-2.79-19.41.4-5.64 2.23-9.97 3.95-12.59 1.15-1.76 2.21-2.99 3.17-3.68z"/><path d="m218.11 865.07c-.03.01-.22-.38-.54-1.14-.31-.76-.82-1.87-1.36-3.34-1.13-2.93-2.58-7.23-4.09-12.64-1.51-5.4-3-11.92-4.43-19.18-1.38-7.29-2.89-15.28-4.48-23.67-1.66-8.37-3.5-16.3-5.64-23.37-2.13-7.07-4.52-13.29-6.93-18.33-2.4-5.04-4.69-8.95-6.42-11.56-.81-1.33-1.56-2.29-2-2.99-.46-.68-.69-1.05-.67-1.07.03-.02.31.32.81.97.49.66 1.28 1.59 2.15 2.9 1.81 2.56 4.2 6.44 6.69 11.48 2.49 5.03 4.96 11.27 7.15 18.37 2.19 7.09 4.06 15.04 5.72 23.43 1.56 8.4 3.05 16.39 4.41 23.68 1.39 7.27 2.81 13.78 4.24 19.18 1.42 5.41 2.78 9.73 3.81 12.68.49 1.49.94 2.61 1.2 3.4.27.78.4 1.19.38 1.2z"/><path d="m174.76 787.55c.05.24-1.24.75-2.89 1.15-1.66.41-3.04.54-3.1.31-.06-.24 1.24-.75 2.89-1.16 1.65-.4 3.04-.53 3.1-.3z"/><path d="m172.24 771.32c-.02.24-1.81.34-4.02.43-2.2.08-4 .13-4.03-.12-.03-.23 1.75-.67 4-.75 2.25-.09 4.06.2 4.05.44z"/><path d="m174.92 756.49c-.16.18-1.45-.66-2.89-1.88s-2.48-2.35-2.32-2.54c.16-.18 1.45.66 2.89 1.88 1.43 1.22 2.47 2.35 2.32 2.54z"/><path d="m182.17 742.76c.24.06.18 1.21.14 2.61s-.04 2.56-.29 2.6c-.23.04-.63-1.13-.58-2.63.04-1.49.5-2.64.73-2.58z"/><path d="m197 749.23c.2.14-.38 1.31-1.29 2.62-.92 1.3-1.82 2.25-2.02 2.11s.38-1.31 1.3-2.62c.91-1.3 1.82-2.25 2.01-2.11z"/><path d="m206.63 765.95c.09.22-1.14.93-2.75 1.59s-2.99 1.01-3.09.79c-.09-.23 1.15-.94 2.76-1.6s2.99-1.01 3.08-.78z"/><path d="m212.47 783.15c.09.21-1.54 1.14-3.77 1.64-2.24.52-4.11.38-4.12.15-.01-.25 1.78-.51 3.92-1 2.15-.48 3.87-1.02 3.97-.79z"/><path d="m185.66 778.26c-.23-.07-.06-1.26.37-2.65.44-1.4.98-2.47 1.21-2.39.23.07.07 1.26-.37 2.65s-.98 2.47-1.21 2.39z"/><path d="m189.4 799.86c-.22-.1.26-1.7 1.08-3.58.81-1.88 1.65-3.32 1.88-3.22.22.09-.26 1.69-1.08 3.57s-1.66 3.32-1.88 3.23z"/><path d="m180.16 805.77c-.09.23-1.6-.18-3.42-.75-1.83-.57-3.3-1.1-3.25-1.34.05-.23 1.64-.08 3.51.5 1.86.58 3.26 1.37 3.16 1.59z"/><path d="m185.49 823.38c.14.2-.88 1.16-2.28 2.16s-2.64 1.65-2.78 1.45.88-1.16 2.27-2.16c1.4-1 2.65-1.65 2.79-1.45z"/><path d="m189.76 840.93c.06.24-1.2.75-2.82 1.14-1.61.39-2.96.52-3.02.28-.06-.23 1.2-.74 2.82-1.13 1.61-.39 2.96-.52 3.02-.29z"/><path d="m212.94 797.81c.12.21-.96 1.07-2.53 1.66s-2.94.66-2.99.42c-.04-.24 1.19-.68 2.68-1.24s2.71-1.05 2.84-.84z"/><path d="m216.25 825.13c-.1.22-1.39-.17-2.87-.87s-2.6-1.44-2.5-1.66c.11-.22 1.39.17 2.87.87s2.6 1.44 2.5 1.66z"/><path d="m222.09 844.67c-.08.23-1.78-.23-3.78-1.01-2.01-.79-3.56-1.61-3.47-1.83.09-.23 1.78.23 3.79 1.01 2 .79 3.55 1.61 3.46 1.83z"/><path d="m190.7 859.98c-.12-.22 1.44-1.27 3.24-2.69 1.81-1.41 3.2-2.68 3.38-2.51.18.15-.96 1.73-2.84 3.2-1.87 1.47-3.68 2.21-3.78 2z"/><path d="m206.15 850.04c-.25.03-.58-1.28-1.18-2.81-.59-1.53-1.22-2.73-1.02-2.87.19-.14 1.2.91 1.83 2.56.65 1.65.6 3.11.37 3.12z"/><path d="m202.05 826.54c-.14.19-1.14-.28-2.23-1.06-1.09-.79-1.86-1.58-1.72-1.78.15-.19 1.14.28 2.23 1.07 1.09.78 1.86 1.57 1.72 1.77z"/><path d="m238.08 789.7c.14.2-.83 1.16-2.18 2.15-1.34.99-2.54 1.63-2.69 1.44-.14-.2.83-1.16 2.17-2.15 1.35-.99 2.55-1.63 2.7-1.44z"/><path d="m243.5 804.54c.03.24-1.5.56-3.38.35-1.88-.2-3.3-.84-3.23-1.06.07-.24 1.53 0 3.32.19 1.8.2 3.28.28 3.29.52z"/><path d="m220.17 807.87c.05.23-1.36.74-3.18.86s-3.29-.19-3.26-.43c.01-.24 1.45-.33 3.2-.45 1.75-.11 3.19-.22 3.24.02z"/><path d="m222.17 793.84c-.01.23-1.44.27-3-.45-1.56-.71-2.46-1.82-2.3-1.98.17-.19 1.25.54 2.67 1.18 1.41.66 2.66 1 2.63 1.25z"/><path d="m245.51 820.48c-.13.2-1.59-.48-3.26-1.54-1.67-1.05-2.92-2.07-2.79-2.27s1.58.48 3.26 1.53c1.67 1.05 2.92 2.07 2.79 2.28z"/></g><path d="m302.45 884.19h-124.5v-22.06h124.5z" fill="#ff725e"/><path d="m187.24 879.82 15.14 65.94h74.21l16.56-65.94z" fill="#ff725e"/><path d="m302.38 884.22c0 .24-28.08.44-62.72.44s-62.72-.2-62.72-.44 28.08-.44 62.72-.44 62.72.2 62.72.44z" fill="#263238"/><path d="m233.14 808.35c-.21.13-1.06-.86-1.9-2.21-.85-1.35-1.36-2.55-1.16-2.68.21-.13 1.06.86 1.9 2.22.85 1.35 1.36 2.55 1.16 2.67z" fill="#263238"/><path d="m233.19 826.11c-.23-.08.06-1.58.65-3.35.59-1.78 1.25-3.15 1.48-3.08.23.08-.06 1.58-.65 3.35-.59 1.78-1.26 3.15-1.48 3.08z" fill="#263238"/><path d="m239.26 844.75c-.22.1-1.15-1.39-2.08-3.33-.92-1.94-1.5-3.6-1.28-3.71.21-.1 1.14 1.39 2.07 3.33s1.51 3.6 1.29 3.71z" fill="#263238"/><path d="m226.11 859.74c-.18-.16.56-1.31 1.66-2.58 1.1-1.26 2.14-2.16 2.32-2s-.56 1.31-1.66 2.58c-1.1 1.26-2.13 2.16-2.32 2z" fill="#263238"/><path d="m223.35 832.52c-.04.23-1.24.22-2.67-.03-1.44-.26-2.57-.65-2.53-.89.05-.24 1.24-.23 2.68.03 1.43.25 2.56.65 2.52.89z" fill="#263238"/><path d="m656.5 945.92h-295.24v-235.45h295.24z" fill="#e0e0e0"/><path d="m382.77 710.96c34.75 12.41 73.1 15.05 110.4 15.75 7.72.15 15.55.13 23.02 2.08 7.48 1.95 14.72 6.14 18.55 12.85 4.18 7.3 3.74 16.43 1.37 24.5s-6.49 15.51-9.46 23.38c-5.21 13.81-6.83 28.95-4.66 43.55.93 6.2 2.59 12.45 6.17 17.59 3.59 5.15 9.36 9.07 15.63 9.16 11.22.16 18.91-10.87 24.47-20.62 22.82-39.97 47.5-85.41 62.1-129.06z" opacity=".302"/><path d="m461.85 944.65c-.28 0-.52-52.18-.52-116.54 0-64.38.24-116.55.52-116.55.29 0 .52 52.17.52 116.55 0 64.36-.23 116.54-.52 116.54z" fill="#455a64"/><path d="m582.84 536.48c-.59-3.92-6.73-12.34-18.43-25.29-5.85-23.47-9.65-38.67-11.41-45.6-.65-2.59-2.06-5.54-3.81-8.5-6.13-10.39-15.11-18.8-25.62-24.71l-24.28-13.66-5.81-12.93-58.35-29.97-15.82 27.91c-25.61 8.14-40.12 15.11-43.51 20.93-3.39 5.81-2.54 47.68 2.53 125.59-10.72 44.97-17.21 72.1-19.47 81.41-2.26 9.3-1.9 19.5 1.09 30.61l28.61-35.92c8.89-11.16 28.42-16.28 42.44-16.08l119.82.52-4.77-33.56 96.89 18.84c11.11-21.67 17.11-32.72 17.98-33.16.88-.43-25.15-9.25-78.08-26.43z" fill="#ff725e"/><path d="m432.64 414.7c-.85-.86 6.77 24.85 16.32 51.03 5.15 14.11 7.73 29.07 7.73 44.14v57.64 37.15l57.45-3.9-8.58-62.45c-4.67-26.85-7.66-45.38-8.97-55.6-1.2-9.35-3.85-26.71-7.96-52.07-21.29 5.7-39.96.39-55.99-15.94z" fill="#fff"/><path d="m560.12 560.03c-.06 0-.08-.52 0-1.44.08-.93.3-2.26.75-3.87.89-3.19 2.94-7.5 6.57-11.14 3.63-3.65 7.94-5.7 11.13-6.59 1.61-.46 2.94-.68 3.86-.77.93-.08 1.44-.06 1.45 0 .03.18-2.01.4-5.08 1.47-3.05 1.05-7.13 3.13-10.62 6.62-3.49 3.5-5.56 7.58-6.6 10.64-1.07 3.07-1.28 5.11-1.46 5.08z" fill="#263238"/><path d="m563.08 537.29c-.12-.23 3.65-2.14 8.77-2.54 5.12-.44 9.16.83 9.07 1.07-.06.31-4.05-.46-8.98-.03-4.93.38-8.75 1.8-8.86 1.5z" fill="#263238"/><path d="m372.53 589.01-4.98 5.66c5.34 6.21 12.28 11.42 20.24 13.38s16.23 2.19 24.42 2.21c3.32.01 6.69-.02 9.88-.94 3.25-.93 6.28-2.78 9.65-2.98 2.26-.14 4.49.48 6.71.96 2.21.47 4.55.8 6.71.11 2.15-.7 4.04-2.7 3.91-4.96-24.92-7.27-50.64-11.78-76.54-13.44z" opacity=".302"/><path d="m536.54 596.27-14.1-14.98-28.99-7.33c-17.72 5.3-26.79 7.95-27.21 7.93-.42-.01-8.13-2.06-23.13-6.14l-7.86 28.83 40.51 2.77 46.25-1.85c1.6-1.5 1.93-2.76.98-3.78-1.43-1.54 7.73 2.6 8.81 2.64 1.06.05 3.17.88 4.6-.84.97-1.18 2.29-4.97.14-7.25z" fill="#ffbe9d"/><path d="m522.99 601.72c-.06.14-1.8-.42-4.61-1.31s-6.7-2.09-11.05-3.2-8.34-1.94-11.23-2.52-4.68-.94-4.66-1.09c.02-.13 1.85-.03 4.78.37 2.94.39 6.98 1.11 11.37 2.23s8.27 2.44 11.03 3.51c2.77 1.08 4.42 1.88 4.37 2.01z" fill="#eb996e"/><path d="m536.54 596.27c-.06.14-2.48-.76-6.43-2.08-3.95-1.33-9.47-2.96-15.6-4.67-6.13-1.83-11.59-3.65-15.72-3.89-4.13-.35-6.64.47-6.68.26-.02-.05.59-.31 1.74-.58 1.14-.28 2.86-.49 4.98-.41 4.27.06 9.9 1.81 15.96 3.61 6.14 1.72 11.66 3.47 15.56 4.99 1.96.74 3.52 1.41 4.58 1.9s1.64.8 1.61.87z" fill="#eb996e"/><path d="m375.8 424.66c-13.93 9.69-22.59 21.51-25.98 35.47-5.09 20.93-27.12 106.4-22.6 119.2 3.01 8.52 33.81 16.97 92.41 25.33l10.41-43.94-44.63-12.21c.38-27.14.75-46.32 1.13-57.57.38-11.24-3.2-33.33-10.74-66.28z" fill="#ff725e"/><path d="m429.46 567.27 14.38 3.55-8.65 33.16-14.13-2.26z" fill="#fff"/><path d="m326.88 574.8c.08 0-.04.73.22 2.07.28 1.32 1.14 3.23 3.06 4.99 3.82 3.56 11.12 6.52 20.37 8.19h.03l.03.01c4.23 1.39 9.05 2.49 14.2 3.66 5.16 1.15 10.69 2.33 16.54 3.52 11.69 2.4 24.63 4.91 38.34 7.48l-.59.38c.99-4.07 2.04-8.38 3.1-12.75 2.47-10.09 4.86-19.85 7.12-29.11l.35.6c-14.76-4.22-28.23-8.06-39.67-11.33h-.02l-.02-.01c-6.06-2.48-12.08-3.39-17.3-3.03-5.25.24-9.65 1.64-13.06 3.07-3.42 1.46-5.87 3.05-7.5 4.15-.76.55-1.36.99-1.82 1.32-.41.3-.63.45-.64.43-.02-.01.18-.19.56-.52.4-.32.97-.83 1.76-1.42 1.6-1.17 4.02-2.84 7.46-4.38 3.42-1.51 7.86-3 13.2-3.3 5.3-.42 11.46.44 17.65 2.93l-.04-.02c11.45 3.21 24.94 7 39.72 11.14l.46.13-.11.47c-2.25 9.27-4.63 19.04-7.09 29.13-1.06 4.36-2.11 8.67-3.11 12.75l-.12.47-.48-.09c-13.71-2.58-26.65-5.13-38.34-7.58-5.85-1.22-11.38-2.43-16.54-3.62-5.16-1.21-9.95-2.34-14.25-3.8l.07.01c-9.35-1.78-16.67-4.86-20.52-8.6-1.94-1.85-2.77-3.87-3-5.23-.13-.92-.13-1.63-.02-2.11z" fill="#263238"/><path d="m387.82 551.42c-.12.13-1.61-1.23-4.3-3.03-2.67-1.8-6.63-3.91-11.35-5.3-4.72-1.36-9.2-1.71-12.42-1.62-3.22.07-5.21.43-5.25.25-.02-.1 1.93-.72 5.22-.99 3.27-.27 7.89-.04 12.75 1.36 4.84 1.42 8.87 3.71 11.48 5.7 2.63 1.99 3.95 3.56 3.87 3.63z" fill="#263238"/><path d="m393.67 479.83c.07 0 .08.95.03 2.68-.04 1.72-.19 4.21-.42 7.28-.49 6.14-1.41 14.62-3.01 23.89-1.58 9.27-3.6 17.58-5.55 23.44-.49 1.47-.99 2.77-1.42 3.92-.48 1.07-.9 2.03-1.28 2.88-.83 1.53-1.31 2.35-1.37 2.31-.06-.03.3-.92 1-2.48.32-.86.69-1.83 1.1-2.92.38-1.15.83-2.46 1.27-3.93 1.76-5.88 3.65-14.16 5.22-23.4 1.6-9.24 2.63-17.67 3.31-23.78.3-2.9.55-5.33.75-7.24.17-1.71.3-2.66.37-2.65z" fill="#263238"/><path d="m444.64 457.16c-.06.01-.2-.55-.69-1.48-.49-.92-1.38-2.23-3-3.29-1.58-1.05-4-1.79-6.51-.95-2.45.79-4.87 3.1-5.49 6.21l-.27 1.43-.62-1.32c-2.1-4.53-4.26-9.77-6.11-15.44-3.38-10.3-4.84-20.16-4.52-27.29-.01-1.78.25-3.38.36-4.78.24-1.4.42-2.6.63-3.57.51-1.93.82-2.97.89-2.95.26.04-1.19 4.26-1.14 11.32-.13 7.03 1.42 16.73 4.77 26.95 1.84 5.62 3.94 10.84 5.98 15.37l-.89.1c.74-3.5 3.45-5.96 6.18-6.78 2.8-.86 5.44.05 7.06 1.24 1.67 1.19 2.53 2.63 2.95 3.62.21.5.33.9.38 1.18s.07.42.04.43z" fill="#263238"/><path d="m493.41 461.66c-.07 0-.21-.84-.47-2.38-.21-1.54-.72-3.8-.42-6.71.4-2.84 1.75-6.3 4.82-8.85 1.52-1.26 3.61-2.1 5.82-2.09 2.18 0 4.56.85 6.12 2.74l-.88.5c-.61-1.53-1.25-3.14-1.9-4.78-3.73-9.42-7.06-17.97-9.41-24.18-1.11-2.97-2.03-5.44-2.74-7.37-.63-1.74-.94-2.72-.87-2.75.06-.02.51.91 1.25 2.61.79 1.9 1.82 4.33 3.05 7.26 2.53 6.14 5.96 14.65 9.69 24.07.65 1.64 1.29 3.25 1.89 4.78l1.22 3.09-2.1-2.58c-1.31-1.61-3.38-2.39-5.33-2.4-1.98-.03-3.82.68-5.24 1.81-2.86 2.29-4.26 5.58-4.71 8.24-.38 2.73.01 5.01.11 6.56.15 1.56.16 2.42.1 2.43z" fill="#263238"/><path d="m530.5 466.62c.28-.04 4.8 30.37 10.09 67.91 5.29 37.55 9.35 68.01 9.06 68.05-.28.04-4.8-30.36-10.09-67.91-5.29-37.54-9.35-68.01-9.06-68.05z" fill="#263238"/><path d="m422.56 442.64c.25 7.77 1.95 15.48 4.98 22.59 2.18-2.69 4.6-5.53 7.91-6.33 4.13-.99 8.31 1.57 11.29 4.67-.63-3.09-1.67-6.17-3.6-8.63s-4.86-4.23-7.93-4.14c-3.07.08-6.12 2.33-6.68 5.44l-5.73-13.46" opacity=".302"/><path d="m388.79 464.62c-.19 0-.13-2.09-.73-5.36-.6-3.26-2.06-7.68-4.87-11.9-1.41-2.09-3-3.9-4.57-5.43-1.61-1.47-3.16-2.71-4.58-3.57-2.81-1.77-4.79-2.45-4.72-2.64.02-.06.52.06 1.43.35.46.14 1 .34 1.61.63.62.28 1.33.58 2.06 1.03 1.5.8 3.15 2.01 4.85 3.5 1.66 1.53 3.33 3.39 4.79 5.56 2.9 4.35 4.3 8.98 4.72 12.35.22 1.69.28 3.07.2 4.02-.06.95-.12 1.46-.19 1.46z" fill="#263238"/><path d="m504.87 321.89c-2.37-22.2-21.4-38.86-43.72-38.29l-2.22.06c-23.88 2.01-35.52 23.42-32.85 47.25l6.56 83.79 2.77 3.4c12.84 15.77 34.69 20.91 53.22 12.54l-1.84-26.95c15.27-2.78 22.8-11.83 22.6-27.17-.15-11.11-2.32-33.97-4.52-54.63z" fill="#ffbe9d"/><path d="m486.97 403.65c-9.78.84-19.89-1.84-30.36-8.04 5.01 10.91 15.14 15.48 30.41 13.7z" fill="#eb996e"/><path d="m497.6 340.92c.11 1.73-1.27 3.25-3.08 3.39-1.8.14-3.36-1.14-3.46-2.87-.11-1.74 1.27-3.26 3.08-3.4 1.8-.14 3.35 1.14 3.46 2.88z" fill="#263238"/><path d="m499.06 328.41c-.26.41-2.87.68-5.97 2.36-3.12 1.66-4.98 3.78-5.42 3.75-.21 0-.02-.58.78-1.52.79-.93 2.28-2.22 4.22-3.26s3.75-1.52 4.88-1.62c1.14-.1 1.65.1 1.51.29z" fill="#263238"/><path d="m464.41 342.66c.1 1.73-1.28 3.25-3.09 3.39-1.8.15-3.35-1.14-3.46-2.87-.1-1.73 1.28-3.25 3.08-3.4 1.81-.14 3.36 1.15 3.47 2.88z" fill="#263238"/><path d="m463.9 333.25c-.46.1-2.6-1.35-6.03-2.19-3.42-.87-6.2-.65-6.51-.94-.16-.14.36-.4 1.58-.5 1.2-.12 3.16-.03 5.3.5 2.13.54 3.8 1.36 4.71 2 .93.64 1.17 1.09.95 1.13z" fill="#263238"/><path d="m477.77 360.71c-.03-.2 2.16-.64 5.71-1.18.9-.12 1.75-.32 1.88-.94.2-.66-.2-1.62-.67-2.66-.9-2.16-1.85-4.43-2.84-6.8-3.96-9.69-6.85-17.66-6.46-17.82s3.92 7.57 7.88 17.26c.95 2.39 1.86 4.66 2.73 6.84.37 1.02.99 2.17.56 3.53-.23.68-.88 1.19-1.45 1.36-.57.19-1.08.21-1.53.25-3.57.29-5.8.36-5.81.16z" fill="#263238"/><path d="m463.95 319.59c-.39.95-3.89.32-8.06.62-4.17.21-7.57 1.26-8.08.38-.22-.43.4-1.3 1.8-2.17 1.38-.86 3.56-1.64 6.06-1.79s4.76.35 6.24 1.04c1.49.68 2.22 1.48 2.04 1.92z" fill="#263238"/><path d="m498.97 320.38c-.76.81-3.81.01-7.46.01-3.65-.11-6.74.6-7.46-.23-.31-.4.17-1.21 1.51-1.99 1.32-.77 3.54-1.41 6.05-1.37s4.69.74 5.97 1.55c1.3.81 1.73 1.63 1.39 2.03z" fill="#263238"/><path d="m511.58 301.55c-.44-2.09-2.5-3.85-4.61-3.54 1.13-.4 2.28-.82 3.17-1.61.9-.8 1.47-2.07 1.09-3.21-.59-1.78-2.86-2.14-4.67-2.65-2.35-.67-4.48-2.09-6-4.01-2.18-2.76-3.02-6.35-4.91-9.32-2.45-3.85-6.69-6.5-11.23-7-4.53-.5-9.25 1.16-12.47 4.38-3.52-3.6-8.82-5.38-13.8-4.62-4.97.75-9.5 4.03-11.78 8.52-6.1-2.54-13.55-1.49-18.72 2.64-5.16 4.12-7.83 11.16-6.69 17.67l14.32 8.78c.23-4.43 5.17-7.95 9.43-6.72 4.32 1.25 7.09 6.26 11.58 6.6 3.49.27 6.46-2.44 9.85-3.35 4.11-1.1 8.44.55 12.15 2.63 3.7 2.09 7.22 4.69 11.34 5.73 4.84 1.22 9.98.15 14.6-1.74 1.97-.81 3.93-1.8 5.4-3.34 1.47-1.55 2.39-3.75 1.95-5.84z" fill="#263238"/><path d="m437.77 300.82 65.59-.37c-2.16-4.47-5.9-7.99-9.94-10.87-8.7-6.23-19.28-9.97-29.98-9.86-10.69.11-32.09 13.73-39.64 21.32-4.02 4.05-5.97 7.77-5.85 11.18-.75 8.52 4.28 18.05 6.4 26.34.73 2.85 1.85 8.6 3.34 17.25 3.62-.11 4.88-3.03 4.23-6.58l-1.07-13.99c8.03-6.05 9.96-14.35 5.78-24.89-.97-1.24-3.12-7.03 1.14-9.53z" fill="#263238"/><path d="m429.83 334.31c-3.34-11.62-6.4-24.07-2.85-35.62-.65-.03-1.3-.05-1.95-.08l-.81.59c-3.67-1.23-8.06.17-10.34 3.29-2.28 3.13-2.27 7.74.03 10.86-3.89-.19-7.62 3.06-7.97 6.94-.25 2.67.92 5.25 2.11 7.66s2.47 4.9 2.49 7.58c.02 2.69-1.7 5.6-4.37 5.92 1.2 2.75 4.53 4.37 7.43 3.61-.92 2.27-2.5 4.27-4.5 5.68 4.27 2.91 10.14 1.92 14.78-.35 2.76-1.34 5.47-3.25 6.59-6.1 1.25-3.16.3-6.72-.64-9.98z" fill="#263238"/><path d="m428.76 347.84c-.4-.16-15.92-4.27-15.01 11.44.9 15.71 16.49 11.56 16.49 11.11 0-.31-.49-7.82-1.48-22.55z" fill="#ffbe9d"/><path d="m426.48 364.67c-.07-.04-.26.21-.71.45-.44.23-1.21.42-2.05.16-1.69-.51-3.24-3.07-3.48-5.89-.12-1.43.1-2.81.54-3.97.41-1.17 1.11-2.02 1.94-2.21.82-.25 1.44.22 1.66.65.23.43.15.75.23.77.05.04.33-.28.16-.92-.08-.31-.29-.67-.67-.95-.4-.29-.96-.41-1.54-.31-1.2.15-2.23 1.33-2.72 2.6-.55 1.27-.83 2.83-.69 4.43.28 3.16 2.07 6.03 4.38 6.55 1.12.22 2.02-.16 2.48-.56.46-.42.53-.77.47-.8z" fill="#eb996e"/><path d="m412.45 334.81c-.04.03-.44-.59-.29-1.82.15-1.21 1.02-2.95 2.94-4.1 1.9-1.16 4.53-1.44 7.2-1.74 2.64-.28 5.66-1.03 7.17-3.64 1.51-2.54 1.55-5.64 1.22-8.24-.37-2.64-1.07-5.04-1.41-7.1-.83-4.16-.04-6.81.1-6.74.19.03-.28 2.58.75 6.57.44 2 1.22 4.33 1.68 7.11.39 2.74.45 6.06-1.3 9.04-.88 1.47-2.27 2.58-3.75 3.17-1.47.6-2.96.81-4.34.95-2.74.24-5.16.44-6.9 1.38-1.73.91-2.63 2.39-2.89 3.43-.28 1.07-.07 1.71-.18 1.73z" fill="#455a64"/><path d="m408.66 327.96c-.06.03-.35-.45-.49-1.42-.13-.95-.05-2.45.79-4.04.41-.78 1.03-1.58 1.86-2.24.83-.69 1.95-1.12 3.02-1.41 1.07-.31 2.18-.59 2.98-1.22s1.16-1.67 1.18-2.88c.05-1.2-.13-2.46-.1-3.72.01-1.25.16-2.45.4-3.56.49-2.25 1.3-4.14 2.25-5.62.95-1.52 2.46-2.26 3.48-2.21 1.04.01 1.47.48 1.43.52-.04.09-.53-.18-1.39-.04-.88.11-2.01.78-2.79 2.19-.77 1.4-1.48 3.27-1.88 5.38-.19 1.06-.3 2.18-.3 3.35-.02 1.16.17 2.39.13 3.76-.01 1.33-.5 2.9-1.66 3.77-1.14.85-2.38 1.08-3.43 1.37-2.15.42-3.59 1.62-4.43 2.99-1.67 2.81-.81 5.04-1.05 5.03z" fill="#455a64"/><path d="m500.58 286.55c.1.02-1.19.85-3.25-.12-1.01-.44-2-1.39-2.96-2.52-.97-1.15-2.06-2.37-3.65-3.24-3.07-1.74-8.03-2.19-11.85.79-1.94 1.41-3.66 3.37-5.92 5.02-1.13.81-2.44 1.53-3.93 1.82s-3.07.08-4.47-.43c-2.83-1.01-5.07-2.75-7.51-3.63-2.43-.95-4.97-1.36-7.38-1.33-4.84.01-9.03 1.83-11.89 4.09-2.91 2.25-4.62 4.79-5.62 6.58-.98 1.83-1.33 2.94-1.43 2.9-.04-.01.01-.3.15-.83.15-.54.42-1.32.86-2.28.89-1.9 2.53-4.61 5.5-7.05 2.91-2.44 7.31-4.47 12.42-4.54 2.54-.06 5.22.35 7.82 1.33 2.63.96 4.92 2.7 7.48 3.61 1.28.46 2.59.62 3.85.38 1.25-.24 2.4-.85 3.46-1.6 2.11-1.51 3.87-3.47 5.95-4.96 2.06-1.54 4.58-2.29 6.87-2.27 2.3.01 4.4.66 6.07 1.65 1.7.99 2.86 2.39 3.74 3.55.91 1.16 1.77 2.07 2.66 2.54 1.81 1.02 3.03.42 3.03.54z" fill="#455a64"/><path d="m469.03 364.83c.5-.12 1.07 3.24 4.35 5.14 3.27 1.91 6.79.93 6.89 1.39.09.21-.68.79-2.19 1.08-1.47.31-3.72.19-5.72-.97s-3.08-2.99-3.43-4.35c-.36-1.38-.13-2.27.1-2.29z" fill="#263238"/><path d="m676.01 677.32c-5.94-5.29-14.15-7.75-22.1-7.29l-13.51 42.95c9.9.44 19.78 5.55 29.35 2.93 7.67-2.1 13.5-9.32 14.56-17.21 1.07-7.88-2.36-16.08-8.3-21.38z" fill="#ff725e"/><path d="m654.15 669.02c.03-.35 1.47-.62 4.1-.59 2.61.07 6.48.37 11.06 2.08 4.59 1.7 9.6 5.18 13.47 10.46 1.94 2.65 3.56 5.79 4.49 9.32.95 3.52 1.12 7.45.34 11.27-.79 3.82-2.46 7.4-4.92 10.25-2.45 2.88-5.59 4.87-8.72 6.05-6.3 2.36-12.36 1.99-17 1.1-4.68-.92-8.2-2.29-10.59-3.29-2.39-1.03-3.63-1.78-3.53-2.13.11-.34 1.56-.24 4.1.18 2.53.4 6.14 1.19 10.54 1.59 4.36.39 9.64.26 14.68-1.9 2.49-1.07 4.82-2.68 6.61-4.88 1.82-2.19 3.1-4.99 3.72-8.02 1.3-6.1-.55-12.19-3.66-16.79-3.11-4.65-7.18-7.96-11.01-9.83-3.86-1.93-7.42-2.78-9.86-3.45-2.45-.64-3.85-1.05-3.82-1.42z" fill="#f5f5f5"/><path d="m528.91 830.13-29.4 82.37 102.3 37.11c1.96-6.66-12.33-22.93-42.87-48.81l21.01-52z" fill="#ff725e"/><path d="m528.92 884.9c-2.18-.18-4.35 1.55-4.62 3.72-.26 2.17 1.48 4.39 3.65 4.61 2.17.21 4.85-1.78 4.87-3.97.02-2.18-2.17-4.68-4.33-4.37" fill="#fff" opacity=".6"/><path d="m499.51 912.5 2.97-8.31 97.17 38.76c2.56 2.43 3.28 4.64 2.16 6.66z" fill="#fff"/><path d="m560.79 900.88c-.2.5-2.78-.18-5.82.53-3.06.64-5.11 2.34-5.49 1.98-.43-.27 1.4-2.98 5.09-3.78 3.69-.84 6.5.86 6.22 1.27z" fill="#263238"/><path d="m569.91 909.21c-.06.53-2.53.59-4.99 2.09-2.51 1.43-3.77 3.56-4.26 3.35-.49-.09.22-3.14 3.32-4.94 3.08-1.83 6.09-.98 5.93-.5z" fill="#263238"/><path d="m571.35 924.27c-.49-.06-.28-2.81 1.99-5.08 2.26-2.29 5.01-2.51 5.07-2.02.13.51-1.92 1.43-3.76 3.32-1.88 1.85-2.79 3.91-3.3 3.78z" fill="#263238"/><path d="m564.26 888.5c-.37.38-2.41-1.14-5.31-1.97-2.87-.89-5.41-.74-5.52-1.26-.16-.47 2.66-1.54 6.05-.51 3.4 1 5.17 3.44 4.78 3.74z" fill="#263238"/><path d="m566.23 875.48c-.07.21-2.16-.2-5.11-1.88-1.48-.85-3.14-2.03-4.77-3.59-.81-.79-1.61-1.66-2.37-2.63-.36-.48-.81-.99-1.11-1.77-.37-.72-.2-2.16.73-2.74.81-.6 1.86-.6 2.6-.35.77.25 1.32.62 1.83.96 1.04.69 1.97 1.46 2.79 2.25 1.63 1.6 2.81 3.3 3.6 4.82 1.57 3.06 1.71 5.22 1.5 5.25-.28.08-.87-1.9-2.63-4.59-.88-1.34-2.08-2.83-3.63-4.23-.79-.7-1.66-1.37-2.62-1.98-.98-.67-1.9-1.02-2.35-.63-.17.14-.21.21-.09.61.12.38.46.82.81 1.29.69.92 1.42 1.76 2.15 2.53 1.46 1.53 2.95 2.76 4.26 3.7 2.64 1.88 4.52 2.71 4.41 2.98z" fill="#263238"/><path d="m565.32 875.96c-.21.01-.55-2.14.44-5.44.5-1.63 1.37-3.52 2.74-5.35.68-.92 1.49-1.81 2.43-2.64.97-.79 2.19-1.88 4.21-1.4 1.02.33 1.58 1.42 1.62 2.2.08.82-.06 1.44-.16 2.07-.24 1.26-.69 2.43-1.25 3.45-1.11 2.06-2.66 3.55-4.1 4.5-2.96 1.93-5.27 1.77-5.25 1.58-.07-.31 2.02-.64 4.47-2.63 1.21-.98 2.48-2.4 3.37-4.23.44-.91.79-1.92.98-2.99.23-1.15.14-2.17-.3-2.21-.51-.19-1.67.31-2.4 1.03-.86.72-1.62 1.51-2.28 2.32-1.31 1.61-2.23 3.28-2.85 4.75-1.23 2.95-1.37 5.01-1.67 4.99z" fill="#263238"/><path d="m429.79 610.11c-15.52.36-30.24 2.56-40.93 13.81-14.17 14.93-31.7 36.2-32.7 50.94-1.48 22.05 11.81 28.6 21.52 33.97 4.3 2.38 9.19 3.45 14.1 3.26l179.36-1.36 5.63-30.38-116.01-28.59 4.82-43.66z" fill="#263238"/><path d="m465.58 608.1 56.43-2.6c64.98 3.61 104.4 11.77 118.26 24.48 20.79 19.06 18.19 40.71 11.26 61.5-4.62 13.86-27.29 65.12-68.01 153.77 3.31 5.63 4.03 11.26 2.17 16.89-2.88 8.71-8.18 13.77-15.93 15.17l-54.24-19.93c-4.91-1.74-5.63-4.91-2.16-9.53 3.46-4.62 6.35-7.37 8.66-8.23v-13.86c12.7-23.1 19.63-36.24 20.79-39.42 1.15-3.18 7.82-28.27 20-75.29l12.13-20.85c-19.56-9.2-37.82-17.13-54.78-23.8l-59.4-14.64z" fill="#263238"/><path d="m557.1 854.86c-.11.14-1.82-1.22-4.76-3.12s-7.17-4.26-12.15-6.16c-4.99-1.89-9.72-2.94-13.18-3.46-3.46-.54-5.63-.66-5.63-.83 0-.12 2.2-.26 5.73.09 3.52.35 8.37 1.3 13.45 3.23 5.07 1.93 9.33 4.44 12.19 6.52 2.88 2.09 4.42 3.65 4.35 3.73z" fill="#455a64"/><path d="m584.21 845.34c-.11.09-1.33-1.17-3.16-3.32-1.82-2.14-4.26-5.19-6.81-8.66-2.55-3.46-4.74-6.7-6.24-9.08-1.51-2.39-2.35-3.92-2.23-4s1.18 1.31 2.84 3.58c1.89 2.6 4.07 5.59 6.47 8.89 2.43 3.27 4.63 6.23 6.55 8.82 1.68 2.25 2.69 3.68 2.58 3.77z" fill="#455a64"/><path d="m604.08 671.16c.04.17-1.99.6-5.13 1.64-3.15 1.04-7.39 2.81-11.68 5.48-4.28 2.68-7.74 5.72-10.05 8.09-2.32 2.37-3.6 4-3.74 3.89-.09-.06.98-1.86 3.2-4.39 2.21-2.54 5.66-5.74 10.04-8.48 4.38-2.72 8.76-4.42 12.01-5.29 3.25-.88 5.34-1.06 5.35-.94z" fill="#455a64"/><path d="m548.6 765.32c-.03-.01.04-.41.22-1.17.22-.87.5-1.96.84-3.31.8-2.99 1.9-7.09 3.25-12.1 2.87-10.31 6.78-24.33 11.1-39.83 2.25-7.76 4.18-15.17 6.35-21.88 2.52-6.65 6.51-11.79 10.21-15.58 3.73-3.81 7.22-6.37 9.7-8 1.25-.79 2.23-1.39 2.93-1.76.68-.37 1.05-.56 1.06-.53.05.09-1.35.93-3.76 2.63-2.39 1.72-5.78 4.34-9.4 8.17-3.58 3.81-7.44 8.91-9.84 15.4-2.08 6.62-4.01 14.11-6.26 21.85-4.43 15.46-8.44 29.44-11.39 39.73-1.47 4.97-2.68 9.04-3.56 12.01-.42 1.33-.76 2.4-1.03 3.26-.24.74-.38 1.12-.42 1.11z" fill="#455a64"/><path d="m498.69 663.74c-.28.03-1.47-10.52-2.65-23.56-1.17-13.04-1.89-23.63-1.61-23.66.29-.02 1.47 10.52 2.65 23.57 1.18 13.03 1.9 23.62 1.61 23.65z" fill="#455a64"/><path d="m404.78 691.9c-.16.08-1.03-1.62-2.79-4.13-1.76-2.5-4.53-5.73-8.2-8.61-3.68-2.86-7.48-4.77-10.33-5.86-2.86-1.11-4.73-1.54-4.69-1.72.02-.11 1.95.07 4.93 1.02 2.98.94 6.95 2.8 10.73 5.74 3.78 2.96 6.54 6.37 8.17 9.03 1.64 2.66 2.28 4.49 2.18 4.53z" fill="#455a64"/><path d="m439.35 653.61c-.1.16-2.49-1.38-6.64-3.26-4.13-1.89-10.11-3.97-16.98-4.97-6.87-.97-13.19-.66-17.69-.01-4.51.65-7.23 1.45-7.28 1.26-.02-.06.64-.31 1.87-.71 1.22-.41 3.03-.86 5.29-1.27 4.53-.85 10.97-1.29 17.96-.3 6.99 1.02 13.05 3.25 17.15 5.33 2.06 1.04 3.67 1.98 4.72 2.72 1.07.72 1.64 1.15 1.6 1.21z" fill="#455a64"/><path d="m574.45 680.32c0 .04-.49-.05-1.4-.23-1.01-.22-2.34-.51-3.98-.87-3.57-.8-8.54-1.91-14.62-3.28-12.35-2.77-29.43-6.47-48.36-10.22-18.94-3.75-36.14-6.83-48.61-8.98-6.15-1.05-11.16-1.91-14.77-2.53-1.66-.3-2.99-.54-4.01-.72-.92-.18-1.39-.28-1.39-.32.01-.04.5 0 1.42.11 1.03.14 2.37.31 4.04.53 3.51.47 8.58 1.22 14.83 2.21 12.5 1.96 29.74 4.92 48.69 8.67 18.95 3.76 36.01 7.58 48.32 10.53 6.16 1.48 11.13 2.71 14.55 3.61 1.63.44 2.94.79 3.94 1.05.9.26 1.36.41 1.35.44z" fill="#455a64"/><path d="m460.76 656.91c-.2.06-.62-2.37-2.48-5.73-.94-1.67-2.31-3.51-4.1-5.31-1.78-1.81-3.96-3.61-6.28-5.43-4.68-3.59-9.44-6.12-12.85-7.98-3.43-1.84-5.56-2.99-5.49-3.12.06-.12 2.29.79 5.82 2.46 3.51 1.7 8.37 4.15 13.15 7.81 2.36 1.85 4.54 3.69 6.34 5.59 1.81 1.89 3.17 3.86 4.06 5.63.89 1.78 1.36 3.31 1.6 4.38.24 1.08.3 1.69.23 1.7z" fill="#455a64"/><path d="m660.53 684.03c.23.22-2.77 3.25-5.1 7.86-2.39 4.59-3.1 8.8-3.42 8.74-.25 0 .01-4.43 2.49-9.21 2.44-4.8 5.88-7.6 6.03-7.39z" fill="#263238"/><path d="m532.16 479.07 12.84 90.44.64 1.45c3.03-31.12-1.64-62.96-13.48-91.89z" opacity=".302"/><path d="m601.3 531.04-41.75 73.02-102.86 2.23-.25 4.66 99.59-.74 3.16-.1 105.18.2 21.25-36.65 27.15-38.91c1.78-2.55-.05-6.05-3.16-6.04l-104.99.4c-1.37.01-2.64.74-3.32 1.93z" fill="#e0e0e0"/><path d="m685.62 573.66c3.6 3.3 5.12 6.35 4.55 9.16-.85 4.21-.57 7.34-4.55 7.62.19 3.61-1.61 5.69-5.4 6.26.81 4.4-1.35 6.98-6.47 7.74-1.57 4.7-3.96 6.48-7.19 5.34-3.22-1.13-5.88-2.37-7.96-3.69l-1.43-2.56c-4.75-1.79-6.54-4.02-5.36-6.7.71-1.63 2.29-2.66 4.75-3.08-1.03-2.39-.87-4.47.45-6.26 1.14-1.53 3.56-1.66 7.27-.4-.22-1.97.37-3.78 1.76-5.44 1.27-1.5 4.85-.21 10.75 3.86l4.83-5.77z" fill="#ffbe9d"/><path d="m673.75 604.44c-.15.24-4.12-1.95-8.87-4.91-4.75-2.95-8.48-5.54-8.32-5.78.15-.25 4.12 1.95 8.87 4.9s8.48 5.54 8.32 5.79z" fill="#eb996e"/><path d="m680.22 596.7c-.15.25-3.84-1.7-8.24-4.36-4.4-2.65-7.85-5-7.7-5.25.15-.24 3.84 1.71 8.24 4.36s7.84 5 7.7 5.25z" fill="#eb996e"/><path d="m671.41 582.22c.16-.29 3.46 1.45 7.3 3.88 3.85 2.45 6.95 4.36 6.87 4.55-.14.34-3.58-1.21-7.42-3.67-3.86-2.44-6.86-4.55-6.75-4.76z" fill="#eb996e"/><path d="m712.79 531.48c0 .01-.18.03-.51.05-.39.01-.88.03-1.47.05-1.39.03-3.28.06-5.68.1-5.02.04-12.14.1-20.89.17-17.71.03-42.04.09-68.91.15-1.68 0-3.35 0-5.01 0-1.58-.12-3.01.57-3.83 1.8-1.58 2.86-3.14 5.67-4.67 8.43-3.08 5.55-6.04 10.91-8.87 16.01-5.66 10.17-10.76 19.34-15.07 27.07-4.29 7.62-7.77 13.82-10.23 18.2-1.2 2.08-2.14 3.72-2.83 4.92-.31.52-.56.93-.76 1.27-.17.28-.27.42-.29.41-.01 0 .05-.16.2-.46.18-.35.4-.79.67-1.32.64-1.22 1.53-2.9 2.66-5.02 2.39-4.41 5.77-10.67 9.94-18.37 4.25-7.76 9.28-16.96 14.87-27.17 2.81-5.12 5.76-10.48 8.82-16.04 1.54-2.78 3.11-5.62 4.7-8.5.97-1.55 2.94-2.42 4.69-2.27h5.01c26.87.06 51.2.11 68.91.15 8.75.07 15.87.12 20.89.16 2.4.05 4.29.08 5.68.1.59.02 1.08.04 1.47.05.33.02.51.04.51.06z" fill="#263238"/><path d="m638.77 568.18c-1.86 2.06-1.9 5.05-.1 6.68 1.81 1.62 4.78 1.27 6.63-.79 1.86-2.06 1.91-5.04.1-6.67-1.8-1.63-4.77-1.28-6.63.78z" fill="#fff"/><path d="m346.79 539.94c-.89.36-1.91.96-1.92 1.92-.01.78.72 1.4 1.48 1.57.76.16 3.51-.98 4.27-1.15 10.81-2.38 19.73-.1 30.03 3.95l.33-.34c-4.11-8.67-22.56-10.63-34.19-5.95z" opacity=".302"/><path d="m904.04 945.92c0 .28-180.91.52-404.02.52-223.19 0-404.06-.24-404.06-.52 0-.29 180.87-.52 404.06-.52 223.11 0 404.02.23 404.02.52z" fill="#263238"/><path d="m290.84 308.42c.23.23 22.48-7.27 66.75-22.49l-25.53-58.6-59.12 22.6 32.52 18.69z" fill="#455a64"/><path d="m321.99 244.99v-79.8c61.08-11.16 113.62-16.42 157.62-15.76s88.66 4.6 133.98 11.82v76.61c-137.92-12.32-235.12-9.95-291.6 7.13z" fill="#455a64"/><path d="m321.51 245.06 36.08 41.22v-48.42c-20.12 2.41-32.14 4.8-36.08 7.2z" fill="#263238"/><path d="m321.99 165.19c.29 0 .41 17.88.28 39.93-.13 22.06-.47 39.93-.76 39.93s-.41-17.88-.28-39.93.47-39.93.76-39.93z" fill="#263238"/><path d="m644.64 302.3c-.23.23-22.48-7.27-66.75-22.49l25.53-58.6 59.12 22.6-32.52 18.69z" fill="#455a64"/><path d="m613.97 238.94-36.08 41.22v-44.92c12.02.4 24.05 1.63 36.08 3.7z" fill="#263238"/><path d="m613.59 161.26c.29-.01.61 17.39.71 38.83.1 21.46-.05 38.85-.33 38.85-.29 0-.61-17.39-.71-38.84-.11-21.45.04-38.84.33-38.84z" fill="#263238"/><path d="m373.66 200.18c-.89-6.36 3.37-11.59 9.94-12.5 3.65-.51 6.88.4 9.2 2.53l-2.73 3.33c-1.65-1.43-3.54-2.03-5.65-1.73-3.95.54-6.37 3.71-5.82 7.69s3.74 6.36 7.69 5.81c2.11-.29 3.77-1.38 4.96-3.23l3.54 2.45c-1.65 2.72-4.52 4.47-8.19 4.98-6.55.91-12.06-2.97-12.94-9.33z" fill="#fff"/><path d="m395.48 197.18c-.64-6.3 3.78-11.47 10.47-12.16 6.66-.68 12.07 3.44 12.72 9.77.66 6.33-3.8 11.47-10.46 12.15-6.69.69-12.08-3.47-12.73-9.76zm18.23-1.88c-.41-4.03-3.54-6.49-7.33-6.1-3.78.39-6.34 3.44-5.93 7.46.41 4.03 3.54 6.49 7.33 6.1 3.78-.39 6.34-3.43 5.93-7.46z" fill="#fff" fill-rule="evenodd"/><path d="m442.62 203.84-.85-12.75-5.58 10.91-2.22.14-6.88-9.83.8 12.48-4.61.29-1.37-21.25 4.07-.26 8.8 12.69 6.99-13.71 4.04-.26 1.42 21.25z" fill="#fff"/><path d="m470.15 189.29c.14 4.74-3.34 7.8-9.03 7.96l-4.29.12.16 5.87-4.93.14-.59-21.3 9.22-.26c5.69-.16 9.33 2.69 9.46 7.47zm-4.99.14c-.06-2.34-1.62-3.67-4.64-3.59l-4.01.12.21 7.39 4.01-.11c3.01-.09 4.5-1.5 4.43-3.81z" fill="#fff" fill-rule="evenodd"/><path d="m473.9 181.55h4.92v17.28h10.68v4.02h-15.6z" fill="#fff"/><path d="m508.71 199.43-.11 3.96-16.5-.48.62-21.3 16.1.47-.12 3.95-11.19-.32-.14 4.62 9.89.29-.11 3.83-9.89-.29-.14 4.93z" fill="#fff"/><path d="m517.81 186.61-6.8-.41.25-4.01 18.52 1.12-.24 4-6.81-.41-1.04 17.25-4.92-.3z" fill="#fff"/><path d="m547.72 202.35-.37 3.94-16.42-1.52 1.96-21.21 16.04 1.48-.37 3.94-11.15-1.03-.43 4.6 9.85.92-.35 3.81-9.85-.91-.46 4.91z" fill="#fff"/><path d="m553.87 185.57 9.59 1.28c6.91.93 11.08 5.72 10.23 12.11s-6.14 9.92-13.05 9l-9.59-1.28zm7.07 18.35c4.19.56 7.27-1.58 7.81-5.62s-1.87-6.91-6.07-7.47l-4.46-.6-1.74 13.09z" fill="#fff" fill-rule="evenodd"/><path d="m654.59 168.51 5.22 6.15 14.76-6.15-4.3-6.45z" fill="#455a64"/><path d="m647.82 139.3c0 4.25-3.44 7.69-7.68 7.69-4.25 0-7.69-3.44-7.69-7.69 0-4.24 3.44-7.68 7.69-7.68 4.24 0 7.68 3.44 7.68 7.68z" fill="#ff725e"/><path d="m475.78 253.86c0 2.12-1.72 3.84-3.85 3.84-2.12 0-3.84-1.72-3.84-3.84 0-2.13 1.72-3.85 3.84-3.85 2.13 0 3.85 1.72 3.85 3.85z" fill="#ff725e"/><path d="m296.87 196.14c0 1.61-1.3 2.92-2.91 2.92s-2.92-1.31-2.92-2.92 1.31-2.92 2.92-2.92 2.91 1.31 2.91 2.92z" fill="#ff725e"/><path d="m286.03 163.99 8.61.53 4.09-16.91-8.04.32z" fill="#455a64"/><path d="m554.84 299.05 2.9 8.13 17.15-2.88-3.45-7.26z" fill="#ff725e"/><path d="m381.27 252.2-5.3 6.8 11.63 12.94 4.28-6.82z" fill="#455a64"/><path d="m360.73 92.45 20.32 20.71 28.58-10.8 1.13 7.09-12.38 25.35 11.41 18.93-.96 5.64-27.65-4.65-16.35 17.95-3.84-2.92-3.39-22.82-25.8-13.43-1.13-5.21 25.98-7.11z" fill="#ff725e"/><path d="m360.73 92.45 20.32 20.71 28.58-10.8 1.13 7.09-12.38 25.35 11.41 18.93-.96 5.64-27.65-4.65-16.35 17.95-3.84-2.92-3.39-22.82-25.8-13.43-1.13-5.21 25.98-7.11z" opacity=".302"/><path d="m360.73 86.64 20.32 20.72 28.58-5-13.42 25.73 13.58 25.64-28.61-4.82-20.19 20.84-4.26-28.7-26.06-12.76 25.98-12.92z" fill="#ff725e"/><path d="m571.23 92.45-20.32 20.71-28.58-10.8-1.13 7.09 12.38 25.35-11.41 18.93.96 5.64 27.65-4.65 16.35 17.95 3.84-2.92 3.39-22.82 25.8-13.43 1.13-5.21-25.98-7.11z" fill="#ff725e"/><path d="m571.23 92.45-20.32 20.71-28.58-10.8-1.13 7.09 12.38 25.35-11.41 18.93.96 5.64 27.65-4.65 16.35 17.95 3.84-2.92 3.39-22.82 25.8-13.43 1.13-5.21-25.98-7.11z" opacity=".302"/><path d="m571.23 86.64-20.32 20.72-28.58-5 13.42 25.73-13.58 25.64 28.61-4.82 20.19 20.84 4.26-28.7 26.06-12.76-25.98-12.92z" fill="#ff725e"/><path d="m465.31 56.12 16.9 33.01 38.99-2.29-1.32 9.08-24.76 26.22 6.71 27.43-3.32 6.53-31.97-16.22-26.78 15.67-3.58-5.02 4.56-29.13-26.36-26.22.6-6.78 34.41 1.21z" fill="#ff725e"/><path d="m465.31 56.12 16.9 33.01 38.99-2.29-1.32 9.08-24.76 26.22 6.71 27.43-3.32 6.53-31.97-16.22-26.78 15.67-3.58-5.02 4.56-29.13-26.36-26.22.6-6.78 34.41 1.21z" opacity=".302"/><path d="m467.53 49.03 16.9 33.02 36.77 4.79-26.17 26.27 6.8 36.46-33.08-16.77-32.57 17.73 5.74-36.64-26.94-25.49 36.62-5.87z" fill="#ff725e"/><path d="m534.86 345.26 28.25 3.11c6.79-9.68 16.27-17.66 27.93-22.68 33.54-14.43 72.43 1.06 86.86 34.6s-1.05 72.42-34.59 86.86c-33.54 14.43-72.43-1.06-86.86-34.59-6.03-14.01-6.82-28.94-3.28-42.64l-.02.03z" fill="#fafafa"/><path d="m534.86 345.26c1.11 1.47 6.82 9.04 18.5 24.54l-.44.02.02-.03c.07-.12.23-.17.35-.1.11.06.16.18.13.29-2.34 9.14-3.24 21.17.44 34.15.94 3.22 2.07 6.51 3.65 9.71.81 1.6 1.57 3.24 2.44 4.86.97 1.56 1.96 3.14 2.97 4.74 4.29 6.21 9.87 12.03 16.7 16.76 6.8 4.74 14.83 8.38 23.58 10.29 8.74 1.91 18.2 2.13 27.52.13 9.3-2.02 18.42-6.12 26.34-12.21 7.88-6.08 14.71-14.04 19.1-23.44 4.52-9.55 6.93-19.98 6.56-30.17-.29-10.19-2.96-20.04-7.41-28.65-4.45-8.6-10.64-16.01-17.87-21.55-7.21-5.58-15.3-9.42-23.42-11.59-8.13-2.19-16.29-2.69-23.87-1.93-7.61.79-14.53 3.08-20.71 5.73-12.31 5.65-20.79 14.16-26.13 21.71-.05.07-.15.11-.23.1-17.88-2.13-26.47-3.15-28.22-3.36 1.75.18 10.36 1.05 28.27 2.87l-.23.1c5.32-7.64 13.82-16.3 26.24-22.07 6.23-2.72 13.22-5.06 20.92-5.89 7.68-.8 15.94-.31 24.19 1.88 8.24 2.17 16.45 6.05 23.77 11.69 7.35 5.61 13.65 13.12 18.18 21.85s7.25 18.73 7.55 29.08c.39 10.36-2.06 20.95-6.65 30.65-4.46 9.55-11.4 17.64-19.41 23.81-8.05 6.18-17.32 10.33-26.76 12.37-9.46 2.02-19.08 1.78-27.94-.17-8.87-1.96-17-5.67-23.89-10.49-6.9-4.82-12.54-10.74-16.86-17.04-1.01-1.62-2.01-3.23-2.99-4.81-.87-1.64-1.64-3.31-2.45-4.92-1.58-3.25-2.72-6.59-3.65-9.84-3.65-13.14-2.66-25.29-.23-34.48l.47.2-.01.03c-.07.12-.23.17-.35.1-.04-.02-.07-.05-.09-.07-11.42-15.69-17-23.36-18.08-24.85z" fill="#263238"/><path d="m592.8 362.89c.02.01.04.33.05.91.02.66.03 1.5.06 2.56.02 2.31.06 5.55.11 9.62.06 8.29.14 19.98.23 33.97l-.45-.45c13.7-.02 29.84-.04 47.06-.07.12-.11-.98.99-.51.52v-.02-.02-.05-.1-.2-.41-.8-1.61c0-1.07 0-2.13 0-3.19 0-2.12 0-4.22 0-6.29.01-4.16.01-8.22.02-12.17.02-7.9.03-15.35.05-22.2l.45.45c-14-.1-25.69-.18-33.98-.23-4.07-.05-7.3-.09-9.61-.12-1.06-.02-1.91-.04-2.56-.05-.59-.02-.9-.04-.92-.05-.01-.02.26-.04.82-.05.63-.02 1.45-.03 2.47-.06 2.29-.02 5.49-.06 9.51-.11 8.37-.06 20.16-.14 34.27-.23l.45-.01v.46c.02 6.85.03 14.3.05 22.2.01 3.95.01 8.01.02 12.17v6.29 3.19 1.61.8.41.2.1.05.02.02c.47-.47-.63.64-.53.53-17.22-.03-33.36-.05-47.06-.08h-.45v-.45c.1-14.11.18-25.9.23-34.26.05-4.03.09-7.23.12-9.51.02-1.03.04-1.84.05-2.48.02-.55.04-.83.05-.81z" fill="#263238"/><path d="m634.79 370.67c.68.53-5.66 9.65-14.14 20.36-1.7 2.14-3.35 4.18-4.89 6.03l-1 1.22-1.13-1.01c-7.35-6.62-12.34-11.71-11.89-12.23.46-.52 6.21 3.67 13.83 9.98l-2.13.2c1.45-1.92 3.06-3.99 4.76-6.13 8.48-10.71 15.91-18.96 16.59-18.42z" fill="#ff725e"/></svg>